<?xml version="1.0" encoding="utf-8"?>
<!-- Generator: Adobe Illustrator 16.0.0, SVG Export Plug-In . SVG Version: 6.00 Build 0)  -->
<!DOCTYPE svg PUBLIC "-//W3C//DTD SVG 1.0//EN" "http://www.w3.org/TR/2001/REC-SVG-20010904/DTD/svg10.dtd">
<svg version="1.0" id="Layer_1" xmlns="http://www.w3.org/2000/svg" xmlns:xlink="http://www.w3.org/1999/xlink" x="0px" y="0px"
	 width="52px" height="52px" viewBox="0 0 52 52" enable-background="new 0 0 52 52" xml:space="preserve">
<g>
	<g>
		<path fill="#5AC6D3" d="M25.986,51.5c-5.353,0-10.698-1.676-15.19-5.009c-0.425-0.314-0.515-0.92-0.197-1.347
			c0.315-0.425,0.92-0.515,1.344-0.199c8.008,5.941,18.946,6.188,27.222,0.613c5.222-3.52,8.761-8.863,9.967-15.049
			c1.205-6.179-0.067-12.461-3.588-17.688C38.28,2.038,23.599-0.827,12.817,6.438C2.039,13.705-0.823,28.391,6.438,39.175
			c0.299,0.44,0.181,1.037-0.259,1.334c-0.439,0.295-1.039,0.183-1.334-0.26c-7.857-11.663-4.762-27.546,6.9-35.404
			c11.659-7.858,27.538-4.762,35.397,6.905c3.803,5.652,5.184,12.444,3.88,19.132c-1.305,6.687-5.136,12.465-10.783,16.27
			C35.932,50.056,30.953,51.5,25.986,51.5z"/>
	</g>
	<g>
		<path fill="#5AC6D3" d="M30.423,19.569h7.614c0.167,0,0.307-0.136,0.307-0.305V16.99c0-0.168-0.141-0.303-0.307-0.303h-7.614
			c-0.169,0-0.307,0.136-0.307,0.303v2.274C30.116,19.433,30.254,19.569,30.423,19.569z"/>
		<path fill="#5AC6D3" d="M39.456,22.964c-1.164-1.329-2.869-2.001-5.06-2.001c-3.826,0-5.636,2.02-6.483,3.716
			c-0.904,1.815-0.911,3.602-0.911,3.663c-0.011,0.124-0.196,3.144,1.817,5.304c1.286,1.375,3.159,2.074,5.554,2.074h0.005
			c0,0,0.097,0.007,0.27,0.007c1.062,0,6.365-0.252,6.365-5.219c0-0.171-0.137-0.307-0.305-0.307h-3.246
			c-0.087,0-0.163,0.032-0.221,0.096c-0.061,0.06-0.088,0.138-0.088,0.226c0.002,0.021,0.013,0.521-0.412,0.965
			c-0.443,0.46-1.198,0.697-2.257,0.697c-0.007,0-0.04,0.002-0.1,0.002c-0.27,0-0.981-0.042-1.623-0.421
			c-0.724-0.435-1.127-1.164-1.19-2.178h9.24c0.154,0,0.287-0.114,0.304-0.266C41.143,29.164,41.599,25.407,39.456,22.964z
			 M31.464,26.42c0.203-0.708,0.862-2.231,2.866-2.231c0.754,0,1.349,0.218,1.776,0.644c0.499,0.505,0.655,1.195,0.706,1.587H31.464
			z"/>
		<path fill="#5AC6D3" d="M25.666,25.71c-0.35-0.372-0.769-0.642-1.246-0.81c0.855-0.458,1.825-1.415,1.825-3.408
			c0-3.225-2.118-5.224-5.525-5.224h-9.602c-0.168,0-0.306,0.138-0.306,0.307v18.455c0,0.168,0.14,0.308,0.306,0.308h9.665
			c0.414,0,1.87-0.057,3.275-0.779c1.288-0.658,2.825-2.06,2.825-4.959C26.89,29.497,27.005,27.129,25.666,25.71z M15.519,20.071
			h4.372h0.694c0.038,0,0.992,0.019,0.992,1.614c0,1.746-0.624,1.892-1.329,1.892h-4.729V20.071z M20.306,31.353h-4.787v-4.319
			h5.065l0,0c0.167,0,1.635,0.064,1.635,2.229C22.219,31.056,21.163,31.332,20.306,31.353z"/>
	</g>
</g>
</svg>
