<?xml version="1.0" encoding="utf-8"?>
<!-- Generator: Adobe Illustrator 16.0.0, SVG Export Plug-In . SVG Version: 6.00 Build 0)  -->
<!DOCTYPE svg PUBLIC "-//W3C//DTD SVG 1.0//EN" "http://www.w3.org/TR/2001/REC-SVG-20010904/DTD/svg10.dtd">
<svg version="1.0" id="Layer_1" xmlns="http://www.w3.org/2000/svg" xmlns:xlink="http://www.w3.org/1999/xlink" x="0px" y="0px"
	 width="120px" height="120px" viewBox="0 0 120 120" enable-background="new 0 0 120 120" xml:space="preserve">
<g>
	<path fill="#FFFFFF" d="M90.96,76.94c0-3.464-2.816-6.279-6.279-6.279H84.56c-0.867-2.428-3.171-4.188-5.896-4.188
		c-0.127,0-0.241,0.055-0.363,0.073c-0.843-2.468-3.162-4.26-5.915-4.26c-0.738,0-1.434,0.151-2.093,0.389V49.729
		c0-3.46-2.817-6.278-6.278-6.278c-3.462,0-6.28,2.818-6.28,6.278v18.73l-0.662,0.22c-0.789,0.262-7.71,2.727-7.71,8.262
		c0,0.521-0.078,1.427-0.166,2.522c-0.382,4.755-0.62,8.86,0.368,10.938c1.458,3.061,6.394,8.488,8.17,10.394v7.543h4.187v-8.371
		c0-0.536-0.206-1.056-0.576-1.444c-1.824-1.913-6.813-7.428-8-9.916c-0.586-1.233-0.159-6.536,0.022-8.803
		c0.1-1.245,0.182-2.276,0.182-2.861c0-1.855,2.637-3.368,4.183-4.03v3.982c-0.001,0.057-0.081,1.361-1.479,2.756
		c-0.815,0.817-0.815,2.142,0,2.959c0.41,0.409,0.945,0.613,1.479,0.613c0.537,0,1.072-0.204,1.481-0.613
		c2.63-2.627,2.707-5.363,2.707-5.666V49.729c0-1.152,0.938-2.092,2.092-2.092s2.094,0.939,2.094,2.092v18.839v8.373
		c0,1.156,0.936,2.092,2.094,2.092c1.155,0,2.092-0.936,2.092-2.092v-8.373c0-1.151,0.938-2.094,2.093-2.094
		s2.094,0.941,2.094,2.094v8.373c0,1.156,0.938,2.092,2.094,2.092s2.093-0.936,2.093-2.092v-6.279c1.155,0,2.092,0.939,2.092,2.093
		v6.278c0,1.159,0.938,2.094,2.094,2.094c1.157,0,2.094-0.935,2.094-2.094v-4.133c1.025,0.135,1.832,0.99,1.836,2.15
		c0.159,3.009,0.474,11.422,0.024,14.204c-0.236,1.465-3.108,4.771-7.244,6.837c-0.707,0.357-1.156,1.08-1.156,1.873v8.371h4.187
		v-7.121c3.911-2.244,7.801-5.932,8.348-9.289C91.541,88.199,91.022,77.983,90.96,76.94z"/>
	<path fill="#FFFFFF" d="M110.061,16.24H9.939v77.444h36.674c-0.317-0.52-0.611-1.025-0.831-1.486
		c-0.383-0.807-0.643-1.709-0.816-2.698H14.125V20.426h91.749V89.5H95.342c-0.052,1.188-0.144,2.264-0.277,3.104
		c-0.058,0.362-0.167,0.723-0.271,1.083h15.266L110.061,16.24L110.061,16.24z"/>
	<path fill="#FFFFFF" d="M64.013,39.264c-1.157,0-2.093-0.937-2.093-2.092v-8.373c0-1.157,0.936-2.094,2.093-2.094
		c1.156,0,2.092,0.937,2.092,2.094v8.373C66.104,38.327,65.169,39.264,64.013,39.264z"/>
	<path fill="#FFFFFF" d="M72.385,43.45c-0.535,0-1.07-0.205-1.479-0.611c-0.818-0.818-0.818-2.144,0-2.962l6.278-6.279
		c0.815-0.818,2.143-0.818,2.958,0c0.818,0.817,0.818,2.141,0,2.959l-6.278,6.282C73.456,43.245,72.921,43.45,72.385,43.45z"/>
	<path fill="#FFFFFF" d="M55.642,43.45c-0.537,0-1.073-0.205-1.481-0.611l-6.279-6.282c-0.819-0.818-0.819-2.142,0-2.959
		c0.817-0.818,2.143-0.818,2.959,0l6.28,6.279c0.817,0.818,0.817,2.142,0,2.962C56.711,43.245,56.175,43.45,55.642,43.45z"/>
	<path fill="#FFFFFF" d="M82.852,51.823h-6.28c-1.157,0-2.093-0.937-2.093-2.095c0-1.155,0.936-2.092,2.093-2.092h6.28
		c1.154,0,2.092,0.937,2.092,2.092C84.943,50.887,84.006,51.823,82.852,51.823z"/>
	<path fill="#FFFFFF" d="M51.454,51.823h-6.28c-1.156,0-2.093-0.937-2.093-2.095c0-1.155,0.937-2.092,2.093-2.092h6.28
		c1.156,0,2.094,0.937,2.094,2.092C53.548,50.887,52.611,51.823,51.454,51.823z"/>
</g>
</svg>
