<?xml version="1.0" encoding="utf-8"?>
<!-- Generator: Adobe Illustrator 16.0.0, SVG Export Plug-In . SVG Version: 6.00 Build 0)  -->
<!DOCTYPE svg PUBLIC "-//W3C//DTD SVG 1.0//EN" "http://www.w3.org/TR/2001/REC-SVG-20010904/DTD/svg10.dtd">
<svg version="1.0" id="Layer_1" xmlns="http://www.w3.org/2000/svg" xmlns:xlink="http://www.w3.org/1999/xlink" x="0px" y="0px"
	 width="52px" height="52px" viewBox="0 0 52 52" enable-background="new 0 0 52 52" xml:space="preserve">
<g>
	<g>
		<path fill="#5AC6D3" d="M25.987,51.5c-5.353,0-10.697-1.676-15.189-5.009c-0.425-0.316-0.516-0.919-0.199-1.347
			c0.316-0.425,0.922-0.513,1.346-0.198c8.009,5.94,18.947,6.186,27.222,0.612c5.221-3.52,8.763-8.863,9.966-15.05
			c1.206-6.176-0.067-12.46-3.586-17.683C38.28,2.036,23.599-0.824,12.819,6.44C2.038,13.704-0.822,28.39,6.441,39.175
			c0.296,0.438,0.18,1.036-0.262,1.335c-0.439,0.295-1.037,0.18-1.335-0.263c-7.856-11.66-4.76-27.544,6.902-35.404
			c11.658-7.856,27.539-4.76,35.396,6.904c3.806,5.65,5.184,12.445,3.88,19.131c-1.301,6.688-5.132,12.466-10.78,16.274
			C35.933,50.057,30.956,51.5,25.987,51.5z"/>
	</g>
	<path fill="#5AC6D3" d="M19.266,38.172h-5.057V21.911h5.057V38.172z M16.739,19.688c-1.621,0-2.931-1.315-2.931-2.931
		c0-1.62,1.31-2.932,2.931-2.932c1.617,0,2.927,1.312,2.927,2.932C19.667,18.373,18.355,19.688,16.739,19.688z M38.191,38.172
		h-5.048v-7.908c0-1.888-0.036-4.313-2.628-4.313c-2.628,0-3.027,2.056-3.027,4.175v8.05h-5.052V21.911h4.846v2.221h0.071
		c0.673-1.281,2.322-2.627,4.781-2.627c5.115,0,6.06,3.368,6.06,7.746L38.191,38.172L38.191,38.172z"/>
</g>
</svg>
