<?xml version="1.0" encoding="utf-8"?>
<!-- Generator: Adobe Illustrator 16.0.0, SVG Export Plug-In . SVG Version: 6.00 Build 0)  -->
<!DOCTYPE svg PUBLIC "-//W3C//DTD SVG 1.0//EN" "http://www.w3.org/TR/2001/REC-SVG-20010904/DTD/svg10.dtd">
<svg version="1.0" id="Layer_1" xmlns="http://www.w3.org/2000/svg" xmlns:xlink="http://www.w3.org/1999/xlink" x="0px" y="0px"
	 width="120px" height="120px" viewBox="0 0 120 120" enable-background="new 0 0 120 120" xml:space="preserve">
<g>
	<g>
		
			<rect x="28.433" y="31.954" transform="matrix(-0.5996 -0.8003 0.8003 -0.5996 20.6849 80.1181)" fill="#FFFFFF" width="3.906" height="5.861"/>
		
			<rect x="37.811" y="24.929" transform="matrix(-0.5994 -0.8004 0.8004 -0.5994 41.3024 76.387)" fill="#FFFFFF" width="3.907" height="5.86"/>
		<polygon fill="#FFFFFF" points="84.938,26.67 79.996,25.73 80.652,21.88 85.594,22.819 		"/>
		
			<rect x="68.73" y="20.374" transform="matrix(-0.9858 -0.168 0.168 -0.9858 138.552 56.3744)" fill="#FFFFFF" width="5.861" height="3.907"/>
		
			<rect x="57.177" y="18.404" transform="matrix(-0.9858 -0.168 0.168 -0.9858 115.9415 50.5225)" fill="#FFFFFF" width="5.861" height="3.907"/>
		
			<rect x="43.276" y="81.222" transform="matrix(-0.4894 -0.8721 0.8721 -0.4894 -3.7179 164.1727)" fill="#FFFFFF" width="5.859" height="3.906"/>
		
			<rect x="37.541" y="71.003" transform="matrix(-0.4895 -0.872 0.872 -0.4895 -3.3369 143.9586)" fill="#FFFFFF" width="5.857" height="3.905"/>
		
			<rect x="66.218" y="88.34" transform="matrix(-0.4703 -0.8825 0.8825 -0.4703 19.6815 194.3527)" fill="#FFFFFF" width="3.904" height="5.859"/>
		
			<rect x="76.563" y="82.841" transform="matrix(-0.4701 -0.8826 0.8826 -0.4701 39.7198 195.3888)" fill="#FFFFFF" width="3.906" height="5.859"/>
		
			<rect x="86.905" y="77.334" transform="matrix(-0.4699 -0.8827 0.8827 -0.4699 59.7584 196.4139)" fill="#FFFFFF" width="3.907" height="5.857"/>
		<path fill="#FFFFFF" d="M90.686,32.288L90.686,32.288l-0.713-0.009c-2.543,0-6.088-2.315-6.088-6.088
			c0-4.19,2.447-7.006,6.088-7.006c4.326,0,7.006,3.161,7.006,6.087c0,2.703-0.779,4.672-2.32,5.852
			C93.303,32.167,91.74,32.288,90.686,32.288z M89.973,23.091c-1.898,0-2.182,1.942-2.182,3.1c0,1.505,1.734,2.182,2.182,2.182
			l0.713,0.009l0,0c0.529,0,1.184-0.04,1.596-0.357c0.51-0.389,0.791-1.367,0.791-2.753C93.072,24.537,92.137,23.091,89.973,23.091z
			"/>
		<path fill="#FFFFFF" d="M101.596,78.209L101.596,78.209l-0.715-0.008c-2.541,0-6.086-2.318-6.086-6.088
			c0-4.191,2.447-7.006,6.086-7.006c4.328,0,7.006,3.16,7.006,6.086c0,2.703-0.779,4.672-2.318,5.854
			C104.211,78.088,102.65,78.209,101.596,78.209z M100.881,69.014c-1.896,0-2.18,1.939-2.18,3.1c0,1.504,1.734,2.18,2.18,2.18
			l0.715,0.01l0,0c0.527,0,1.184-0.039,1.596-0.355c0.51-0.391,0.791-1.369,0.791-2.754
			C103.982,70.457,103.045,69.014,100.881,69.014z"/>
		<path fill="#FFFFFF" d="M86.092,107.627L86.092,107.627l-0.715-0.01c-2.541,0-6.084-2.314-6.084-6.086
			c0-4.189,2.443-7.006,6.084-7.006c4.328,0,7.008,3.16,7.008,6.088c0,2.703-0.781,4.672-2.32,5.852
			C88.707,107.506,87.148,107.627,86.092,107.627z M85.377,98.428c-1.896,0-2.18,1.945-2.18,3.104c0,1.504,1.734,2.18,2.18,2.18
			l0.715,0.01l0,0c0.527,0,1.184-0.041,1.596-0.355c0.508-0.391,0.789-1.369,0.789-2.754C88.477,99.875,87.543,98.428,85.377,98.428
			z"/>
		<path fill="#FFFFFF" d="M55.256,104.711L55.256,104.711l-0.715-0.01c-2.543,0-6.088-2.316-6.088-6.086
			c0-4.191,2.447-7.006,6.088-7.006c4.326,0,7.004,3.16,7.004,6.086c0,2.703-0.779,4.674-2.32,5.854
			C57.867,104.592,56.311,104.711,55.256,104.711z M54.541,95.514c-1.803,0-2.184,1.688-2.184,3.102c0,1.506,1.736,2.18,2.184,2.18
			l0.715,0.01l0,0c0.525,0,1.184-0.041,1.594-0.354c0.51-0.393,0.791-1.369,0.791-2.756C57.641,96.959,56.705,95.514,54.541,95.514z
			"/>
		<path fill="#FFFFFF" d="M31.039,97.293L31.039,97.293l-0.715-0.012c-2.541,0-6.084-2.314-6.084-6.086
			c0-4.189,2.445-7.006,6.084-7.006c4.328,0,7.008,3.16,7.008,6.088c0,2.703-0.779,4.672-2.32,5.854
			C33.654,97.17,32.096,97.293,31.039,97.293z M30.324,88.094c-1.896,0-2.18,1.943-2.18,3.102c0,1.504,1.734,2.18,2.18,2.18
			l0.715,0.01l0,0c0.527,0,1.186-0.041,1.596-0.355c0.51-0.391,0.791-1.367,0.791-2.754C33.424,89.539,32.49,88.094,30.324,88.094z"
			/>
		<path fill="#FFFFFF" d="M36.494,72.959L36.494,72.959l-0.715-0.008c-2.541,0-6.088-2.316-6.088-6.086
			c0-4.193,2.447-7.007,6.088-7.007c4.328,0,7.006,3.16,7.006,6.087c0,2.701-0.779,4.674-2.318,5.852
			C39.107,72.838,37.547,72.959,36.494,72.959z M35.779,63.764c-1.898,0-2.18,1.941-2.18,3.1c0,1.504,1.732,2.18,2.18,2.18
			l0.715,0.01l0,0c0.525,0,1.184-0.039,1.596-0.355c0.51-0.391,0.789-1.369,0.789-2.754C38.877,65.209,37.943,63.764,35.779,63.764z
			"/>
		<path fill="#FFFFFF" d="M23.193,42.708l1.328-0.994l-2.342-3.126l-1.428,1.068C22.154,40.355,23.002,41.561,23.193,42.708z"/>
		<path fill="#FFFFFF" d="M18.914,50.216L18.914,50.216l-0.713-0.011c-2.545,0-6.088-2.314-6.088-6.086
			c0-4.191,2.447-7.007,6.088-7.007c4.324,0,7.004,3.159,7.004,6.088c0,2.703-0.779,4.672-2.32,5.853
			C21.529,50.094,19.969,50.216,18.914,50.216z M18.201,41.018c-1.898,0-2.184,1.943-2.184,3.102c0,1.503,1.734,2.18,2.184,2.18
			l0.713,0.009l0,0c0.525,0,1.184-0.039,1.594-0.354c0.51-0.391,0.791-1.369,0.791-2.753C21.299,42.463,20.363,41.018,18.201,41.018
			z"/>
		<path fill="#FFFFFF" d="M49.262,19.38c0-0.393,0.033-0.771,0.086-1.136l-3.717,2.784l2.342,3.126l2.562-1.917
			C49.807,21.557,49.262,20.605,49.262,19.38z"/>
		<path fill="#FFFFFF" d="M54.111,25.475L54.111,25.475l-0.715-0.008c-2.541,0-6.086-2.316-6.086-6.087
			c-0.002-4.19,2.445-7.008,6.086-7.008c4.326,0,7.006,3.161,7.006,6.089c0,2.701-0.781,4.672-2.32,5.852
			C56.725,25.355,55.166,25.475,54.111,25.475z M53.396,16.279c-1.898,0-2.182,1.943-2.182,3.102c0,1.503,1.736,2.18,2.182,2.18
			l0.713,0.011l0,0c0.529,0,1.186-0.042,1.596-0.356c0.51-0.392,0.791-1.37,0.791-2.755C56.496,17.724,55.561,16.279,53.396,16.279z
			"/>
		<path fill="#FFFFFF" d="M30.324,86.141c1.299,0,2.355,0.383,3.176,0.949l3.219-16.086c-0.365,0.008-0.689-0.008-0.939-0.008
			c-0.748,0-1.9-0.408-2.797-1.219l-3.291,16.432C29.898,86.178,30.1,86.141,30.324,86.141z"/>
		<path fill="#FFFFFF" d="M54.293,93.586l-2.078-3.701l-3.408,1.914l2.207,3.93C51.625,94.486,52.717,93.67,54.293,93.586z"/>
		<path fill="#FFFFFF" d="M50.498,99.43c-0.055-0.26-0.092-0.527-0.092-0.814c0-1.172,0.25-2.236,0.73-3.094l-15.768-5.334
			c0,0.029,0.01,0.061,0.01,0.09c0,1.801-0.396,2.959-0.975,3.709L50.498,99.43z"/>
		<path fill="#FFFFFF" d="M59.594,97.695c0,0.131-0.012,0.242-0.016,0.367l1.752-0.932l-1.836-3.451l-1.688,0.9
			C58.957,95.418,59.594,96.629,59.594,97.695z"/>
		<path fill="#FFFFFF" d="M97.072,73.648L85.939,96.529c1.562,0.139,2.754,0.822,3.512,1.711l10.746-22.086
			C99.104,75.893,97.695,75.059,97.072,73.648z"/>
		<path fill="#FFFFFF" d="M54.756,22.13l-3.834,0.751l2.93,14.952c1.609,0.078,2.99,0.42,4.166,0.942L54.756,22.13z"/>
		<path fill="#FFFFFF" d="M39.473,63.158c0.883,0.809,1.357,1.855,1.357,2.785c0,0.324-0.016,0.623-0.039,0.906l7.996-3.643
			c-0.795-0.992-1.592-2.076-2.342-3.225L39.473,63.158z"/>
		<path fill="#FFFFFF" d="M42.451,47.967l-19.289-3.465c-0.33,2.496-1.617,3.35-2.865,3.626L32.162,64.24
			c0.566-1.287,1.611-2.164,3.143-2.32l-9.562-12.985l17.094,3.071c-0.264-1.142-0.416-2.301-0.416-3.464
			C42.422,48.35,42.441,48.16,42.451,47.967z"/>
		<path fill="#FFFFFF" d="M53.646,93.654c0.281-0.057,0.576-0.094,0.895-0.094c1.18,0,2.17,0.312,2.957,0.795l2.5-21.633
			c-0.891-0.113-1.922-0.586-3.703-1.988L53.646,93.654z"/>
		<path fill="#FFFFFF" d="M81.926,98.521c0.643-1.205,1.744-1.994,3.34-2.033L67.309,68.652c-0.953,0.893-1.996,1.783-3.031,2.506
			L81.926,98.521z"/>
		<polygon fill="#FFFFFF" points="60.801,65.77 60.846,65.381 60.637,65.514 		"/>
		<path fill="#FFFFFF" d="M93.975,29.206c-1.078,1.305-2.734,1.277-3.713,1.256l8.299,35.552l-22.016-9.487
			c-0.568,1.194-1.223,2.341-1.918,3.429l22.551,9.716c0.59-1.551,1.803-2.613,3.703-2.613c0.754,0,1.422,0.135,2.016,0.352
			L93.975,29.206z"/>
		<path fill="#FFFFFF" d="M76.797,42.672l12.002-12.453c-1.098-0.403-2.332-1.317-2.781-2.744L74.092,39.847
			C75.156,40.62,76.076,41.574,76.797,42.672z"/>
		<path fill="#FFFFFF" d="M67.812,41.221c-6.104,0-7.324,5.37-7.324,5.37s-0.977-5.37-7.322-5.37c-4.047,0-7.324,3.277-7.324,7.321
			c0,9.564,13.344,20.795,14.646,20.795c1.791,0,14.648-11.353,14.648-20.795C75.137,44.499,71.857,41.221,67.812,41.221z"/>
	</g>
</g>
</svg>
