<?xml version="1.0" encoding="utf-8"?>
<!-- Generator: Adobe Illustrator 16.0.0, SVG Export Plug-In . SVG Version: 6.00 Build 0)  -->
<!DOCTYPE svg PUBLIC "-//W3C//DTD SVG 1.0//EN" "http://www.w3.org/TR/2001/REC-SVG-20010904/DTD/svg10.dtd">
<svg version="1.0" id="Layer_1" xmlns="http://www.w3.org/2000/svg" xmlns:xlink="http://www.w3.org/1999/xlink" x="0px" y="0px"
	 width="52px" height="52px" viewBox="0 0 52 52" enable-background="new 0 0 52 52" xml:space="preserve">
<g>
	<g>
		<path fill="#5AC6D3" d="M25.986,51.5c-5.354,0-10.697-1.674-15.188-5.007c-0.429-0.316-0.517-0.919-0.198-1.347
			c0.312-0.425,0.919-0.511,1.343-0.199c8.009,5.944,18.948,6.188,27.22,0.615c5.223-3.52,8.762-8.863,9.97-15.051
			c1.204-6.177-0.071-12.461-3.59-17.685C38.28,2.037,23.6-0.826,12.82,6.439C2.038,13.706-0.824,28.393,6.439,39.175
			c0.297,0.442,0.181,1.04-0.261,1.338c-0.44,0.295-1.036,0.181-1.334-0.262c-7.856-11.661-4.76-27.545,6.9-35.405
			c11.658-7.858,27.542-4.766,35.398,6.902c3.806,5.649,5.182,12.446,3.88,19.133c-1.305,6.688-5.134,12.467-10.783,16.271
			C35.932,50.059,30.955,51.5,25.986,51.5z"/>
	</g>
	<g>
		<g>
			<path fill="#5AC6D3" d="M34.907,38.897c-1.236,0.58-2.357,0.991-3.357,1.227c-1.003,0.234-2.086,0.349-3.255,0.349
				c-1.321,0-2.491-0.166-3.508-0.503c-1.017-0.332-1.885-0.812-2.602-1.427c-0.718-0.619-1.217-1.279-1.493-1.975
				c-0.277-0.698-0.417-1.704-0.417-3.029V23.387h-3.197v-4.096c1.136-0.374,2.11-0.9,2.921-1.589
				c0.812-0.691,1.463-1.516,1.951-2.487c0.493-0.967,0.829-2.194,1.012-3.688h4.119v7.316h6.868v4.547h-6.868v7.422
				c0,1.68,0.087,2.756,0.264,3.232c0.178,0.477,0.509,0.855,0.989,1.14c0.642,0.383,1.375,0.576,2.198,0.576
				c1.467,0,2.924-0.479,4.374-1.425L34.907,38.897L34.907,38.897z"/>
		</g>
	</g>
</g>
</svg>
