<?xml version="1.0" encoding="utf-8"?>
<!-- Generator: Adobe Illustrator 16.0.0, SVG Export Plug-In . SVG Version: 6.00 Build 0)  -->
<!DOCTYPE svg PUBLIC "-//W3C//DTD SVG 1.0//EN" "http://www.w3.org/TR/2001/REC-SVG-20010904/DTD/svg10.dtd">
<svg version="1.0" id="Layer_1" xmlns="http://www.w3.org/2000/svg" xmlns:xlink="http://www.w3.org/1999/xlink" x="0px" y="0px"
	 width="120px" height="120px" viewBox="0 0 120 120" enable-background="new 0 0 120 120" xml:space="preserve">
<g>
	<g>
		<polygon fill="#FFFFFF" points="40,17 40,25.609 43,25.781 43,19 114,19 114,91 75.092,91 74.789,94 118,94 118,17 		"/>
		<path fill="#FFFFFF" d="M104.762,61.286c-0.754,0-1.469,0.171-2.108,0.477L92.595,51.705c0.631-1.004,0.997-2.191,0.997-3.462
			c0-3.597-2.924-6.522-6.521-6.522c-1.271,0-2.456,0.367-3.46,0.999L73.306,32.415c0.306-0.639,0.477-1.353,0.477-2.107
			c0-2.701-2.19-4.893-4.892-4.893S64,27.606,64,30.308c0,2.698,2.189,4.891,4.891,4.891c0.757,0,1.469-0.171,2.107-0.477
			l5.832,5.827c-1.456-0.295-2.938-0.416-4.449-0.357c-4.519,0.172-9.311,2.004-13.856,5.297c-0.256,0.186-0.505,0.372-0.746,0.556
			c-1.024-0.671-2.249-1.064-3.562-1.064c-1.855,0-3.526,0.783-4.715,2.029l1.969,2.751c0.58-0.909,1.59-1.518,2.747-1.518
			c1.798,0,3.261,1.462,3.261,3.262c0,1.534-1.068,2.813-2.495,3.16l1.971,2.752c2.23-1.039,3.785-3.295,3.785-5.913
			c0-1.096-0.272-2.13-0.752-3.037c3.104-2.331,7.547-4.826,12.522-5.018c2.972-0.114,5.844,0.622,8.583,2.191
			c-0.347,0.798-0.542,1.677-0.542,2.602c0,3.596,2.925,6.522,6.521,6.522c0.986,0,1.919-0.221,2.756-0.611
			c3.136,4.819,3.984,9.857,2.514,15.038c-0.402,1.418-0.944,2.709-1.524,3.838c-0.709-0.266-1.477-0.409-2.276-0.409
			c-3.596,0-6.522,2.924-6.522,6.521c0,3.595,2.927,6.521,6.522,6.521c3.597,0,6.522-2.927,6.522-6.521
			c0-1.608-0.587-3.08-1.553-4.22c0.727-1.358,1.416-2.939,1.932-4.707c1.042-3.587,1.134-7.189,0.271-10.705
			c-0.008-0.035-0.017-0.069-0.027-0.103l4.665,4.662c-0.309,0.64-0.479,1.354-0.479,2.109c0,2.702,2.19,4.892,4.891,4.892
			c2.701,0,4.892-2.189,4.892-4.892C109.653,63.479,107.463,61.286,104.762,61.286z M87.07,51.504c-1.797,0-3.261-1.463-3.261-3.262
			c0-1.799,1.464-3.262,3.261-3.262c1.8,0,3.261,1.463,3.261,3.262C90.331,50.041,88.87,51.504,87.07,51.504z M88.539,82.402
			c-1.798,0-3.26-1.465-3.26-3.262c0-1.799,1.462-3.261,3.26-3.261c1.799,0,3.262,1.462,3.262,3.261
			C91.801,80.938,90.338,82.402,88.539,82.402z"/>
	</g>
	<g>
		<g>
			<path fill="#FFFFFF" d="M35.176,28.095c-1.363-0.206-2.723,0.133-3.827,0.949L16.294,40.175
				c-0.379,0.278-0.715,0.608-1.002,0.978c-1.416,1.821-1.449,4.383-0.08,6.232l0.868,1.175c-1.688-0.128-3.388,0.562-4.476,1.963
				c-0.205,0.262-0.384,0.547-0.533,0.845L2.66,68.1c-1.275,2.54-0.247,5.645,2.293,6.92l1.465,0.737
				c-0.119,0.13-0.254,0.233-0.364,0.376c-0.696,0.895-1.081,2.012-1.084,3.142L4.919,97.998c-0.008,2.844,2.298,5.164,5.142,5.17
				l55.67,0.152c1.604,0.003,3.093-0.724,4.084-1.998c0.695-0.896,1.081-2.012,1.083-3.144l0.046-16.393
				c0.228-0.204,0.443-0.421,0.629-0.661c1.415-1.817,1.447-4.381,0.082-6.231L38.56,30.124
				C37.742,29.021,36.544,28.298,35.176,28.095z M6.294,70.737c-0.051-0.153-0.111-0.458,0.054-0.785l8.408-16.73
				c0.031-0.06,0.065-0.116,0.105-0.168c0.297-0.381,0.847-0.506,1.279-0.29l4.85,2.438l27.312,36.951
				c0.021,0.028,0.048,0.049,0.069,0.074L6.806,71.335C6.477,71.173,6.343,70.891,6.294,70.737z M56.548,96.337l-4.216-2.117
				c1.104,0.027,2.225-0.278,3.18-0.984l5.966-4.41l-3.546,7.056C57.679,96.389,57.037,96.582,56.548,96.337z M10.07,99.043
				c-0.557-0.002-1.03-0.476-1.028-1.035l0.051-18.722c0.002-0.287,0.12-0.499,0.218-0.624c0.202-0.259,0.499-0.404,0.817-0.403
				l1.271,0.003l41.58,20.9L10.07,99.043z M66.775,98.169c0,0.287-0.119,0.497-0.216,0.624c-0.202,0.257-0.498,0.402-0.818,0.402
				l-5.222-0.014c0.2-0.185,0.391-0.382,0.561-0.603c0.205-0.264,0.386-0.549,0.536-0.848l5.188-10.321L66.775,98.169z
				 M35.243,32.575l33.093,44.769c0.328,0.446,0.234,1.102-0.217,1.442L53.061,89.918c-0.449,0.332-1.109,0.233-1.44-0.216
				L18.528,44.935c-0.274-0.373-0.266-0.886,0.019-1.251c0.057-0.072,0.123-0.139,0.198-0.193l15.056-11.132
				c0.295-0.22,0.607-0.211,0.767-0.187C34.724,32.198,35.024,32.28,35.243,32.575z"/>
			<circle fill="#FFFFFF" cx="59.247" cy="77.471" r="3.257"/>
		</g>
	</g>
</g>
</svg>
