<?xml version="1.0" encoding="utf-8"?>
<!-- Generator: Adobe Illustrator 16.0.0, SVG Export Plug-In . SVG Version: 6.00 Build 0)  -->
<!DOCTYPE svg PUBLIC "-//W3C//DTD SVG 1.0//EN" "http://www.w3.org/TR/2001/REC-SVG-20010904/DTD/svg10.dtd">
<svg version="1.0" id="Layer_1" xmlns="http://www.w3.org/2000/svg" xmlns:xlink="http://www.w3.org/1999/xlink" x="0px" y="0px"
	 width="52px" height="52px" viewBox="0 0 52 52" enable-background="new 0 0 52 52" xml:space="preserve">
<g>
	<g>
		<path fill="#5BC6D2" d="M25.987,51.5c-5.353,0-10.697-1.676-15.189-5.008c-0.426-0.316-0.517-0.92-0.2-1.347
			c0.316-0.425,0.923-0.513,1.346-0.198c8.009,5.939,18.949,6.185,27.223,0.611c5.223-3.519,8.762-8.863,9.966-15.05
			c1.205-6.176-0.067-12.46-3.585-17.683C38.282,2.036,23.599-0.824,12.82,6.44C2.039,13.705-0.822,28.39,6.44,39.176
			c0.297,0.438,0.18,1.036-0.262,1.335c-0.438,0.294-1.035,0.18-1.335-0.263c-7.855-11.661-4.76-27.544,6.901-35.404
			c11.659-7.857,27.54-4.76,35.398,6.904c3.804,5.65,5.182,12.446,3.879,19.131c-1.302,6.688-5.131,12.468-10.78,16.275
			C35.935,50.056,30.956,51.5,25.987,51.5z"/>
	</g>
	<g>
		<g>
			<path fill="#5BC6D2" d="M37.619,17.184H14.722c-0.448,0-0.813,0.365-0.813,0.815v1.638c0,0.076,0.08,0.163,0.148,0.197
				l12.036,6.875c0.031,0.019,0.065,0.028,0.1,0.028c0.037,0,0.073-0.009,0.104-0.028l11.673-6.867
				c0.063-0.036,0.238-0.134,0.304-0.178c0.078-0.053,0.159-0.103,0.159-0.199v-1.465C38.433,17.549,38.068,17.184,37.619,17.184z"
				/>
			<path fill="#5BC6D2" d="M38.332,22.108c-0.064-0.038-0.143-0.034-0.206,0l-6.604,3.888c-0.054,0.031-0.089,0.084-0.099,0.146
				c-0.008,0.062,0.013,0.123,0.053,0.167l6.605,7.123c0.039,0.044,0.093,0.064,0.148,0.064c0.026,0,0.051-0.003,0.076-0.013
				c0.076-0.031,0.127-0.105,0.127-0.189v-11.01C38.433,22.211,38.396,22.145,38.332,22.108z"/>
			<path fill="#5BC6D2" d="M29.616,27.3c-0.063-0.071-0.166-0.086-0.25-0.036l-2.648,1.557c-0.31,0.185-0.708,0.187-1.022,0.008
				l-2.329-1.333c-0.078-0.042-0.175-0.03-0.241,0.026l-8.847,8.212c-0.047,0.046-0.071,0.106-0.063,0.17
				c0.008,0.065,0.044,0.125,0.101,0.155c0.137,0.082,0.269,0.121,0.405,0.121h22.663c0.082,0,0.155-0.048,0.188-0.125
				c0.031-0.074,0.017-0.159-0.039-0.219L29.616,27.3z"/>
			<path fill="#5BC6D2" d="M21.181,26.554c0.047-0.044,0.07-0.109,0.064-0.172c-0.006-0.063-0.044-0.123-0.102-0.153l-6.932-3.961
				c-0.062-0.037-0.141-0.035-0.203,0c-0.062,0.036-0.101,0.104-0.101,0.178v10.391c0,0.082,0.048,0.153,0.122,0.188
				c0.026,0.012,0.054,0.018,0.081,0.018c0.05,0,0.101-0.02,0.139-0.056L21.181,26.554z"/>
		</g>
	</g>
</g>
</svg>
