<?xml version="1.0" encoding="utf-8"?>
<!-- Generator: Adobe Illustrator 16.0.0, SVG Export Plug-In . SVG Version: 6.00 Build 0)  -->
<!DOCTYPE svg PUBLIC "-//W3C//DTD SVG 1.1//EN" "http://www.w3.org/Graphics/SVG/1.1/DTD/svg11.dtd">
<svg version="1.1" id="Layer_1" xmlns="http://www.w3.org/2000/svg" xmlns:xlink="http://www.w3.org/1999/xlink" x="0px" y="0px"
	 width="124.25px" height="124.25px" viewBox="0 0 124.25 124.25" enable-background="new 0 0 124.25 124.25" xml:space="preserve">
<g>
	<path fill="#4A2A71" d="M123.244,62.124c0,33.752-27.368,61.12-61.123,61.12C28.365,123.244,1,95.876,1,62.124
		C1,28.364,28.365,1,62.122,1C95.876,1,123.244,28.364,123.244,62.124z"/>
	<path fill="#5AC6D3" d="M36.744,93.982V36.427l23.944,46.71c0.292,0.581,0.782,0.898,1.387,0.898c0.686,0,1.182-0.302,1.48-0.892
		l23.947-46.718v57.556c0,0.8,0.647,1.45,1.447,1.45c0.801,0,1.451-0.652,1.451-1.45V30.258c0-0.8-0.65-1.448-1.451-1.448
		c-0.605,0-1.096,0.319-1.388,0.896L62.074,79.665L36.491,29.52c-0.208-0.413-0.71-0.71-1.198-0.71
		c-0.799,0-1.449,0.648-1.449,1.448v63.725c0,0.8,0.651,1.45,1.449,1.45C36.093,95.433,36.744,94.782,36.744,93.982z"/>
</g>
</svg>
