<?xml version="1.0" encoding="utf-8"?>
<!-- Generator: Adobe Illustrator 16.0.0, SVG Export Plug-In . SVG Version: 6.00 Build 0)  -->
<!DOCTYPE svg PUBLIC "-//W3C//DTD SVG 1.1//EN" "http://www.w3.org/Graphics/SVG/1.1/DTD/svg11.dtd">
<svg version="1.1" id="Layer_1" xmlns="http://www.w3.org/2000/svg" xmlns:xlink="http://www.w3.org/1999/xlink" x="0px" y="0px"
	 width="200px" height="200px" viewBox="0 0 200 200" enable-background="new 0 0 200 200" xml:space="preserve">
<g>
	<g>
		<g>
			<path fill="#231F20" d="M98.265,182.941h-0.356c-0.042,0-0.077-0.012-0.104-0.033c-0.027-0.022-0.048-0.053-0.063-0.088
				l-0.752-1.854h-3.133l-0.748,1.854c-0.012,0.031-0.034,0.062-0.064,0.085c-0.029,0.024-0.066,0.036-0.107,0.036h-0.352
				l2.61-6.377h0.459L98.265,182.941z M93.996,180.625h2.857l-1.302-3.225c-0.021-0.049-0.042-0.106-0.063-0.172
				c-0.021-0.064-0.042-0.135-0.063-0.205c-0.021,0.07-0.042,0.141-0.063,0.205c-0.021,0.062-0.042,0.125-0.062,0.178
				L93.996,180.625z"/>
			<path fill="#231F20" d="M100.537,178.38c0.195,0,0.376,0.024,0.542,0.072c0.167,0.048,0.315,0.116,0.448,0.203h1.146v0.149
				c0,0.072-0.042,0.111-0.125,0.118l-0.682,0.052c0.085,0.112,0.146,0.24,0.191,0.385s0.066,0.297,0.066,0.459
				c0,0.216-0.038,0.412-0.115,0.587c-0.08,0.178-0.188,0.327-0.328,0.452c-0.139,0.125-0.308,0.222-0.502,0.289
				c-0.195,0.067-0.412,0.104-0.646,0.104c-0.259,0-0.494-0.038-0.704-0.116c-0.126,0.071-0.226,0.158-0.297,0.259
				c-0.071,0.1-0.108,0.193-0.108,0.287c0,0.131,0.045,0.229,0.135,0.299c0.09,0.066,0.209,0.119,0.358,0.148
				c0.149,0.032,0.319,0.055,0.51,0.062c0.19,0.009,0.381,0.021,0.583,0.027c0.196,0.012,0.389,0.029,0.579,0.059
				c0.19,0.024,0.361,0.074,0.511,0.142c0.148,0.067,0.27,0.163,0.357,0.284c0.091,0.122,0.137,0.283,0.137,0.484
				c0,0.187-0.049,0.362-0.141,0.537c-0.096,0.17-0.229,0.319-0.402,0.452c-0.178,0.136-0.391,0.238-0.64,0.317
				c-0.249,0.08-0.529,0.119-0.839,0.119c-0.316,0-0.592-0.031-0.829-0.098c-0.238-0.062-0.437-0.149-0.598-0.263
				c-0.161-0.108-0.282-0.235-0.363-0.382c-0.081-0.145-0.122-0.297-0.122-0.459c0-0.237,0.078-0.441,0.234-0.613
				c0.156-0.171,0.372-0.303,0.645-0.396c-0.151-0.051-0.27-0.125-0.358-0.221c-0.089-0.098-0.134-0.229-0.134-0.4
				c0-0.062,0.012-0.131,0.037-0.198s0.06-0.14,0.108-0.205c0.048-0.067,0.106-0.132,0.173-0.19
				c0.067-0.062,0.146-0.111,0.236-0.162c-0.213-0.123-0.379-0.285-0.498-0.489c-0.118-0.204-0.178-0.444-0.178-0.718
				c0-0.217,0.038-0.411,0.114-0.59c0.077-0.175,0.185-0.326,0.325-0.451c0.141-0.127,0.309-0.226,0.507-0.293
				C100.076,178.414,100.296,178.38,100.537,178.38z M102.198,183.243c0-0.142-0.036-0.255-0.109-0.341s-0.173-0.151-0.295-0.2
				c-0.123-0.048-0.267-0.081-0.427-0.101c-0.16-0.021-0.328-0.035-0.504-0.043c-0.176-0.012-0.354-0.021-0.53-0.027
				c-0.177-0.008-0.343-0.026-0.495-0.055c-0.115,0.047-0.221,0.098-0.319,0.153c-0.097,0.062-0.18,0.125-0.25,0.198
				c-0.068,0.072-0.123,0.152-0.162,0.243c-0.04,0.089-0.059,0.187-0.059,0.292c0,0.131,0.033,0.253,0.101,0.363
				c0.068,0.112,0.167,0.211,0.297,0.295c0.13,0.082,0.292,0.146,0.48,0.195c0.188,0.047,0.407,0.071,0.653,0.071
				c0.229,0,0.44-0.024,0.638-0.076c0.198-0.051,0.368-0.124,0.516-0.217c0.146-0.093,0.261-0.204,0.343-0.333
				C102.157,183.539,102.198,183.396,102.198,183.243z M100.537,180.959c0.191,0,0.363-0.027,0.512-0.084
				c0.152-0.055,0.278-0.133,0.379-0.23c0.104-0.101,0.182-0.22,0.232-0.354c0.053-0.142,0.078-0.292,0.078-0.46
				s-0.026-0.321-0.081-0.462c-0.052-0.142-0.132-0.261-0.235-0.358s-0.23-0.175-0.379-0.229c-0.148-0.055-0.316-0.081-0.506-0.081
				c-0.19,0-0.36,0.026-0.51,0.081c-0.151,0.056-0.277,0.132-0.381,0.229c-0.103,0.102-0.182,0.221-0.237,0.358
				c-0.053,0.141-0.081,0.294-0.081,0.462s0.027,0.318,0.081,0.46c0.055,0.138,0.134,0.257,0.237,0.354
				c0.104,0.101,0.23,0.176,0.381,0.23C100.176,180.932,100.346,180.959,100.537,180.959z"/>
			<path fill="#231F20" d="M105.297,178.384c0.252,0,0.485,0.046,0.7,0.134c0.215,0.086,0.399,0.211,0.56,0.379
				c0.156,0.168,0.28,0.371,0.368,0.615c0.089,0.243,0.134,0.522,0.134,0.838c0,0.067-0.011,0.111-0.029,0.137
				c-0.02,0.023-0.049,0.035-0.092,0.035H103.7v0.086c0,0.336,0.038,0.636,0.116,0.891c0.078,0.256,0.188,0.47,0.334,0.645
				c0.145,0.172,0.315,0.303,0.521,0.391c0.203,0.087,0.436,0.131,0.688,0.131c0.226,0,0.42-0.025,0.584-0.075
				c0.166-0.049,0.306-0.104,0.418-0.167c0.113-0.062,0.203-0.117,0.269-0.166c0.065-0.051,0.113-0.072,0.146-0.072
				c0.039,0,0.068,0.016,0.092,0.043l0.115,0.146c-0.07,0.089-0.168,0.174-0.287,0.252c-0.115,0.078-0.25,0.146-0.396,0.2
				c-0.146,0.057-0.302,0.101-0.47,0.134c-0.166,0.032-0.333,0.05-0.501,0.05c-0.308,0-0.587-0.054-0.839-0.159
				c-0.254-0.105-0.469-0.264-0.65-0.468c-0.18-0.205-0.32-0.455-0.419-0.751c-0.099-0.295-0.147-0.634-0.147-1.018
				c0-0.319,0.047-0.616,0.14-0.891c0.092-0.271,0.226-0.507,0.396-0.703c0.174-0.197,0.387-0.352,0.635-0.461
				C104.691,178.439,104.977,178.384,105.297,178.384z M105.303,178.705c-0.229,0-0.438,0.036-0.621,0.107
				c-0.183,0.069-0.342,0.177-0.476,0.312c-0.133,0.135-0.241,0.298-0.323,0.485c-0.083,0.188-0.138,0.399-0.164,0.637h2.952
				c0-0.24-0.032-0.455-0.101-0.646c-0.064-0.188-0.157-0.353-0.277-0.481c-0.121-0.136-0.266-0.233-0.434-0.308
				C105.691,178.741,105.506,178.705,105.303,178.705z"/>
			<path fill="#231F20" d="M89.297,195.035c0.22,0,0.419-0.012,0.599-0.033c0.181-0.023,0.348-0.057,0.503-0.102
				c0.155-0.047,0.302-0.103,0.442-0.164c0.14-0.064,0.28-0.139,0.422-0.219V192.8h-1.227c-0.033,0-0.061-0.011-0.084-0.03
				c-0.022-0.021-0.033-0.045-0.033-0.07v-0.256h1.762v2.271c-0.159,0.111-0.325,0.211-0.496,0.298
				c-0.171,0.09-0.355,0.159-0.55,0.221c-0.195,0.059-0.405,0.104-0.631,0.137c-0.226,0.029-0.472,0.047-0.739,0.047
				c-0.459,0-0.88-0.077-1.26-0.23c-0.38-0.155-0.707-0.375-0.978-0.66c-0.272-0.281-0.483-0.627-0.633-1.027
				c-0.15-0.402-0.225-0.854-0.225-1.343c0-0.493,0.075-0.939,0.225-1.343c0.15-0.4,0.363-0.746,0.64-1.025
				c0.276-0.285,0.612-0.504,1.007-0.658c0.395-0.152,0.837-0.23,1.327-0.23c0.244,0,0.468,0.018,0.674,0.051
				s0.397,0.08,0.575,0.146c0.177,0.065,0.342,0.146,0.496,0.239c0.154,0.094,0.3,0.204,0.442,0.326l-0.122,0.199
				c-0.027,0.045-0.065,0.064-0.113,0.064c-0.027,0-0.053-0.006-0.077-0.019c-0.045-0.02-0.11-0.062-0.196-0.128
				c-0.086-0.063-0.202-0.135-0.347-0.207c-0.146-0.07-0.329-0.137-0.548-0.191c-0.219-0.059-0.485-0.086-0.797-0.086
				c-0.415,0-0.789,0.062-1.122,0.196c-0.334,0.135-0.619,0.321-0.854,0.567c-0.236,0.246-0.417,0.547-0.545,0.901
				s-0.192,0.753-0.192,1.194c0,0.451,0.064,0.854,0.194,1.211c0.129,0.355,0.311,0.662,0.543,0.908
				c0.232,0.25,0.512,0.438,0.838,0.568C88.543,194.97,88.903,195.035,89.297,195.035z"/>
			<path fill="#231F20" d="M93.087,195.338v-4.484h0.225c0.052,0,0.088,0.014,0.111,0.031c0.022,0.021,0.035,0.057,0.038,0.107
				l0.036,0.945c0.144-0.362,0.337-0.646,0.577-0.854c0.24-0.207,0.536-0.312,0.888-0.312c0.136,0,0.261,0.018,0.375,0.043
				c0.114,0.027,0.222,0.069,0.324,0.125l-0.058,0.299c-0.009,0.049-0.04,0.07-0.09,0.07c-0.018,0-0.044-0.007-0.077-0.019
				c-0.033-0.015-0.075-0.024-0.124-0.042c-0.05-0.016-0.111-0.028-0.183-0.039c-0.072-0.014-0.155-0.021-0.248-0.021
				c-0.339,0-0.618,0.105-0.836,0.314c-0.218,0.212-0.395,0.516-0.53,0.911v2.917h-0.428V195.338z"/>
			<path fill="#231F20" d="M98.375,190.78c0.321,0,0.609,0.056,0.863,0.163c0.254,0.109,0.468,0.268,0.643,0.468
				c0.174,0.202,0.307,0.442,0.399,0.728c0.091,0.284,0.136,0.604,0.136,0.955c0,0.352-0.045,0.67-0.136,0.951
				c-0.092,0.282-0.226,0.523-0.399,0.725c-0.174,0.201-0.389,0.356-0.643,0.465c-0.254,0.107-0.542,0.162-0.863,0.162
				s-0.608-0.055-0.862-0.162c-0.254-0.105-0.469-0.264-0.645-0.465c-0.176-0.201-0.31-0.439-0.401-0.725
				c-0.091-0.283-0.137-0.602-0.137-0.951c0-0.353,0.046-0.671,0.137-0.955c0.091-0.283,0.226-0.522,0.401-0.728
				c0.176-0.2,0.391-0.356,0.645-0.468C97.766,190.836,98.053,190.78,98.375,190.78z M98.375,195.059
				c0.268,0,0.501-0.045,0.702-0.139c0.199-0.091,0.366-0.223,0.5-0.395c0.133-0.17,0.234-0.377,0.3-0.619
				c0.066-0.241,0.099-0.514,0.099-0.812c0-0.298-0.033-0.568-0.099-0.812c-0.066-0.244-0.167-0.451-0.3-0.624
				c-0.133-0.174-0.3-0.307-0.5-0.4c-0.2-0.093-0.434-0.139-0.702-0.139c-0.267,0-0.5,0.046-0.701,0.139
				c-0.2,0.094-0.367,0.227-0.5,0.4c-0.134,0.173-0.234,0.38-0.302,0.624c-0.067,0.243-0.102,0.514-0.102,0.812
				c0,0.301,0.034,0.571,0.102,0.812c0.067,0.242,0.168,0.449,0.302,0.619c0.134,0.172,0.301,0.304,0.5,0.395
				C97.874,195.014,98.107,195.059,98.375,195.059z"/>
			<path fill="#231F20" d="M101.857,190.854v2.865c0,0.422,0.098,0.752,0.291,0.99c0.189,0.238,0.483,0.357,0.881,0.357
				c0.293,0,0.566-0.073,0.82-0.225c0.252-0.148,0.479-0.354,0.682-0.619v-3.371h0.429v4.483h-0.237
				c-0.082,0-0.125-0.039-0.127-0.117l-0.041-0.668c-0.209,0.263-0.447,0.47-0.721,0.623c-0.273,0.156-0.575,0.234-0.91,0.234
				c-0.25,0-0.467-0.039-0.652-0.117c-0.188-0.078-0.342-0.188-0.465-0.338c-0.125-0.146-0.219-0.325-0.281-0.532
				c-0.062-0.207-0.096-0.439-0.096-0.704v-2.864h0.428V190.854L101.857,190.854z"/>
			<path fill="#231F20" d="M106.42,196.925v-6.071h0.234c0.039,0,0.07,0.008,0.096,0.023c0.023,0.018,0.037,0.047,0.04,0.088
				l0.041,0.695c0.198-0.271,0.431-0.485,0.694-0.645c0.268-0.16,0.562-0.24,0.896-0.24c0.554,0,0.979,0.188,1.287,0.572
				c0.31,0.381,0.46,0.952,0.46,1.719c0,0.326-0.042,0.633-0.127,0.916c-0.086,0.283-0.213,0.531-0.378,0.736
				c-0.164,0.213-0.369,0.375-0.608,0.495c-0.242,0.12-0.521,0.183-0.839,0.183c-0.306,0-0.569-0.059-0.793-0.168
				c-0.222-0.11-0.414-0.274-0.575-0.494v2.188L106.42,196.925L106.42,196.925z M108.3,191.123c-0.298,0-0.567,0.077-0.809,0.23
				c-0.243,0.153-0.456,0.371-0.644,0.646v2.354c0.172,0.26,0.359,0.438,0.568,0.545c0.209,0.104,0.443,0.158,0.713,0.158
				s0.497-0.05,0.695-0.146c0.197-0.097,0.363-0.229,0.498-0.407c0.135-0.175,0.232-0.386,0.303-0.631
				c0.064-0.244,0.104-0.516,0.104-0.811c0-0.666-0.123-1.156-0.367-1.474C109.117,191.28,108.764,191.123,108.3,191.123z"/>
			<path fill="#231F20" d="M113.714,191.411c-0.021,0.043-0.054,0.063-0.101,0.063c-0.032,0-0.074-0.021-0.127-0.059
				c-0.053-0.038-0.123-0.08-0.207-0.127c-0.086-0.046-0.192-0.088-0.315-0.127c-0.125-0.037-0.276-0.059-0.459-0.059
				c-0.161,0-0.312,0.023-0.442,0.07c-0.135,0.047-0.248,0.107-0.344,0.188c-0.095,0.076-0.168,0.169-0.221,0.271
				c-0.053,0.104-0.079,0.213-0.079,0.326c0,0.143,0.036,0.258,0.108,0.354c0.07,0.093,0.166,0.17,0.283,0.234
				c0.115,0.067,0.25,0.123,0.397,0.174c0.146,0.047,0.304,0.096,0.456,0.145c0.154,0.049,0.312,0.103,0.458,0.158
				c0.146,0.061,0.28,0.134,0.396,0.22c0.117,0.089,0.215,0.194,0.285,0.321c0.073,0.125,0.108,0.276,0.108,0.459
				c0,0.194-0.035,0.377-0.106,0.545c-0.07,0.17-0.172,0.312-0.306,0.438c-0.136,0.123-0.299,0.222-0.495,0.293
				c-0.193,0.072-0.418,0.108-0.666,0.108c-0.314,0-0.589-0.053-0.816-0.151c-0.229-0.101-0.433-0.231-0.61-0.396l0.104-0.152
				c0.017-0.023,0.03-0.041,0.049-0.054c0.02-0.013,0.045-0.019,0.076-0.019c0.041,0,0.09,0.021,0.146,0.069
				c0.06,0.048,0.133,0.103,0.226,0.155c0.092,0.055,0.205,0.104,0.342,0.154c0.14,0.049,0.308,0.071,0.508,0.071
				c0.188,0,0.355-0.024,0.5-0.078c0.146-0.054,0.267-0.125,0.363-0.215c0.096-0.091,0.168-0.196,0.217-0.317
				c0.051-0.121,0.074-0.25,0.074-0.386c0-0.147-0.035-0.272-0.106-0.373c-0.072-0.101-0.168-0.185-0.284-0.254
				c-0.117-0.067-0.25-0.127-0.398-0.176c-0.146-0.048-0.304-0.097-0.459-0.146c-0.158-0.049-0.312-0.103-0.459-0.156
				c-0.148-0.057-0.281-0.131-0.398-0.217c-0.118-0.088-0.213-0.193-0.283-0.318c-0.072-0.124-0.107-0.279-0.107-0.467
				c0-0.157,0.033-0.312,0.104-0.461c0.067-0.146,0.168-0.275,0.296-0.387c0.127-0.109,0.282-0.199,0.467-0.269
				c0.186-0.063,0.391-0.101,0.617-0.101c0.271,0,0.518,0.041,0.729,0.119c0.211,0.079,0.403,0.199,0.582,0.363L113.714,191.411z"/>
		</g>
		<g>
			<g>
				<g>
					<g>
						<path fill="#4798A1" d="M100.348,85.603L18.914,97.087C12.591,51.953,43.93,10.222,88.902,3.88
							c3.599-0.51,7.813-0.805,11.446-0.805V85.603z"/>
					</g>
				</g>
				<g>
					<g>
						<path fill="#5AC6D3" d="M99.977,84.997l15.626,80.416c-44.413,8.635-87.416-20.372-96.043-64.784
							c-0.346-1.775-0.457-2.437-0.709-4.23L99.977,84.997z"/>
					</g>
				</g>
				<g>
					<g>
						<path fill="#A0DAE2" d="M99.977,84.997l35.968,73.745c-6.52,3.179-13.196,5.415-20.314,6.798L99.977,84.997z"/>
					</g>
				</g>
				<g>
					<g>
						<path fill="#245055" d="M99.977,84.997V3.075c45.244,0,81.919,36.678,81.919,81.922c0,32.577-16.729,59.353-46.008,73.629
							L99.977,84.997z"/>
					</g>
				</g>
			</g>
		</g>
		<circle fill="#FFFFFF" cx="100.159" cy="85.006" r="49.133"/>
		<g>
			<g enable-background="new    ">
				<path fill="#5AC6D3" d="M92.147,60.382v1.765c0,0.527-0.058,0.954-0.173,1.278c-0.115,0.324-0.228,0.596-0.338,0.815
					l-9.02,18.601c-0.187,0.385-0.451,0.712-0.792,0.98c-0.341,0.27-0.803,0.404-1.385,0.404h-2.952l9.234-18.221
					c0.384-0.747,0.813-1.391,1.286-1.929H76.598c-0.253,0-0.473-0.094-0.66-0.281s-0.28-0.406-0.28-0.659v-2.754L92.147,60.382
					L92.147,60.382z"/>
				<path fill="#5AC6D3" d="M108.734,75.239h3v2.357c0,0.221-0.07,0.41-0.213,0.569c-0.144,0.159-0.353,0.239-0.627,0.239h-2.16
					v5.82h-3.562v-5.82H95.114c-0.275,0-0.517-0.085-0.726-0.256c-0.208-0.171-0.341-0.382-0.396-0.635l-0.412-2.062l11.295-15.088
					h3.857v14.876H108.734z M105.173,67.439c0-0.352,0.011-0.73,0.033-1.138c0.021-0.406,0.06-0.83,0.114-1.27l-7.403,10.207h7.255
					L105.173,67.439L105.173,67.439z"/>
				<path fill="#5AC6D3" d="M130.632,72.304c0,2.078-0.223,3.884-0.668,5.417c-0.444,1.533-1.062,2.801-1.847,3.801
					c-0.786,1-1.715,1.745-2.787,2.234c-1.071,0.489-2.229,0.733-3.471,0.733s-2.395-0.244-3.455-0.733
					c-1.062-0.489-1.98-1.234-2.762-2.234s-1.392-2.268-1.83-3.801c-0.439-1.533-0.66-3.339-0.66-5.417
					c0-2.088,0.221-3.896,0.66-5.425c0.438-1.529,1.049-2.792,1.83-3.793c0.78-1,1.7-1.744,2.762-2.233s2.213-0.734,3.455-0.734
					s2.398,0.245,3.471,0.734s2.001,1.233,2.787,2.233c0.785,1.001,1.4,2.265,1.847,3.793
					C130.41,68.407,130.632,70.216,130.632,72.304z M126.427,72.304c0-1.726-0.126-3.154-0.379-4.287
					c-0.253-1.132-0.591-2.033-1.015-2.704s-0.909-1.141-1.459-1.41c-0.551-0.269-1.121-0.403-1.715-0.403
					c-0.584,0-1.146,0.135-1.689,0.403c-0.545,0.27-1.025,0.739-1.443,1.41s-0.75,1.572-0.998,2.704
					c-0.246,1.133-0.371,2.562-0.371,4.287c0,1.727,0.125,3.155,0.371,4.287c0.248,1.133,0.58,2.034,0.998,2.704
					c0.418,0.671,0.898,1.141,1.443,1.41c0.543,0.27,1.105,0.404,1.689,0.404c0.594,0,1.164-0.135,1.715-0.404
					c0.55-0.269,1.035-0.739,1.459-1.41c0.424-0.67,0.762-1.571,1.015-2.704C126.301,75.459,126.427,74.03,126.427,72.304z"/>
			</g>
		</g>
		<g enable-background="new    ">
			<path fill="#FFFFFF" d="M41.554,39.386h1.269v-4.484c0-0.088,0.004-0.182,0.012-0.281l-1.218,1.082
				c-0.026,0.023-0.057,0.035-0.094,0.035c-0.044,0-0.078-0.016-0.102-0.047l-0.113-0.156l1.596-1.41h0.289v5.262h1.206v0.285
				h-2.846L41.554,39.386L41.554,39.386z"/>
			<path fill="#FFFFFF" d="M47.139,39.733c-0.265,0-0.508-0.035-0.728-0.105c-0.22-0.07-0.409-0.172-0.566-0.305
				c-0.157-0.133-0.28-0.293-0.369-0.479c-0.088-0.188-0.133-0.398-0.133-0.633c0-0.203,0.029-0.384,0.088-0.542
				c0.059-0.159,0.141-0.297,0.248-0.414c0.106-0.117,0.233-0.215,0.38-0.293s0.309-0.137,0.486-0.176
				c-0.161-0.047-0.304-0.11-0.429-0.191c-0.125-0.08-0.229-0.177-0.314-0.288c-0.085-0.112-0.149-0.236-0.193-0.373
				c-0.044-0.137-0.066-0.283-0.066-0.439c0-0.195,0.037-0.378,0.111-0.55c0.074-0.172,0.18-0.321,0.318-0.449
				c0.138-0.128,0.305-0.228,0.502-0.301c0.196-0.072,0.418-0.109,0.665-0.109c0.245,0,0.465,0.037,0.662,0.109
				c0.197,0.073,0.365,0.173,0.504,0.301c0.139,0.128,0.246,0.277,0.32,0.449c0.074,0.172,0.111,0.354,0.111,0.55
				c0,0.156-0.022,0.303-0.066,0.439c-0.044,0.136-0.109,0.261-0.195,0.373c-0.085,0.111-0.191,0.208-0.316,0.288
				c-0.125,0.081-0.268,0.146-0.429,0.191c0.177,0.039,0.339,0.098,0.486,0.176s0.274,0.176,0.38,0.293
				c0.107,0.117,0.19,0.255,0.25,0.414c0.06,0.158,0.09,0.339,0.09,0.542c0,0.234-0.044,0.445-0.133,0.633
				c-0.088,0.188-0.211,0.347-0.369,0.479c-0.157,0.133-0.346,0.234-0.566,0.305C47.647,39.698,47.405,39.733,47.139,39.733z
				 M47.139,39.437c0.211,0,0.403-0.029,0.576-0.088c0.173-0.059,0.322-0.142,0.447-0.25c0.125-0.107,0.221-0.237,0.289-0.388
				c0.068-0.151,0.102-0.319,0.102-0.504c0-0.242-0.044-0.443-0.132-0.604c-0.089-0.162-0.202-0.29-0.34-0.387
				c-0.138-0.097-0.29-0.165-0.457-0.205c-0.167-0.04-0.328-0.061-0.484-0.061c-0.156,0-0.317,0.021-0.484,0.061
				c-0.167,0.04-0.319,0.108-0.457,0.205c-0.138,0.097-0.251,0.225-0.34,0.387c-0.088,0.161-0.132,0.362-0.132,0.604
				c0,0.185,0.034,0.353,0.102,0.504c0.067,0.15,0.163,0.28,0.287,0.388s0.272,0.191,0.447,0.25S46.929,39.437,47.139,39.437z
				 M47.139,36.649c0.211,0,0.394-0.031,0.549-0.096c0.155-0.062,0.283-0.149,0.384-0.257c0.102-0.108,0.176-0.231,0.225-0.369
				c0.048-0.138,0.072-0.281,0.072-0.43c0-0.158-0.027-0.307-0.082-0.442c-0.055-0.137-0.135-0.256-0.24-0.357
				c-0.105-0.101-0.234-0.181-0.386-0.238c-0.152-0.058-0.326-0.086-0.521-0.086c-0.195,0-0.369,0.028-0.523,0.086
				c-0.153,0.058-0.283,0.137-0.388,0.238c-0.105,0.101-0.186,0.221-0.24,0.357c-0.055,0.136-0.082,0.284-0.082,0.442
				c0,0.148,0.024,0.292,0.072,0.43c0.048,0.138,0.123,0.261,0.225,0.369c0.102,0.107,0.229,0.193,0.384,0.257
				C46.742,36.618,46.926,36.649,47.139,36.649z"/>
			<path fill="#FFFFFF" d="M49.793,37.196h1.815v0.316h-1.815V37.196z"/>
			<path fill="#FFFFFF" d="M54.348,34.085c0.211,0,0.412,0.031,0.603,0.092c0.191,0.062,0.36,0.154,0.506,0.277
				c0.146,0.124,0.261,0.278,0.347,0.465c0.086,0.186,0.129,0.403,0.129,0.653c0,0.208-0.032,0.401-0.096,0.58
				c-0.064,0.178-0.15,0.349-0.26,0.513c-0.109,0.164-0.236,0.323-0.38,0.479c-0.144,0.156-0.296,0.312-0.455,0.475l-1.729,1.764
				c0.083-0.021,0.17-0.036,0.26-0.047c0.09-0.01,0.18-0.016,0.271-0.016h2.385c0.042,0,0.075,0.013,0.1,0.037
				c0.024,0.025,0.037,0.057,0.037,0.096v0.219h-3.564v-0.133c0-0.028,0.007-0.058,0.021-0.088c0.014-0.029,0.032-0.055,0.053-0.076
				l1.885-1.908c0.156-0.159,0.301-0.312,0.434-0.461c0.132-0.148,0.248-0.298,0.345-0.449c0.098-0.15,0.174-0.306,0.23-0.464
				c0.056-0.159,0.083-0.328,0.083-0.508c0-0.203-0.034-0.379-0.101-0.528c-0.068-0.15-0.158-0.273-0.271-0.369
				c-0.113-0.097-0.243-0.168-0.39-0.215c-0.147-0.047-0.301-0.07-0.463-0.07c-0.174,0-0.335,0.026-0.482,0.08
				c-0.147,0.054-0.277,0.128-0.39,0.223c-0.113,0.095-0.207,0.208-0.281,0.34c-0.074,0.131-0.125,0.274-0.154,0.431
				c-0.026,0.092-0.078,0.137-0.156,0.137c-0.005,0-0.012,0-0.02-0.002c-0.008-0.001-0.015-0.002-0.02-0.002l-0.188-0.031
				c0.031-0.236,0.096-0.447,0.193-0.632c0.098-0.188,0.22-0.341,0.369-0.469c0.149-0.128,0.32-0.225,0.515-0.291
				C53.911,34.118,54.122,34.085,54.348,34.085z"/>
			<path fill="#FFFFFF" d="M59.879,37.789h1.011v0.203c0,0.029-0.008,0.052-0.025,0.068c-0.017,0.018-0.043,0.025-0.08,0.025H59.88
				v1.585h-0.336v-1.585H56.94c-0.039,0-0.069-0.008-0.09-0.025s-0.035-0.039-0.042-0.068l-0.035-0.184l2.775-3.669h0.332
				L59.879,37.789L59.879,37.789z M59.543,34.897c0-0.045,0.001-0.092,0.004-0.141c0.003-0.05,0.008-0.101,0.016-0.152l-2.385,3.185
				h2.365V34.897z"/>
		</g>
		<g enable-background="new    ">
			<path fill="#FFFFFF" d="M45.529,46.947c0.211,0,0.412,0.031,0.603,0.092c0.191,0.062,0.36,0.154,0.506,0.277
				c0.146,0.124,0.261,0.278,0.347,0.465c0.086,0.186,0.129,0.403,0.129,0.653c0,0.208-0.032,0.401-0.096,0.58
				c-0.064,0.178-0.15,0.349-0.26,0.513c-0.109,0.164-0.236,0.323-0.38,0.479c-0.144,0.156-0.296,0.312-0.455,0.475l-1.729,1.764
				c0.083-0.021,0.17-0.036,0.26-0.047c0.09-0.01,0.18-0.016,0.271-0.016h2.385c0.042,0,0.075,0.013,0.1,0.037
				c0.024,0.025,0.037,0.057,0.037,0.096v0.219h-3.564V52.4c0-0.028,0.007-0.058,0.021-0.088c0.014-0.029,0.032-0.055,0.053-0.076
				l1.885-1.908c0.156-0.159,0.301-0.312,0.434-0.461c0.132-0.148,0.248-0.298,0.345-0.449c0.098-0.15,0.174-0.306,0.23-0.464
				c0.056-0.159,0.083-0.328,0.083-0.508c0-0.203-0.034-0.379-0.101-0.528c-0.068-0.15-0.158-0.273-0.271-0.369
				c-0.113-0.097-0.243-0.168-0.39-0.215s-0.301-0.07-0.463-0.07c-0.174,0-0.335,0.026-0.482,0.08
				c-0.147,0.054-0.277,0.128-0.39,0.223c-0.113,0.095-0.207,0.208-0.281,0.34c-0.074,0.131-0.125,0.274-0.154,0.431
				c-0.026,0.092-0.078,0.137-0.156,0.137c-0.005,0-0.012,0-0.02-0.002c-0.008-0.001-0.015-0.002-0.02-0.002l-0.188-0.031
				c0.031-0.236,0.096-0.447,0.193-0.632c0.098-0.186,0.22-0.341,0.369-0.469s0.32-0.225,0.515-0.291
				C45.092,46.98,45.303,46.947,45.529,46.947z"/>
			<path fill="#FFFFFF" d="M51.888,47.01v0.168c0,0.044-0.005,0.083-0.014,0.115s-0.021,0.061-0.033,0.084l-2.533,5.016
				c-0.021,0.042-0.049,0.075-0.084,0.102c-0.035,0.027-0.082,0.039-0.139,0.039h-0.254l2.549-4.996
				c0.034-0.067,0.074-0.129,0.121-0.184h-3.185c-0.029,0-0.053-0.011-0.072-0.031c-0.019-0.021-0.029-0.046-0.029-0.074V47.01
				H51.888z"/>
			<path fill="#FFFFFF" d="M54.897,48.337c0,0.227-0.031,0.427-0.094,0.6s-0.147,0.316-0.254,0.431
				c-0.106,0.115-0.23,0.201-0.371,0.26c-0.141,0.059-0.289,0.088-0.445,0.088c-0.162,0-0.313-0.029-0.455-0.088
				c-0.142-0.059-0.265-0.145-0.369-0.26c-0.104-0.114-0.186-0.258-0.246-0.431s-0.09-0.373-0.09-0.6c0-0.229,0.03-0.431,0.09-0.604
				c0.06-0.175,0.142-0.319,0.246-0.436c0.104-0.115,0.227-0.203,0.369-0.262c0.142-0.059,0.293-0.088,0.455-0.088
				c0.161,0,0.312,0.029,0.453,0.088c0.141,0.059,0.264,0.146,0.369,0.262c0.105,0.116,0.189,0.261,0.25,0.436
				C54.867,47.906,54.897,48.108,54.897,48.337z M54.601,48.337c0-0.2-0.022-0.372-0.068-0.515
				c-0.045-0.146-0.108-0.261-0.187-0.354c-0.08-0.093-0.172-0.16-0.277-0.203s-0.217-0.064-0.333-0.064
				c-0.117,0-0.228,0.021-0.332,0.064s-0.195,0.11-0.273,0.203c-0.078,0.093-0.14,0.21-0.186,0.354
				c-0.045,0.143-0.068,0.312-0.068,0.515s0.023,0.372,0.068,0.514c0.045,0.142,0.107,0.258,0.186,0.35
				c0.078,0.091,0.169,0.157,0.273,0.2s0.215,0.064,0.332,0.064c0.117,0,0.228-0.021,0.333-0.064s0.198-0.109,0.277-0.2
				c0.079-0.092,0.142-0.208,0.187-0.35C54.578,48.709,54.601,48.537,54.601,48.337z M56.994,47.08
				c0.016-0.021,0.034-0.037,0.057-0.051c0.022-0.013,0.051-0.02,0.087-0.02H57.4l-3.966,5.453c-0.034,0.047-0.079,0.07-0.137,0.07
				h-0.265L56.994,47.08z M57.879,51.222c0,0.227-0.031,0.426-0.094,0.6c-0.062,0.173-0.146,0.316-0.251,0.431
				c-0.105,0.115-0.229,0.201-0.369,0.26s-0.289,0.088-0.445,0.088c-0.161,0-0.313-0.029-0.455-0.088s-0.265-0.145-0.369-0.26
				c-0.104-0.114-0.186-0.258-0.246-0.431c-0.06-0.174-0.09-0.373-0.09-0.6c0-0.229,0.03-0.431,0.09-0.605
				c0.06-0.174,0.142-0.319,0.246-0.435c0.104-0.116,0.227-0.203,0.369-0.262s0.293-0.088,0.455-0.088
				c0.162,0,0.312,0.029,0.453,0.088c0.141,0.059,0.264,0.146,0.369,0.262c0.105,0.115,0.188,0.261,0.248,0.435
				C57.85,50.791,57.879,50.993,57.879,51.222z M57.583,51.222c0-0.2-0.023-0.373-0.068-0.518c-0.045-0.144-0.107-0.263-0.186-0.354
				c-0.078-0.093-0.17-0.16-0.275-0.203s-0.217-0.064-0.334-0.064c-0.117,0-0.229,0.021-0.333,0.064
				c-0.105,0.043-0.197,0.11-0.275,0.203c-0.078,0.092-0.14,0.211-0.186,0.354c-0.045,0.145-0.068,0.317-0.068,0.518
				c0,0.201,0.023,0.371,0.068,0.514c0.045,0.142,0.107,0.258,0.186,0.349c0.078,0.092,0.17,0.158,0.275,0.199
				c0.105,0.042,0.216,0.062,0.333,0.062c0.117,0,0.229-0.021,0.334-0.062s0.197-0.107,0.275-0.199
				c0.078-0.091,0.14-0.207,0.186-0.349C57.56,51.593,57.583,51.422,57.583,51.222z"/>
		</g>
		<g enable-background="new    ">
			<path fill="#FFFFFF" d="M157.335,75.265c0.211,0,0.412,0.031,0.603,0.092c0.191,0.062,0.36,0.154,0.506,0.277
				c0.146,0.124,0.264,0.278,0.35,0.465c0.086,0.186,0.129,0.403,0.129,0.653c0,0.208-0.029,0.401-0.096,0.58
				c-0.062,0.178-0.15,0.349-0.262,0.513c-0.108,0.164-0.234,0.323-0.381,0.479c-0.145,0.156-0.295,0.312-0.453,0.475L156,80.562
				c0.084-0.021,0.17-0.036,0.26-0.047c0.09-0.01,0.18-0.016,0.271-0.016h2.385c0.041,0,0.074,0.013,0.1,0.037
				c0.024,0.025,0.037,0.057,0.037,0.096v0.219h-3.564v-0.133c0-0.028,0.01-0.058,0.021-0.088c0.016-0.029,0.032-0.055,0.053-0.076
				l1.888-1.908c0.155-0.159,0.301-0.312,0.434-0.461c0.134-0.148,0.247-0.298,0.347-0.449c0.098-0.15,0.174-0.306,0.229-0.464
				c0.059-0.159,0.084-0.328,0.084-0.508c0-0.203-0.033-0.379-0.104-0.528c-0.065-0.15-0.156-0.273-0.271-0.369
				c-0.112-0.097-0.242-0.168-0.39-0.215c-0.148-0.047-0.303-0.07-0.463-0.07c-0.176,0-0.336,0.026-0.481,0.08
				c-0.147,0.054-0.276,0.128-0.392,0.223c-0.113,0.095-0.207,0.208-0.28,0.34c-0.074,0.131-0.125,0.274-0.154,0.431
				c-0.024,0.092-0.077,0.137-0.155,0.137c-0.006,0-0.013,0-0.021-0.002c-0.008-0.001-0.015-0.002-0.021-0.002l-0.188-0.031
				c0.03-0.236,0.097-0.447,0.192-0.632c0.099-0.186,0.222-0.341,0.369-0.469c0.147-0.128,0.319-0.225,0.517-0.291
				C156.898,75.3,157.109,75.265,157.335,75.265z"/>
			<path fill="#FFFFFF" d="M163.283,75.487c0,0.052-0.018,0.096-0.053,0.131c-0.035,0.035-0.09,0.053-0.166,0.053h-1.998
				l-0.332,1.843c0.175-0.045,0.34-0.076,0.496-0.096s0.306-0.029,0.449-0.029c0.284,0,0.538,0.041,0.756,0.123
				c0.219,0.082,0.4,0.196,0.549,0.343c0.147,0.147,0.259,0.322,0.334,0.525c0.076,0.203,0.113,0.424,0.113,0.663
				c0,0.292-0.053,0.553-0.152,0.783c-0.102,0.23-0.238,0.426-0.411,0.587c-0.173,0.162-0.376,0.285-0.606,0.371
				s-0.479,0.129-0.738,0.129c-0.152,0-0.299-0.014-0.438-0.041c-0.138-0.027-0.268-0.063-0.391-0.109
				c-0.121-0.046-0.233-0.098-0.336-0.158s-0.19-0.121-0.271-0.184l0.109-0.152c0.024-0.039,0.062-0.059,0.112-0.059
				c0.033,0,0.082,0.02,0.146,0.059s0.146,0.082,0.245,0.129c0.103,0.047,0.219,0.09,0.354,0.129
				c0.135,0.039,0.297,0.059,0.479,0.059c0.213,0,0.412-0.034,0.598-0.104c0.185-0.068,0.347-0.168,0.481-0.298
				c0.137-0.131,0.242-0.291,0.318-0.482c0.078-0.191,0.115-0.408,0.115-0.65c0-0.197-0.029-0.38-0.088-0.546
				c-0.059-0.167-0.146-0.31-0.266-0.428c-0.119-0.118-0.271-0.211-0.448-0.277c-0.183-0.066-0.396-0.1-0.64-0.1
				c-0.147,0-0.308,0.012-0.474,0.035s-0.344,0.062-0.53,0.113l-0.24-0.074l0.433-2.447h2.481v0.159H163.283z"/>
			<path fill="#FFFFFF" d="M164.432,78.376h1.814v0.316h-1.814V78.376z"/>
			<path fill="#FFFFFF" d="M169.029,75.265c0.211,0,0.41,0.029,0.597,0.088c0.188,0.059,0.353,0.146,0.495,0.264
				c0.143,0.117,0.254,0.263,0.337,0.438c0.083,0.174,0.124,0.376,0.124,0.604c0,0.18-0.027,0.342-0.084,0.486
				c-0.057,0.145-0.133,0.271-0.23,0.381c-0.097,0.108-0.211,0.2-0.345,0.274c-0.133,0.074-0.276,0.131-0.433,0.17
				c0.404,0.076,0.711,0.232,0.918,0.471c0.207,0.239,0.311,0.535,0.311,0.892c0,0.227-0.045,0.437-0.137,0.631
				c-0.091,0.193-0.216,0.36-0.375,0.501c-0.158,0.141-0.346,0.251-0.562,0.33c-0.215,0.079-0.449,0.119-0.701,0.119
				c-0.313,0-0.576-0.042-0.786-0.127c-0.209-0.085-0.384-0.194-0.519-0.33c-0.136-0.135-0.24-0.286-0.314-0.454
				c-0.075-0.168-0.139-0.335-0.186-0.502l0.148-0.062c0.031-0.013,0.062-0.02,0.09-0.02s0.057,0.007,0.082,0.02
				s0.046,0.038,0.059,0.074l0.027,0.078c0.016,0.047,0.038,0.104,0.064,0.174c0.029,0.068,0.065,0.141,0.111,0.215
				c0.047,0.074,0.104,0.148,0.17,0.223c0.067,0.073,0.149,0.14,0.248,0.198c0.098,0.058,0.213,0.106,0.344,0.143
				s0.283,0.055,0.455,0.055c0.233,0,0.438-0.039,0.613-0.117c0.178-0.078,0.323-0.178,0.441-0.298
				c0.117-0.121,0.205-0.257,0.265-0.406s0.088-0.295,0.088-0.436c0-0.169-0.024-0.326-0.079-0.472
				c-0.054-0.146-0.143-0.271-0.268-0.377s-0.29-0.188-0.493-0.25c-0.205-0.062-0.457-0.092-0.756-0.092v-0.27
				c0.237-0.005,0.45-0.037,0.633-0.096c0.183-0.059,0.334-0.139,0.456-0.239c0.122-0.102,0.217-0.223,0.277-0.363
				s0.093-0.296,0.093-0.465c0-0.195-0.031-0.364-0.099-0.507c-0.063-0.144-0.15-0.262-0.262-0.355
				c-0.109-0.093-0.236-0.163-0.382-0.207s-0.299-0.066-0.457-0.066c-0.175,0-0.335,0.026-0.479,0.078
				c-0.146,0.052-0.273,0.125-0.387,0.219c-0.111,0.094-0.205,0.206-0.281,0.338c-0.074,0.131-0.131,0.277-0.168,0.438
				c-0.021,0.092-0.067,0.137-0.145,0.137c-0.02,0-0.031-0.001-0.043-0.004l-0.191-0.031c0.035-0.236,0.101-0.447,0.195-0.632
				c0.098-0.186,0.219-0.341,0.366-0.469c0.147-0.128,0.319-0.225,0.517-0.291C168.59,75.3,168.803,75.265,169.029,75.265z"/>
			<path fill="#FFFFFF" d="M174.518,78.969h1.01v0.203c0,0.029-0.008,0.052-0.023,0.068c-0.018,0.018-0.043,0.025-0.08,0.025h-0.902
				v1.585h-0.336v-1.585h-2.604c-0.039,0-0.069-0.008-0.091-0.025c-0.021-0.017-0.034-0.039-0.043-0.068l-0.034-0.184l2.774-3.669
				h0.332v3.65H174.518z M174.182,76.077c0-0.045,0.002-0.092,0.004-0.141c0.002-0.05,0.008-0.101,0.018-0.152l-2.387,3.185h2.365
				V76.077L174.182,76.077z"/>
		</g>
		<g enable-background="new    ">
			<path fill="#FFFFFF" d="M161.17,90.053h1.012v0.203c0,0.029-0.009,0.052-0.023,0.068c-0.02,0.018-0.045,0.025-0.08,0.025h-0.906
				v1.585h-0.336V90.35h-2.604c-0.039,0-0.067-0.008-0.09-0.025c-0.021-0.017-0.033-0.039-0.041-0.068l-0.035-0.184l2.772-3.669
				h0.332L161.17,90.053L161.17,90.053z M160.834,87.161c0-0.045,0.002-0.092,0.004-0.141c0.004-0.05,0.008-0.101,0.016-0.152
				l-2.385,3.185h2.365V87.161L160.834,87.161z"/>
			<path fill="#FFFFFF" d="M164.738,86.349c0.211,0,0.41,0.029,0.597,0.088c0.188,0.059,0.353,0.146,0.495,0.264
				c0.143,0.117,0.254,0.263,0.337,0.438c0.083,0.174,0.124,0.376,0.124,0.604c0,0.18-0.027,0.342-0.084,0.486
				c-0.057,0.145-0.133,0.271-0.23,0.381c-0.097,0.108-0.211,0.2-0.345,0.274c-0.133,0.074-0.276,0.131-0.433,0.17
				c0.404,0.076,0.711,0.232,0.918,0.471c0.207,0.239,0.311,0.535,0.311,0.892c0,0.227-0.045,0.437-0.137,0.631
				c-0.091,0.193-0.216,0.36-0.375,0.501c-0.158,0.141-0.346,0.251-0.562,0.33c-0.215,0.079-0.449,0.119-0.701,0.119
				c-0.313,0-0.576-0.042-0.786-0.127c-0.209-0.085-0.384-0.194-0.519-0.33c-0.136-0.135-0.24-0.286-0.314-0.454
				c-0.075-0.168-0.139-0.335-0.186-0.502l0.148-0.062c0.031-0.013,0.062-0.02,0.09-0.02s0.057,0.007,0.082,0.02
				s0.046,0.038,0.059,0.074l0.027,0.078c0.016,0.047,0.038,0.104,0.064,0.174c0.029,0.068,0.065,0.141,0.111,0.215
				c0.047,0.074,0.104,0.148,0.17,0.223c0.067,0.073,0.149,0.14,0.248,0.198c0.098,0.058,0.213,0.106,0.344,0.143
				s0.283,0.055,0.455,0.055c0.233,0,0.438-0.039,0.613-0.117c0.178-0.078,0.323-0.178,0.441-0.298
				c0.117-0.121,0.205-0.257,0.265-0.406s0.089-0.295,0.089-0.436c0-0.169-0.025-0.326-0.08-0.472
				c-0.054-0.146-0.143-0.271-0.268-0.377s-0.29-0.188-0.493-0.25c-0.205-0.062-0.457-0.092-0.756-0.092v-0.27
				c0.237-0.005,0.45-0.037,0.633-0.096c0.183-0.059,0.334-0.139,0.456-0.239c0.122-0.102,0.217-0.223,0.277-0.363
				s0.093-0.296,0.093-0.465c0-0.195-0.031-0.364-0.099-0.507c-0.063-0.144-0.15-0.262-0.262-0.355
				c-0.109-0.093-0.236-0.163-0.382-0.207s-0.299-0.066-0.457-0.066c-0.175,0-0.335,0.026-0.479,0.078
				c-0.145,0.052-0.273,0.125-0.387,0.219c-0.11,0.094-0.205,0.206-0.281,0.338c-0.074,0.131-0.131,0.277-0.168,0.438
				c-0.021,0.092-0.067,0.137-0.145,0.137c-0.02,0-0.031-0.001-0.043-0.004l-0.191-0.031c0.035-0.236,0.101-0.447,0.195-0.632
				c0.098-0.186,0.219-0.341,0.366-0.469s0.319-0.225,0.517-0.291C164.299,86.384,164.512,86.349,164.738,86.349z"/>
			<path fill="#FFFFFF" d="M169.535,87.738c0,0.227-0.031,0.427-0.094,0.6c-0.063,0.173-0.146,0.316-0.254,0.431
				c-0.106,0.115-0.23,0.201-0.371,0.26c-0.143,0.059-0.289,0.088-0.444,0.088c-0.161,0-0.313-0.029-0.455-0.088
				s-0.265-0.145-0.368-0.26c-0.104-0.114-0.188-0.258-0.246-0.431c-0.061-0.173-0.09-0.373-0.09-0.6
				c0-0.229,0.029-0.431,0.09-0.604c0.062-0.175,0.143-0.319,0.246-0.436c0.104-0.115,0.227-0.203,0.368-0.262
				s0.294-0.088,0.455-0.088s0.312,0.029,0.452,0.088c0.14,0.059,0.264,0.146,0.369,0.262c0.104,0.116,0.188,0.261,0.25,0.436
				C169.504,87.308,169.535,87.51,169.535,87.738z M169.238,87.738c0-0.2-0.022-0.372-0.068-0.515
				c-0.045-0.144-0.107-0.261-0.188-0.354c-0.08-0.093-0.172-0.16-0.277-0.203s-0.217-0.064-0.333-0.064
				c-0.117,0-0.228,0.021-0.332,0.064s-0.194,0.11-0.272,0.203c-0.078,0.093-0.141,0.21-0.186,0.354
				c-0.046,0.143-0.068,0.314-0.068,0.515c0,0.201,0.022,0.372,0.068,0.514c0.045,0.142,0.107,0.258,0.186,0.35
				c0.078,0.091,0.168,0.157,0.272,0.2s0.215,0.064,0.332,0.064c0.116,0,0.228-0.021,0.333-0.064s0.197-0.109,0.277-0.2
				c0.08-0.092,0.143-0.208,0.188-0.35C169.216,88.11,169.238,87.938,169.238,87.738z M171.631,86.481
				c0.016-0.021,0.035-0.037,0.057-0.051c0.022-0.013,0.054-0.02,0.088-0.02h0.264l-3.966,5.453c-0.034,0.047-0.079,0.07-0.138,0.07
				h-0.266L171.631,86.481z M172.518,90.623c0,0.227-0.031,0.426-0.094,0.6c-0.062,0.173-0.146,0.316-0.252,0.431
				c-0.105,0.115-0.229,0.201-0.369,0.26c-0.14,0.059-0.289,0.088-0.445,0.088c-0.158,0-0.312-0.029-0.453-0.088
				c-0.143-0.059-0.266-0.145-0.368-0.26c-0.104-0.114-0.188-0.258-0.245-0.431c-0.062-0.174-0.09-0.373-0.09-0.6
				c0-0.229,0.027-0.431,0.09-0.605c0.061-0.174,0.143-0.319,0.245-0.435s0.229-0.203,0.368-0.262
				c0.142-0.059,0.295-0.088,0.453-0.088c0.162,0,0.312,0.029,0.453,0.088c0.143,0.059,0.266,0.146,0.369,0.262
				c0.105,0.115,0.188,0.261,0.248,0.435C172.486,90.192,172.518,90.395,172.518,90.623z M172.221,90.623
				c0-0.2-0.021-0.373-0.068-0.518c-0.045-0.144-0.105-0.263-0.186-0.354c-0.078-0.093-0.17-0.16-0.275-0.203
				c-0.104-0.043-0.217-0.064-0.334-0.064c-0.115,0-0.229,0.021-0.332,0.064c-0.104,0.043-0.196,0.11-0.274,0.203
				c-0.078,0.092-0.142,0.211-0.187,0.354c-0.047,0.145-0.067,0.317-0.067,0.518s0.021,0.371,0.067,0.514
				c0.045,0.142,0.106,0.258,0.187,0.349c0.078,0.092,0.17,0.158,0.274,0.199c0.104,0.042,0.217,0.062,0.332,0.062
				c0.117,0,0.229-0.021,0.334-0.062c0.105-0.041,0.197-0.107,0.275-0.199c0.078-0.091,0.141-0.207,0.186-0.349
				C172.197,90.994,172.221,90.823,172.221,90.623z"/>
		</g>
		<g enable-background="new    ">
			<path fill="#FFFFFF" d="M115.945,142.619c0.209-0.031,0.41-0.033,0.604-0.004s0.37,0.091,0.529,0.186
				c0.156,0.094,0.292,0.221,0.398,0.381c0.108,0.159,0.182,0.354,0.215,0.578c0.027,0.178,0.024,0.342-0.008,0.494
				c-0.035,0.15-0.09,0.287-0.17,0.41s-0.181,0.23-0.301,0.324c-0.119,0.094-0.254,0.172-0.4,0.234
				c0.412,0.014,0.738,0.119,0.979,0.322c0.241,0.205,0.39,0.48,0.442,0.834c0.033,0.227,0.021,0.438-0.039,0.646
				c-0.061,0.205-0.157,0.389-0.295,0.553c-0.135,0.163-0.303,0.301-0.504,0.412s-0.428,0.186-0.678,0.225
				c-0.311,0.049-0.576,0.047-0.796-0.006c-0.22-0.051-0.407-0.133-0.562-0.246c-0.155-0.113-0.281-0.247-0.381-0.4
				c-0.103-0.154-0.188-0.312-0.258-0.469l0.137-0.084c0.029-0.018,0.058-0.029,0.086-0.033c0.027-0.004,0.056-0.002,0.084,0.006
				c0.027,0.012,0.051,0.031,0.068,0.064l0.039,0.073c0.021,0.044,0.053,0.098,0.092,0.161c0.039,0.062,0.086,0.129,0.144,0.197
				c0.056,0.064,0.124,0.131,0.202,0.191s0.17,0.115,0.275,0.158c0.104,0.043,0.226,0.07,0.358,0.088
				c0.138,0.018,0.288,0.011,0.458-0.018c0.23-0.033,0.43-0.104,0.59-0.209c0.161-0.104,0.292-0.225,0.393-0.359
				c0.099-0.139,0.164-0.286,0.199-0.441c0.034-0.156,0.043-0.306,0.021-0.443c-0.026-0.168-0.076-0.318-0.151-0.453
				c-0.074-0.137-0.182-0.247-0.32-0.332c-0.14-0.085-0.314-0.143-0.525-0.172c-0.212-0.029-0.465-0.021-0.762,0.021l-0.041-0.266
				c0.236-0.041,0.438-0.104,0.609-0.189c0.172-0.086,0.309-0.188,0.416-0.307c0.104-0.119,0.178-0.254,0.219-0.4
				c0.039-0.148,0.047-0.309,0.021-0.475c-0.029-0.191-0.088-0.354-0.174-0.484c-0.087-0.135-0.189-0.236-0.312-0.312
				c-0.121-0.076-0.26-0.125-0.408-0.146c-0.15-0.021-0.307-0.02-0.463,0.004c-0.172,0.027-0.326,0.078-0.461,0.15
				c-0.139,0.074-0.254,0.166-0.351,0.275c-0.099,0.11-0.172,0.235-0.228,0.377s-0.088,0.295-0.1,0.459
				c-0.007,0.094-0.048,0.146-0.122,0.158c-0.018,0.002-0.032,0.004-0.043,0.002l-0.192-0.002c-0.004-0.238,0.029-0.457,0.098-0.653
				c0.064-0.198,0.163-0.37,0.29-0.521c0.128-0.148,0.282-0.271,0.465-0.365C115.52,142.719,115.723,142.654,115.945,142.619z"/>
			<path fill="#FFFFFF" d="M121.816,141.938c0.008,0.055-0.004,0.1-0.032,0.141c-0.029,0.039-0.081,0.062-0.155,0.074l-1.975,0.308
				l-0.049,1.872c0.166-0.07,0.324-0.127,0.477-0.17c0.15-0.044,0.298-0.076,0.439-0.1c0.283-0.043,0.537-0.041,0.767,0.006
				c0.229,0.049,0.427,0.135,0.595,0.257c0.168,0.123,0.305,0.276,0.41,0.469c0.105,0.188,0.178,0.399,0.213,0.64
				c0.045,0.287,0.034,0.555-0.031,0.797c-0.063,0.244-0.17,0.457-0.315,0.643c-0.146,0.188-0.327,0.34-0.543,0.461
				c-0.218,0.119-0.452,0.199-0.709,0.238c-0.152,0.021-0.3,0.033-0.438,0.027c-0.14-0.008-0.273-0.021-0.402-0.051
				c-0.127-0.025-0.246-0.062-0.354-0.104c-0.108-0.043-0.207-0.09-0.294-0.143l0.085-0.166c0.021-0.043,0.054-0.066,0.103-0.074
				c0.033-0.004,0.086,0.008,0.154,0.033c0.068,0.029,0.156,0.062,0.262,0.094c0.106,0.027,0.23,0.054,0.371,0.07
				c0.143,0.02,0.303,0.014,0.481-0.016c0.211-0.033,0.401-0.098,0.573-0.193c0.173-0.096,0.316-0.218,0.432-0.365
				c0.115-0.15,0.196-0.324,0.243-0.525s0.052-0.422,0.015-0.66c-0.029-0.195-0.087-0.372-0.17-0.527
				c-0.084-0.156-0.191-0.283-0.328-0.383c-0.135-0.098-0.297-0.166-0.484-0.205c-0.188-0.037-0.403-0.037-0.646,0
				c-0.146,0.021-0.3,0.059-0.461,0.105c-0.161,0.049-0.33,0.113-0.508,0.193l-0.25-0.037l0.056-2.484l2.452-0.379L121.816,141.938z
				"/>
			<path fill="#FFFFFF" d="M125.074,142.287l0.269,1.74l1.662-0.256l0.044,0.28l-1.662,0.259l0.271,1.748l-0.303,0.047l-0.271-1.748
				l-1.659,0.256l-0.043-0.283l1.659-0.256l-0.269-1.74L125.074,142.287z"/>
		</g>
		<g enable-background="new    ">
			<path fill="#FFFFFF" d="M120.667,156.854l1-0.152l0.03,0.199c0.005,0.029,0,0.054-0.016,0.07
				c-0.015,0.021-0.039,0.032-0.074,0.037l-0.896,0.139l0.241,1.566l-0.332,0.051l-0.241-1.564l-2.572,0.396
				c-0.039,0.007-0.068,0.003-0.094-0.012c-0.021-0.013-0.04-0.033-0.053-0.062l-0.062-0.178l2.184-4.05l0.326-0.05L120.667,156.854
				z M119.895,154.047c-0.006-0.044-0.013-0.091-0.018-0.139c-0.005-0.051-0.008-0.102-0.009-0.153l-1.87,3.513l2.337-0.36
				L119.895,154.047z"/>
			<path fill="#FFFFFF" d="M124.105,153.98c0.035,0.225,0.035,0.427-0.002,0.605c-0.035,0.182-0.097,0.335-0.186,0.465
				c-0.088,0.131-0.195,0.234-0.327,0.312c-0.129,0.078-0.271,0.131-0.426,0.154c-0.159,0.023-0.313,0.02-0.463-0.019
				c-0.147-0.036-0.284-0.103-0.404-0.2c-0.118-0.097-0.223-0.227-0.31-0.389c-0.086-0.162-0.146-0.354-0.182-0.579
				c-0.033-0.226-0.035-0.429-0.004-0.61c0.033-0.182,0.094-0.338,0.178-0.469c0.086-0.129,0.192-0.234,0.324-0.314
				c0.131-0.078,0.276-0.131,0.438-0.154c0.157-0.024,0.312-0.02,0.46,0.018s0.281,0.104,0.402,0.203
				c0.123,0.1,0.229,0.229,0.313,0.395C124.012,153.561,124.07,153.755,124.105,153.98z M123.812,154.025
				c-0.03-0.197-0.078-0.363-0.146-0.498c-0.066-0.135-0.146-0.24-0.239-0.32c-0.093-0.079-0.194-0.132-0.305-0.158
				c-0.11-0.025-0.226-0.031-0.34-0.013c-0.115,0.019-0.222,0.056-0.318,0.114c-0.096,0.059-0.176,0.139-0.237,0.242
				c-0.062,0.104-0.105,0.229-0.131,0.379c-0.021,0.146-0.02,0.318,0.012,0.518c0.031,0.197,0.08,0.365,0.146,0.498
				s0.146,0.238,0.234,0.316c0.092,0.078,0.191,0.129,0.303,0.155c0.107,0.026,0.225,0.03,0.338,0.015
				c0.115-0.019,0.223-0.059,0.319-0.114c0.098-0.06,0.179-0.14,0.243-0.241c0.062-0.104,0.107-0.227,0.133-0.374
				S123.844,154.225,123.812,154.025z M125.986,152.418c0.012-0.021,0.027-0.041,0.048-0.059s0.048-0.026,0.083-0.032l0.259-0.04
				l-3.087,5.995c-0.025,0.051-0.066,0.081-0.124,0.09l-0.263,0.041L125.986,152.418z M127.493,156.377
				c0.034,0.225,0.034,0.426-0.001,0.607c-0.035,0.18-0.096,0.334-0.184,0.463c-0.086,0.131-0.195,0.234-0.324,0.312
				c-0.131,0.08-0.271,0.132-0.428,0.155c-0.158,0.021-0.312,0.02-0.461-0.02c-0.15-0.037-0.285-0.103-0.404-0.201
				c-0.121-0.096-0.226-0.226-0.311-0.387c-0.086-0.162-0.146-0.354-0.181-0.58c-0.035-0.225-0.036-0.43-0.005-0.609
				c0.031-0.182,0.093-0.338,0.178-0.469s0.191-0.234,0.325-0.314c0.131-0.079,0.274-0.131,0.436-0.156
				c0.159-0.023,0.313-0.018,0.462,0.02c0.146,0.037,0.281,0.104,0.404,0.203c0.121,0.098,0.227,0.229,0.312,0.392
				C127.398,155.956,127.458,156.15,127.493,156.377z M127.201,156.422c-0.031-0.197-0.08-0.365-0.146-0.501
				c-0.066-0.135-0.146-0.243-0.238-0.321c-0.09-0.08-0.19-0.133-0.303-0.158c-0.111-0.025-0.224-0.03-0.34-0.014
				c-0.115,0.018-0.223,0.057-0.318,0.115c-0.099,0.059-0.18,0.139-0.242,0.242c-0.062,0.102-0.104,0.23-0.129,0.379
				c-0.021,0.148-0.02,0.322,0.013,0.521c0.028,0.195,0.079,0.361,0.146,0.498c0.066,0.133,0.146,0.236,0.236,0.312
				c0.092,0.079,0.191,0.132,0.303,0.154c0.109,0.025,0.223,0.027,0.34,0.012c0.115-0.02,0.224-0.057,0.319-0.112
				c0.099-0.056,0.179-0.136,0.241-0.237c0.062-0.103,0.107-0.228,0.13-0.373C127.234,156.792,127.23,156.619,127.201,156.422z"/>
		</g>
		<g enable-background="new    ">
			<path fill="#FFFFFF" d="M54.519,136.166h1.269v-4.484c0-0.088,0.004-0.182,0.012-0.281l-1.218,1.082
				c-0.026,0.023-0.057,0.035-0.094,0.035c-0.044,0-0.078-0.016-0.102-0.047l-0.113-0.156l1.596-1.408h0.289v5.262h1.206v0.285
				h-2.846L54.519,136.166L54.519,136.166z"/>
			<path fill="#FFFFFF" d="M60.19,130.865c0.211,0,0.412,0.031,0.603,0.092c0.191,0.062,0.36,0.154,0.506,0.277
				s0.261,0.276,0.347,0.465c0.086,0.186,0.129,0.402,0.129,0.652c0,0.209-0.032,0.4-0.096,0.58c-0.064,0.178-0.15,0.35-0.26,0.514
				c-0.109,0.164-0.236,0.322-0.38,0.479c-0.144,0.157-0.296,0.312-0.455,0.475l-1.729,1.766c0.083-0.021,0.17-0.036,0.26-0.047
				c0.09-0.012,0.18-0.018,0.271-0.018h2.385c0.042,0,0.075,0.015,0.1,0.037c0.024,0.025,0.037,0.057,0.037,0.096v0.221h-3.564
				v-0.135c0-0.026,0.007-0.058,0.021-0.088c0.014-0.027,0.032-0.055,0.053-0.074l1.885-1.908c0.156-0.159,0.301-0.312,0.434-0.461
				c0.132-0.146,0.248-0.298,0.345-0.449c0.098-0.148,0.174-0.306,0.23-0.464c0.056-0.159,0.083-0.328,0.083-0.508
				c0-0.203-0.034-0.38-0.101-0.528c-0.068-0.148-0.158-0.271-0.271-0.369c-0.113-0.097-0.243-0.168-0.39-0.215
				s-0.301-0.068-0.463-0.068c-0.174,0-0.335,0.024-0.482,0.08c-0.147,0.053-0.277,0.127-0.39,0.223
				c-0.113,0.095-0.207,0.207-0.281,0.34c-0.074,0.131-0.125,0.273-0.154,0.431c-0.026,0.093-0.078,0.138-0.156,0.138
				c-0.005,0-0.012,0-0.02-0.002s-0.015-0.002-0.02-0.002l-0.188-0.031c0.031-0.235,0.096-0.446,0.193-0.633
				c0.098-0.186,0.22-0.34,0.369-0.469c0.149-0.128,0.32-0.225,0.515-0.291C59.753,130.898,59.964,130.865,60.19,130.865z"/>
			<path fill="#FFFFFF" d="M62.758,133.977h1.815v0.316h-1.815V133.977z"/>
			<path fill="#FFFFFF" d="M66.169,136.166h1.269v-4.484c0-0.088,0.004-0.182,0.012-0.281l-1.218,1.082
				c-0.026,0.023-0.057,0.035-0.094,0.035c-0.044,0-0.078-0.016-0.102-0.047l-0.113-0.156l1.596-1.408h0.289v5.262h1.206v0.285
				h-2.846L66.169,136.166L66.169,136.166z"/>
			<path fill="#FFFFFF" d="M73.672,130.928v0.168c0,0.045-0.005,0.083-0.014,0.115c-0.009,0.032-0.021,0.061-0.033,0.084
				l-2.533,5.016c-0.021,0.043-0.049,0.075-0.084,0.104c-0.035,0.025-0.082,0.039-0.139,0.039h-0.254l2.549-4.996
				c0.034-0.066,0.074-0.129,0.121-0.186H70.1c-0.029,0-0.053-0.011-0.072-0.029c-0.019-0.021-0.029-0.047-0.029-0.074v-0.238
				L73.672,130.928L73.672,130.928z"/>
		</g>
		<g enable-background="new    ">
			<path fill="#FFFFFF" d="M58.494,143.729c0.211,0,0.412,0.03,0.603,0.092c0.191,0.062,0.36,0.154,0.506,0.277
				s0.261,0.277,0.347,0.465c0.086,0.187,0.129,0.402,0.129,0.652c0,0.208-0.032,0.401-0.096,0.58
				c-0.064,0.178-0.15,0.35-0.26,0.514c-0.109,0.164-0.236,0.322-0.38,0.479c-0.144,0.155-0.296,0.312-0.455,0.476l-1.729,1.764
				c0.083-0.021,0.17-0.035,0.26-0.047c0.09-0.01,0.18-0.017,0.271-0.017h2.385c0.042,0,0.075,0.015,0.1,0.037
				c0.024,0.024,0.037,0.058,0.037,0.097v0.219h-3.564v-0.133c0-0.027,0.007-0.059,0.021-0.089c0.014-0.028,0.032-0.055,0.053-0.075
				l1.885-1.908c0.156-0.158,0.301-0.312,0.434-0.461c0.132-0.147,0.248-0.297,0.345-0.448c0.098-0.15,0.174-0.306,0.23-0.464
				c0.056-0.159,0.083-0.328,0.083-0.508c0-0.203-0.034-0.379-0.101-0.528c-0.068-0.15-0.158-0.272-0.271-0.369
				c-0.113-0.097-0.243-0.168-0.39-0.215c-0.147-0.048-0.301-0.07-0.463-0.07c-0.174,0-0.335,0.026-0.482,0.08
				s-0.277,0.128-0.39,0.224c-0.113,0.094-0.207,0.207-0.281,0.34c-0.074,0.132-0.125,0.273-0.154,0.432
				c-0.026,0.092-0.078,0.137-0.156,0.137c-0.005,0-0.012,0-0.02-0.002c-0.008-0.001-0.015-0.002-0.02-0.002l-0.188-0.029
				c0.031-0.236,0.096-0.447,0.193-0.634c0.098-0.186,0.22-0.341,0.369-0.469c0.149-0.128,0.32-0.226,0.515-0.291
				C58.057,143.761,58.268,143.729,58.494,143.729z"/>
			<path fill="#FFFFFF" d="M63.124,146.012c0.237,0,0.456,0.039,0.656,0.116c0.201,0.078,0.373,0.188,0.517,0.33
				c0.145,0.142,0.258,0.313,0.34,0.517c0.082,0.2,0.123,0.426,0.123,0.676s-0.045,0.48-0.135,0.691s-0.215,0.393-0.375,0.547
				c-0.16,0.153-0.352,0.272-0.576,0.358c-0.224,0.086-0.47,0.129-0.738,0.129c-0.257,0-0.493-0.042-0.706-0.125
				s-0.396-0.203-0.549-0.358c-0.152-0.156-0.27-0.348-0.353-0.572c-0.083-0.226-0.125-0.479-0.125-0.764
				c0-0.216,0.055-0.459,0.164-0.729c0.109-0.271,0.289-0.577,0.539-0.915l1.507-2.03c0.044-0.062,0.11-0.09,0.199-0.09h0.328
				l-1.647,2.149c-0.081,0.106-0.155,0.207-0.222,0.302c-0.068,0.094-0.129,0.188-0.184,0.276c0.154-0.158,0.336-0.283,0.546-0.373
				C62.644,146.057,62.874,146.012,63.124,146.012z M61.566,147.646c0,0.205,0.032,0.396,0.095,0.568
				c0.064,0.176,0.154,0.324,0.271,0.45c0.117,0.127,0.26,0.226,0.429,0.295s0.359,0.104,0.57,0.104
				c0.224,0,0.425-0.035,0.605-0.104c0.179-0.069,0.332-0.167,0.458-0.291c0.126-0.123,0.223-0.271,0.291-0.438
				c0.068-0.172,0.102-0.356,0.102-0.559c0-0.211-0.033-0.4-0.1-0.57c-0.066-0.17-0.16-0.314-0.281-0.435s-0.265-0.209-0.431-0.272
				c-0.167-0.062-0.352-0.097-0.555-0.097c-0.229,0-0.434,0.04-0.615,0.119c-0.181,0.08-0.333,0.185-0.458,0.31
				c-0.125,0.127-0.22,0.271-0.285,0.433C61.599,147.32,61.566,147.482,61.566,147.646z"/>
			<path fill="#FFFFFF" d="M67.862,145.117c0,0.227-0.031,0.427-0.094,0.6c-0.063,0.174-0.147,0.316-0.254,0.432
				c-0.106,0.115-0.23,0.201-0.371,0.261c-0.141,0.059-0.289,0.088-0.445,0.088c-0.162,0-0.313-0.029-0.455-0.088
				c-0.142-0.06-0.265-0.146-0.369-0.261c-0.104-0.113-0.186-0.258-0.246-0.432c-0.06-0.173-0.09-0.373-0.09-0.6
				c0-0.229,0.03-0.432,0.09-0.604c0.06-0.177,0.142-0.32,0.246-0.438c0.104-0.115,0.227-0.203,0.369-0.264
				c0.142-0.059,0.293-0.088,0.455-0.088c0.161,0,0.312,0.029,0.453,0.088c0.141,0.061,0.264,0.146,0.369,0.264
				s0.189,0.261,0.25,0.438C67.832,144.688,67.862,144.889,67.862,145.117z M67.565,145.117c0-0.2-0.022-0.372-0.068-0.516
				c-0.045-0.145-0.108-0.262-0.187-0.354c-0.08-0.093-0.172-0.16-0.277-0.203s-0.217-0.063-0.333-0.063
				c-0.117,0-0.228,0.021-0.332,0.063s-0.195,0.11-0.273,0.203c-0.078,0.093-0.14,0.21-0.186,0.354
				c-0.045,0.144-0.068,0.313-0.068,0.516c0,0.201,0.023,0.372,0.068,0.514c0.045,0.143,0.107,0.258,0.186,0.35
				c0.078,0.093,0.169,0.158,0.273,0.201s0.215,0.063,0.332,0.063c0.117,0,0.228-0.021,0.333-0.063
				c0.105-0.041,0.198-0.108,0.277-0.201c0.079-0.092,0.142-0.207,0.187-0.35C67.543,145.489,67.565,145.316,67.565,145.117z
				 M69.958,143.859c0.016-0.021,0.034-0.036,0.057-0.051c0.022-0.014,0.051-0.021,0.087-0.021h0.262l-3.966,5.453
				c-0.034,0.047-0.079,0.069-0.137,0.069h-0.265L69.958,143.859z M70.844,148.002c0,0.227-0.031,0.426-0.094,0.6
				c-0.062,0.174-0.146,0.316-0.251,0.433s-0.229,0.2-0.369,0.26c-0.14,0.06-0.289,0.088-0.445,0.088
				c-0.161,0-0.313-0.028-0.455-0.088s-0.265-0.146-0.369-0.26s-0.186-0.259-0.246-0.433c-0.06-0.174-0.09-0.373-0.09-0.6
				c0-0.229,0.03-0.432,0.09-0.605c0.06-0.174,0.142-0.317,0.246-0.435s0.227-0.203,0.369-0.262c0.142-0.06,0.293-0.089,0.455-0.089
				s0.312,0.029,0.453,0.089c0.141,0.059,0.264,0.146,0.369,0.262c0.105,0.115,0.188,0.261,0.248,0.435
				C70.814,147.57,70.844,147.773,70.844,148.002z M70.548,148.002c0-0.2-0.023-0.373-0.068-0.518
				c-0.045-0.146-0.107-0.265-0.186-0.354c-0.078-0.093-0.17-0.16-0.275-0.203s-0.217-0.062-0.334-0.062
				c-0.117,0-0.229,0.021-0.333,0.062c-0.105,0.043-0.197,0.11-0.275,0.203c-0.078,0.093-0.14,0.211-0.186,0.354
				c-0.045,0.145-0.068,0.315-0.068,0.518s0.023,0.371,0.068,0.514c0.045,0.144,0.107,0.258,0.186,0.351
				c0.078,0.092,0.17,0.157,0.275,0.198s0.216,0.062,0.333,0.062c0.117,0,0.229-0.021,0.334-0.062s0.197-0.106,0.275-0.198
				c0.078-0.093,0.14-0.207,0.186-0.351C70.525,148.373,70.548,148.202,70.548,148.002z"/>
		</g>
	</g>
	<g>
		<path d="M87.64,91.709c-0.036,0.068-0.088,0.102-0.156,0.102c-0.052,0-0.119-0.036-0.201-0.11
			c-0.083-0.074-0.194-0.156-0.335-0.246c-0.14-0.09-0.315-0.173-0.526-0.249s-0.471-0.114-0.779-0.114s-0.581,0.044-0.815,0.132
			c-0.235,0.088-0.432,0.208-0.59,0.36c-0.159,0.152-0.279,0.328-0.361,0.528s-0.123,0.41-0.123,0.63
			c0,0.288,0.061,0.525,0.183,0.714c0.122,0.188,0.283,0.348,0.484,0.479c0.2,0.133,0.427,0.243,0.682,0.333
			c0.254,0.091,0.516,0.18,0.784,0.268s0.529,0.185,0.784,0.291c0.254,0.105,0.481,0.239,0.682,0.398
			c0.2,0.16,0.361,0.357,0.483,0.592c0.122,0.233,0.184,0.524,0.184,0.873c0,0.355-0.062,0.69-0.183,1.005
			c-0.122,0.313-0.3,0.587-0.531,0.818c-0.232,0.232-0.517,0.415-0.853,0.549c-0.336,0.135-0.72,0.201-1.151,0.201
			c-0.561,0-1.042-0.099-1.446-0.297s-0.758-0.469-1.062-0.812l0.168-0.265c0.048-0.06,0.104-0.09,0.168-0.09
			c0.035,0,0.082,0.024,0.138,0.072c0.057,0.048,0.124,0.107,0.204,0.177c0.08,0.07,0.177,0.146,0.289,0.229
			c0.111,0.082,0.242,0.157,0.391,0.228c0.147,0.07,0.318,0.129,0.51,0.177c0.192,0.048,0.411,0.072,0.655,0.072
			c0.337,0,0.637-0.051,0.901-0.153c0.265-0.102,0.487-0.24,0.67-0.417c0.183-0.176,0.321-0.385,0.418-0.627
			c0.096-0.241,0.144-0.501,0.144-0.776c0-0.301-0.061-0.547-0.183-0.741c-0.123-0.194-0.284-0.356-0.484-0.486
			s-0.428-0.238-0.682-0.327c-0.255-0.088-0.516-0.174-0.784-0.258s-0.529-0.178-0.784-0.282c-0.254-0.104-0.481-0.236-0.682-0.398
			s-0.361-0.364-0.484-0.606c-0.122-0.241-0.183-0.545-0.183-0.909c0-0.283,0.054-0.558,0.162-0.821
			c0.108-0.265,0.267-0.497,0.475-0.699s0.466-0.364,0.772-0.486c0.306-0.122,0.655-0.183,1.048-0.183c0.44,0,0.836,0.07,1.187,0.21
			s0.67,0.354,0.958,0.642L87.64,91.709z"/>
		<path d="M89.931,93.197v3.815c0,0.561,0.129,0.999,0.386,1.317s0.648,0.477,1.174,0.477c0.39,0,0.753-0.099,1.09-0.297
			s0.64-0.473,0.909-0.825v-4.487h0.569v5.97h-0.313c-0.11,0-0.168-0.052-0.172-0.156l-0.055-0.888
			c-0.276,0.344-0.596,0.62-0.958,0.828s-0.767,0.312-1.211,0.312c-0.332,0-0.623-0.052-0.871-0.155
			c-0.248-0.104-0.454-0.255-0.619-0.45c-0.164-0.196-0.288-0.433-0.372-0.708c-0.084-0.276-0.126-0.588-0.126-0.937v-3.815H89.931z
			"/>
		<path d="M96.003,99.167v-5.97h0.301c0.067,0,0.116,0.014,0.146,0.042c0.03,0.027,0.047,0.076,0.051,0.144l0.048,1.26
			c0.192-0.483,0.448-0.862,0.769-1.137c0.32-0.273,0.714-0.411,1.182-0.411c0.181,0,0.346,0.02,0.498,0.058
			s0.296,0.093,0.433,0.165l-0.078,0.396c-0.013,0.064-0.053,0.096-0.12,0.096c-0.024,0-0.059-0.008-0.103-0.023
			s-0.099-0.034-0.165-0.054c-0.065-0.021-0.146-0.038-0.242-0.055c-0.097-0.016-0.206-0.023-0.33-0.023
			c-0.452,0-0.823,0.14-1.113,0.42c-0.29,0.279-0.525,0.684-0.705,1.212v3.882H96.003z"/>
		<path d="M102.969,99.167h-0.504l-2.52-5.97h0.449c0.057,0,0.102,0.015,0.136,0.045c0.033,0.03,0.059,0.062,0.074,0.099l1.969,4.71
			c0.04,0.092,0.069,0.181,0.09,0.265c0.02,0.084,0.04,0.168,0.06,0.252c0.021-0.084,0.041-0.169,0.063-0.256
			c0.021-0.086,0.051-0.173,0.087-0.261l1.979-4.71c0.021-0.044,0.047-0.079,0.081-0.104c0.034-0.026,0.075-0.039,0.123-0.039h0.433
			L102.969,99.167z"/>
		<path d="M108.753,93.101c0.336,0,0.647,0.059,0.934,0.175c0.286,0.115,0.534,0.284,0.744,0.507
			c0.21,0.222,0.374,0.495,0.491,0.818c0.118,0.324,0.178,0.696,0.178,1.116c0,0.088-0.014,0.148-0.039,0.181
			c-0.026,0.031-0.067,0.048-0.123,0.048h-4.309v0.113c0,0.448,0.053,0.843,0.156,1.183c0.104,0.34,0.252,0.625,0.444,0.854
			c0.191,0.23,0.424,0.403,0.695,0.52c0.272,0.116,0.576,0.174,0.912,0.174c0.301,0,0.561-0.033,0.78-0.099
			c0.22-0.066,0.405-0.141,0.555-0.223c0.15-0.082,0.27-0.156,0.357-0.222c0.088-0.066,0.152-0.099,0.192-0.099
			c0.052,0,0.092,0.02,0.119,0.06l0.156,0.192c-0.096,0.119-0.223,0.231-0.381,0.336c-0.158,0.104-0.334,0.192-0.528,0.267
			c-0.193,0.074-0.401,0.133-0.624,0.177c-0.222,0.044-0.444,0.066-0.669,0.066c-0.407,0-0.779-0.071-1.115-0.213
			c-0.337-0.143-0.625-0.35-0.865-0.621c-0.241-0.272-0.427-0.605-0.559-0.999c-0.131-0.395-0.196-0.845-0.196-1.354
			c0-0.428,0.061-0.822,0.183-1.185s0.298-0.674,0.528-0.936c0.229-0.263,0.512-0.468,0.846-0.615
			C107.95,93.175,108.329,93.101,108.753,93.101z M108.762,93.527c-0.308,0-0.583,0.048-0.826,0.144
			c-0.244,0.096-0.454,0.234-0.633,0.414c-0.178,0.18-0.321,0.396-0.431,0.648c-0.11,0.252-0.183,0.533-0.219,0.846h3.93
			c0-0.32-0.044-0.607-0.132-0.861s-0.211-0.469-0.371-0.645s-0.352-0.312-0.575-0.405S109.033,93.527,108.762,93.527z"/>
		<path d="M113.83,101.087c-0.024,0.056-0.056,0.103-0.094,0.138c-0.038,0.036-0.093,0.055-0.165,0.055h-0.407l1.05-2.334
			l-2.526-5.748h0.475c0.06,0,0.106,0.015,0.141,0.045s0.059,0.062,0.075,0.099l2.01,4.645c0.024,0.06,0.045,0.121,0.062,0.183
			c0.019,0.062,0.035,0.125,0.052,0.189c0.02-0.064,0.041-0.127,0.062-0.189c0.022-0.062,0.045-0.123,0.069-0.183l1.986-4.645
			c0.02-0.044,0.048-0.079,0.084-0.104c0.035-0.026,0.075-0.039,0.119-0.039h0.438L113.83,101.087z"/>
		<path d="M68.77,113.567v-5.97h0.301c0.067,0,0.116,0.014,0.146,0.042c0.03,0.027,0.047,0.076,0.051,0.144l0.048,1.26
			c0.192-0.483,0.448-0.862,0.769-1.137c0.32-0.273,0.714-0.411,1.182-0.411c0.181,0,0.346,0.02,0.498,0.058
			s0.296,0.093,0.433,0.165l-0.078,0.396c-0.013,0.064-0.053,0.096-0.12,0.096c-0.024,0-0.059-0.008-0.103-0.023
			s-0.099-0.034-0.165-0.054c-0.065-0.021-0.146-0.038-0.242-0.055c-0.097-0.016-0.206-0.023-0.33-0.023
			c-0.452,0-0.823,0.14-1.113,0.42c-0.29,0.279-0.525,0.684-0.705,1.212v3.882H68.77z"/>
		<path d="M75.783,107.501c0.336,0,0.647,0.059,0.934,0.175c0.286,0.115,0.534,0.284,0.744,0.507
			c0.21,0.222,0.374,0.495,0.491,0.818c0.118,0.324,0.178,0.696,0.178,1.116c0,0.088-0.014,0.148-0.039,0.181
			c-0.026,0.031-0.067,0.048-0.123,0.048h-4.309v0.113c0,0.448,0.053,0.843,0.156,1.183c0.104,0.34,0.252,0.625,0.444,0.854
			c0.191,0.23,0.424,0.403,0.695,0.52c0.272,0.116,0.576,0.174,0.912,0.174c0.301,0,0.561-0.033,0.78-0.099
			c0.22-0.066,0.405-0.141,0.555-0.223c0.15-0.082,0.27-0.156,0.357-0.222c0.088-0.066,0.152-0.099,0.192-0.099
			c0.052,0,0.092,0.02,0.119,0.06l0.156,0.192c-0.096,0.119-0.223,0.231-0.381,0.336c-0.158,0.104-0.334,0.192-0.528,0.267
			c-0.193,0.074-0.401,0.133-0.624,0.177c-0.222,0.044-0.444,0.066-0.669,0.066c-0.407,0-0.779-0.071-1.115-0.213
			c-0.337-0.143-0.625-0.35-0.865-0.621c-0.241-0.272-0.427-0.605-0.559-0.999c-0.131-0.395-0.196-0.845-0.196-1.354
			c0-0.428,0.061-0.822,0.183-1.185s0.298-0.674,0.528-0.936c0.229-0.263,0.512-0.468,0.846-0.615
			C74.98,107.575,75.359,107.501,75.783,107.501z M75.792,107.928c-0.308,0-0.583,0.048-0.826,0.144
			c-0.244,0.096-0.454,0.234-0.633,0.414c-0.178,0.18-0.321,0.396-0.431,0.648c-0.11,0.252-0.183,0.533-0.219,0.846h3.93
			c0-0.32-0.044-0.607-0.132-0.861s-0.211-0.469-0.371-0.645s-0.352-0.312-0.575-0.405S76.063,107.928,75.792,107.928z"/>
		<path d="M82.953,108.342c-0.027,0.056-0.071,0.084-0.132,0.084c-0.044,0-0.101-0.025-0.171-0.075s-0.162-0.106-0.276-0.168
			c-0.113-0.062-0.254-0.118-0.42-0.168s-0.369-0.075-0.608-0.075c-0.217,0-0.413,0.031-0.592,0.093
			c-0.178,0.062-0.329,0.145-0.455,0.248c-0.127,0.104-0.225,0.225-0.295,0.362c-0.069,0.138-0.104,0.282-0.104,0.434
			c0,0.188,0.048,0.344,0.144,0.467c0.097,0.124,0.223,0.229,0.378,0.317c0.156,0.088,0.333,0.163,0.531,0.228
			c0.198,0.063,0.401,0.128,0.609,0.191c0.208,0.064,0.411,0.135,0.608,0.213c0.198,0.078,0.375,0.175,0.531,0.291
			s0.282,0.258,0.378,0.426c0.097,0.168,0.145,0.372,0.145,0.612c0,0.26-0.047,0.502-0.142,0.727
			c-0.094,0.224-0.229,0.418-0.407,0.581c-0.179,0.164-0.397,0.295-0.657,0.391c-0.261,0.096-0.557,0.144-0.889,0.144
			c-0.42,0-0.781-0.066-1.086-0.201c-0.304-0.134-0.575-0.309-0.815-0.524l0.138-0.204c0.021-0.032,0.042-0.056,0.066-0.072
			c0.023-0.016,0.058-0.023,0.102-0.023c0.052,0,0.116,0.032,0.192,0.096c0.076,0.064,0.175,0.133,0.297,0.207
			s0.273,0.143,0.456,0.207c0.182,0.063,0.407,0.096,0.675,0.096c0.252,0,0.474-0.035,0.666-0.104
			c0.192-0.07,0.352-0.165,0.48-0.285c0.128-0.12,0.225-0.261,0.291-0.423c0.065-0.162,0.099-0.333,0.099-0.514
			c0-0.199-0.048-0.365-0.145-0.498c-0.096-0.132-0.222-0.243-0.378-0.336c-0.155-0.092-0.333-0.17-0.53-0.233
			c-0.198-0.064-0.402-0.128-0.612-0.192c-0.21-0.063-0.414-0.134-0.612-0.21c-0.197-0.076-0.375-0.172-0.53-0.288
			c-0.156-0.116-0.282-0.257-0.379-0.423c-0.096-0.166-0.144-0.373-0.144-0.621c0-0.212,0.046-0.416,0.138-0.612
			c0.092-0.195,0.224-0.367,0.394-0.516c0.17-0.147,0.377-0.266,0.621-0.354c0.243-0.088,0.518-0.133,0.821-0.133
			c0.364,0,0.688,0.053,0.97,0.158c0.281,0.105,0.541,0.267,0.776,0.484L82.953,108.342z"/>
		<path d="M84.825,115.68v-8.082h0.312c0.052,0,0.094,0.011,0.126,0.033c0.032,0.021,0.05,0.061,0.054,0.116l0.054,0.924
			c0.265-0.359,0.573-0.646,0.928-0.857c0.354-0.212,0.751-0.318,1.19-0.318c0.736,0,1.309,0.254,1.716,0.763
			c0.408,0.508,0.612,1.27,0.612,2.285c0,0.437-0.057,0.844-0.171,1.222s-0.281,0.706-0.501,0.983
			c-0.22,0.278-0.491,0.497-0.813,0.657c-0.321,0.16-0.692,0.24-1.112,0.24c-0.408,0-0.76-0.074-1.057-0.222
			c-0.296-0.148-0.552-0.368-0.768-0.66v2.916H84.825z M87.327,107.957c-0.396,0-0.755,0.104-1.076,0.31
			c-0.322,0.206-0.607,0.493-0.855,0.86v3.133c0.228,0.344,0.48,0.586,0.759,0.726s0.595,0.21,0.951,0.21
			c0.352,0,0.66-0.063,0.924-0.192c0.265-0.128,0.485-0.309,0.663-0.543c0.178-0.233,0.312-0.514,0.402-0.84
			s0.135-0.685,0.135-1.077c0-0.888-0.163-1.541-0.489-1.959S87.943,107.957,87.327,107.957z"/>
		<path d="M93.52,107.501c0.428,0,0.811,0.073,1.148,0.22c0.339,0.146,0.623,0.353,0.855,0.621c0.232,0.268,0.409,0.591,0.531,0.969
			s0.183,0.801,0.183,1.269c0,0.469-0.061,0.891-0.183,1.267s-0.299,0.697-0.531,0.966c-0.232,0.268-0.517,0.474-0.855,0.618
			c-0.338,0.144-0.721,0.216-1.148,0.216s-0.812-0.072-1.149-0.216c-0.338-0.145-0.624-0.351-0.857-0.618
			c-0.234-0.269-0.412-0.59-0.534-0.966s-0.183-0.798-0.183-1.267c0-0.468,0.061-0.891,0.183-1.269s0.3-0.701,0.534-0.969
			c0.233-0.269,0.52-0.476,0.857-0.621C92.708,107.574,93.092,107.501,93.52,107.501z M93.52,113.195
			c0.355,0,0.667-0.061,0.933-0.183c0.267-0.122,0.488-0.297,0.666-0.525c0.178-0.228,0.312-0.503,0.399-0.825
			c0.088-0.321,0.132-0.683,0.132-1.083c0-0.396-0.044-0.756-0.132-1.08c-0.088-0.323-0.222-0.601-0.399-0.831
			c-0.178-0.229-0.399-0.406-0.666-0.53c-0.266-0.124-0.577-0.187-0.933-0.187c-0.356,0-0.667,0.062-0.933,0.187
			c-0.267,0.124-0.488,0.301-0.666,0.53c-0.179,0.23-0.312,0.508-0.402,0.831c-0.09,0.324-0.135,0.685-0.135,1.08
			c0,0.4,0.045,0.762,0.135,1.083c0.09,0.322,0.224,0.598,0.402,0.825c0.178,0.229,0.399,0.403,0.666,0.525
			C92.853,113.135,93.163,113.195,93.52,113.195z"/>
		<path d="M97.736,113.567v-5.97h0.312c0.104,0,0.164,0.05,0.18,0.149l0.054,0.9c0.272-0.344,0.59-0.621,0.951-0.831
			c0.362-0.21,0.766-0.315,1.209-0.315c0.328,0,0.617,0.053,0.867,0.156c0.25,0.104,0.457,0.254,0.621,0.45s0.288,0.432,0.372,0.708
			s0.126,0.588,0.126,0.936v3.816h-0.57v-3.816c0-0.56-0.128-0.999-0.384-1.316c-0.256-0.318-0.648-0.478-1.176-0.478
			c-0.393,0-0.756,0.102-1.092,0.304s-0.637,0.479-0.9,0.831v4.476H97.736z"/>
		<path d="M108.463,113.567c-0.099,0-0.156-0.052-0.172-0.156l-0.061-0.941c-0.265,0.359-0.573,0.646-0.928,0.857
			s-0.752,0.318-1.193,0.318c-0.732,0-1.305-0.254-1.715-0.762c-0.41-0.509-0.615-1.271-0.615-2.286
			c0-0.437,0.057-0.844,0.171-1.222s0.282-0.705,0.505-0.983c0.222-0.278,0.494-0.497,0.816-0.657c0.323-0.16,0.694-0.24,1.115-0.24
			c0.404,0,0.755,0.075,1.051,0.226c0.297,0.149,0.553,0.369,0.77,0.656v-3.54h0.569v8.73H108.463z M106.271,113.184
			c0.396,0,0.756-0.103,1.076-0.307c0.32-0.203,0.606-0.487,0.859-0.852v-3.15c-0.232-0.34-0.488-0.579-0.767-0.72
			c-0.278-0.14-0.594-0.21-0.946-0.21s-0.661,0.064-0.926,0.192c-0.264,0.128-0.485,0.309-0.664,0.543
			c-0.178,0.233-0.312,0.514-0.402,0.84s-0.135,0.685-0.135,1.077c0,0.888,0.164,1.541,0.492,1.959
			C105.188,112.975,105.659,113.184,106.271,113.184z"/>
		<path d="M113.03,107.501c0.336,0,0.647,0.059,0.934,0.175c0.286,0.115,0.534,0.284,0.744,0.507
			c0.21,0.222,0.374,0.495,0.491,0.818c0.118,0.324,0.178,0.696,0.178,1.116c0,0.088-0.014,0.148-0.039,0.181
			c-0.026,0.031-0.067,0.048-0.123,0.048h-4.309v0.113c0,0.448,0.053,0.843,0.156,1.183c0.104,0.34,0.252,0.625,0.444,0.854
			c0.191,0.23,0.424,0.403,0.695,0.52c0.272,0.116,0.576,0.174,0.912,0.174c0.301,0,0.561-0.033,0.78-0.099
			c0.22-0.066,0.405-0.141,0.555-0.223c0.15-0.082,0.27-0.156,0.357-0.222c0.088-0.066,0.152-0.099,0.192-0.099
			c0.052,0,0.092,0.02,0.119,0.06l0.156,0.192c-0.096,0.119-0.223,0.231-0.381,0.336c-0.158,0.104-0.334,0.192-0.528,0.267
			c-0.193,0.074-0.401,0.133-0.624,0.177c-0.222,0.044-0.444,0.066-0.669,0.066c-0.407,0-0.779-0.071-1.115-0.213
			c-0.337-0.143-0.625-0.35-0.865-0.621c-0.241-0.272-0.427-0.605-0.559-0.999c-0.131-0.395-0.196-0.845-0.196-1.354
			c0-0.428,0.061-0.822,0.183-1.185s0.298-0.674,0.528-0.936c0.229-0.263,0.512-0.468,0.846-0.615
			C112.228,107.575,112.606,107.501,113.03,107.501z M113.039,107.928c-0.308,0-0.583,0.048-0.826,0.144
			c-0.244,0.096-0.454,0.234-0.633,0.414c-0.178,0.18-0.321,0.396-0.431,0.648c-0.11,0.252-0.183,0.533-0.219,0.846h3.93
			c0-0.32-0.044-0.607-0.132-0.861s-0.211-0.469-0.371-0.645s-0.352-0.312-0.575-0.405S113.311,107.928,113.039,107.928z"/>
		<path d="M116.912,113.567v-5.97h0.312c0.104,0,0.164,0.05,0.18,0.149l0.054,0.9c0.272-0.344,0.59-0.621,0.951-0.831
			c0.362-0.21,0.766-0.315,1.209-0.315c0.328,0,0.617,0.053,0.867,0.156c0.25,0.104,0.457,0.254,0.621,0.45s0.288,0.432,0.372,0.708
			s0.126,0.588,0.126,0.936v3.816h-0.57v-3.816c0-0.56-0.128-0.999-0.384-1.316c-0.256-0.318-0.648-0.478-1.176-0.478
			c-0.393,0-0.756,0.102-1.092,0.304s-0.637,0.479-0.9,0.831v4.476H116.912z"/>
		<path d="M125.03,113.663c-0.403,0-0.718-0.111-0.941-0.336c-0.225-0.224-0.336-0.569-0.336-1.038v-4.08h-0.858
			c-0.044,0-0.08-0.012-0.108-0.035c-0.027-0.024-0.042-0.059-0.042-0.103v-0.222l1.021-0.072l0.143-2.136
			c0.004-0.036,0.019-0.068,0.044-0.097c0.026-0.027,0.061-0.042,0.104-0.042h0.267v2.28h1.878v0.426h-1.878v4.051
			c0,0.164,0.021,0.305,0.063,0.423s0.1,0.215,0.174,0.291s0.161,0.132,0.261,0.168c0.101,0.036,0.208,0.054,0.324,0.054
			c0.145,0,0.268-0.021,0.372-0.062c0.104-0.042,0.194-0.088,0.27-0.139c0.076-0.05,0.139-0.096,0.187-0.138
			s0.086-0.063,0.114-0.063c0.031,0,0.063,0.021,0.096,0.061l0.156,0.252c-0.152,0.168-0.346,0.303-0.579,0.405
			C125.525,113.612,125.282,113.663,125.03,113.663z"/>
		<path d="M130.97,108.342c-0.027,0.056-0.071,0.084-0.132,0.084c-0.044,0-0.101-0.025-0.171-0.075s-0.162-0.106-0.276-0.168
			c-0.113-0.062-0.254-0.118-0.42-0.168s-0.369-0.075-0.608-0.075c-0.217,0-0.413,0.031-0.592,0.093
			c-0.178,0.062-0.329,0.145-0.455,0.248c-0.127,0.104-0.225,0.225-0.295,0.362c-0.069,0.138-0.104,0.282-0.104,0.434
			c0,0.188,0.048,0.344,0.144,0.467c0.097,0.124,0.223,0.229,0.378,0.317c0.156,0.088,0.333,0.163,0.531,0.228
			c0.198,0.063,0.401,0.128,0.609,0.191c0.208,0.064,0.411,0.135,0.608,0.213c0.198,0.078,0.375,0.175,0.531,0.291
			s0.282,0.258,0.378,0.426c0.097,0.168,0.145,0.372,0.145,0.612c0,0.26-0.047,0.502-0.142,0.727
			c-0.094,0.224-0.229,0.418-0.407,0.581c-0.179,0.164-0.397,0.295-0.657,0.391c-0.261,0.096-0.557,0.144-0.889,0.144
			c-0.42,0-0.781-0.066-1.086-0.201c-0.304-0.134-0.575-0.309-0.815-0.524l0.138-0.204c0.021-0.032,0.042-0.056,0.066-0.072
			c0.023-0.016,0.058-0.023,0.102-0.023c0.052,0,0.116,0.032,0.192,0.096c0.076,0.064,0.175,0.133,0.297,0.207
			s0.273,0.143,0.456,0.207c0.182,0.063,0.407,0.096,0.675,0.096c0.252,0,0.474-0.035,0.666-0.104
			c0.192-0.07,0.352-0.165,0.48-0.285c0.128-0.12,0.225-0.261,0.291-0.423c0.065-0.162,0.099-0.333,0.099-0.514
			c0-0.199-0.048-0.365-0.145-0.498c-0.096-0.132-0.222-0.243-0.378-0.336c-0.155-0.092-0.333-0.17-0.53-0.233
			c-0.198-0.064-0.402-0.128-0.612-0.192c-0.21-0.063-0.414-0.134-0.612-0.21c-0.197-0.076-0.375-0.172-0.53-0.288
			c-0.156-0.116-0.282-0.257-0.379-0.423c-0.096-0.166-0.144-0.373-0.144-0.621c0-0.212,0.046-0.416,0.138-0.612
			c0.092-0.195,0.224-0.367,0.394-0.516c0.17-0.147,0.377-0.266,0.621-0.354c0.243-0.088,0.518-0.133,0.821-0.133
			c0.364,0,0.688,0.053,0.97,0.158c0.281,0.105,0.541,0.267,0.776,0.484L130.97,108.342z"/>
	</g>
</g>
</svg>
