<?xml version="1.0" encoding="utf-8"?>
<!-- Generator: Adobe Illustrator 16.0.0, SVG Export Plug-In . SVG Version: 6.00 Build 0)  -->
<!DOCTYPE svg PUBLIC "-//W3C//DTD SVG 1.0//EN" "http://www.w3.org/TR/2001/REC-SVG-20010904/DTD/svg10.dtd">
<svg version="1.0" id="Layer_1" xmlns="http://www.w3.org/2000/svg" xmlns:xlink="http://www.w3.org/1999/xlink" x="0px" y="0px"
	 width="200px" height="200px" viewBox="0 0 200 200" enable-background="new 0 0 200 200" xml:space="preserve">
<g>
	<g>
		<path fill="#231F20" d="M98.265,182.941h-0.356c-0.042,0-0.077-0.012-0.104-0.033c-0.027-0.022-0.048-0.053-0.063-0.088
			l-0.752-1.854h-3.133l-0.748,1.854c-0.012,0.031-0.034,0.062-0.064,0.085c-0.029,0.024-0.066,0.036-0.107,0.036h-0.352l2.61-6.377
			h0.459L98.265,182.941z M93.996,180.625h2.857l-1.302-3.225c-0.021-0.049-0.042-0.106-0.063-0.172
			c-0.021-0.064-0.042-0.133-0.063-0.205c-0.021,0.072-0.042,0.141-0.063,0.205s-0.042,0.125-0.062,0.178L93.996,180.625z"/>
		<path fill="#231F20" d="M100.537,178.38c0.195,0,0.376,0.024,0.542,0.072c0.167,0.048,0.315,0.116,0.448,0.203h1.148v0.149
			c0,0.074-0.042,0.113-0.125,0.12l-0.682,0.05c0.085,0.114,0.148,0.242,0.193,0.385c0.045,0.145,0.066,0.297,0.066,0.459
			c0,0.216-0.038,0.412-0.115,0.587c-0.08,0.178-0.188,0.327-0.328,0.452c-0.139,0.125-0.308,0.222-0.502,0.289
			c-0.195,0.069-0.412,0.104-0.648,0.104c-0.259,0-0.494-0.038-0.704-0.116c-0.126,0.071-0.226,0.158-0.297,0.258
			c-0.071,0.099-0.108,0.194-0.108,0.287c0,0.131,0.045,0.229,0.135,0.299c0.09,0.067,0.209,0.119,0.358,0.149
			c0.149,0.032,0.319,0.054,0.51,0.062c0.19,0.009,0.383,0.021,0.583,0.029c0.197,0.01,0.389,0.029,0.58,0.057
			c0.19,0.026,0.361,0.074,0.51,0.142s0.269,0.163,0.358,0.284c0.091,0.122,0.136,0.283,0.136,0.484c0,0.187-0.048,0.364-0.14,0.537
			c-0.095,0.17-0.229,0.321-0.403,0.454c-0.177,0.134-0.39,0.238-0.639,0.317c-0.249,0.08-0.529,0.12-0.839,0.12
			c-0.316,0-0.592-0.032-0.829-0.097c-0.238-0.064-0.437-0.151-0.598-0.263c-0.161-0.108-0.282-0.235-0.363-0.382
			c-0.081-0.145-0.122-0.297-0.122-0.459c0-0.237,0.078-0.441,0.234-0.613c0.156-0.171,0.372-0.303,0.645-0.396
			c-0.151-0.052-0.27-0.126-0.358-0.222c-0.089-0.097-0.134-0.229-0.134-0.401c0-0.062,0.012-0.13,0.037-0.198
			s0.06-0.138,0.108-0.205c0.048-0.068,0.106-0.132,0.173-0.191c0.067-0.061,0.146-0.112,0.236-0.162
			c-0.213-0.123-0.379-0.286-0.498-0.49c-0.118-0.204-0.178-0.444-0.178-0.717c0-0.217,0.038-0.412,0.114-0.59
			c0.077-0.174,0.185-0.326,0.325-0.451c0.141-0.127,0.309-0.225,0.507-0.293C100.076,178.414,100.296,178.38,100.537,178.38z
			 M102.198,183.243c0-0.142-0.036-0.255-0.109-0.341s-0.173-0.151-0.295-0.2c-0.123-0.048-0.267-0.081-0.427-0.101
			c-0.16-0.021-0.328-0.035-0.504-0.043c-0.176-0.01-0.354-0.02-0.53-0.027c-0.177-0.008-0.343-0.026-0.495-0.055
			c-0.115,0.047-0.221,0.098-0.319,0.155c-0.097,0.06-0.18,0.125-0.25,0.198c-0.068,0.074-0.123,0.154-0.162,0.243
			c-0.04,0.089-0.059,0.187-0.059,0.292c0,0.131,0.033,0.253,0.101,0.365s0.167,0.211,0.297,0.295
			c0.13,0.082,0.292,0.146,0.48,0.195c0.188,0.047,0.407,0.071,0.653,0.071c0.229,0,0.44-0.024,0.638-0.076
			c0.198-0.051,0.368-0.124,0.516-0.217c0.145-0.093,0.259-0.204,0.341-0.333C102.157,183.539,102.198,183.396,102.198,183.243z
			 M100.537,180.959c0.191,0,0.363-0.027,0.512-0.084c0.152-0.055,0.278-0.133,0.379-0.23c0.104-0.101,0.182-0.22,0.232-0.356
			c0.053-0.14,0.078-0.292,0.078-0.46s-0.026-0.321-0.081-0.462c-0.052-0.14-0.132-0.259-0.235-0.358
			c-0.104-0.099-0.23-0.175-0.379-0.229c-0.148-0.055-0.316-0.082-0.506-0.082c-0.19,0-0.36,0.027-0.51,0.082
			c-0.151,0.055-0.277,0.131-0.381,0.229c-0.103,0.1-0.182,0.219-0.237,0.358c-0.053,0.141-0.081,0.294-0.081,0.462
			s0.027,0.32,0.081,0.46c0.055,0.138,0.134,0.257,0.237,0.356c0.104,0.099,0.23,0.176,0.381,0.23
			C100.176,180.932,100.346,180.959,100.537,180.959z"/>
		<path fill="#231F20" d="M105.297,178.384c0.252,0,0.485,0.046,0.7,0.134c0.215,0.086,0.399,0.211,0.56,0.379
			c0.156,0.168,0.28,0.371,0.368,0.615c0.089,0.243,0.134,0.522,0.134,0.838c0,0.067-0.011,0.111-0.029,0.137
			c-0.02,0.023-0.049,0.035-0.092,0.035H103.7v0.086c0,0.336,0.038,0.634,0.116,0.889c0.078,0.256,0.189,0.47,0.334,0.643
			c0.145,0.172,0.317,0.303,0.523,0.391c0.203,0.087,0.434,0.131,0.686,0.131c0.226,0,0.42-0.025,0.584-0.075
			c0.166-0.049,0.306-0.104,0.418-0.167c0.113-0.062,0.203-0.117,0.269-0.166c0.065-0.051,0.113-0.072,0.146-0.072
			c0.039,0,0.068,0.014,0.09,0.043l0.117,0.146c-0.072,0.089-0.168,0.174-0.287,0.252c-0.117,0.078-0.25,0.146-0.396,0.2
			c-0.146,0.057-0.302,0.101-0.47,0.134c-0.166,0.032-0.333,0.05-0.501,0.05c-0.308,0-0.587-0.054-0.839-0.16
			c-0.254-0.106-0.469-0.263-0.65-0.467c-0.18-0.205-0.32-0.455-0.419-0.751c-0.099-0.295-0.147-0.634-0.147-1.017
			c0-0.32,0.047-0.617,0.138-0.891c0.092-0.271,0.225-0.506,0.396-0.703c0.174-0.197,0.387-0.351,0.635-0.461
			C104.691,178.439,104.977,178.384,105.297,178.384z M105.303,178.705c-0.23,0-0.438,0.036-0.621,0.107s-0.342,0.177-0.476,0.312
			c-0.133,0.135-0.241,0.298-0.323,0.485c-0.083,0.189-0.138,0.401-0.164,0.637h2.952c0-0.24-0.032-0.455-0.101-0.646
			c-0.064-0.19-0.157-0.353-0.277-0.483c-0.121-0.134-0.266-0.233-0.434-0.306C105.691,178.741,105.506,178.705,105.303,178.705z"/>
		<path fill="#231F20" d="M89.297,195.035c0.22,0,0.419-0.012,0.599-0.033c0.181-0.023,0.348-0.057,0.503-0.102
			c0.155-0.047,0.302-0.101,0.442-0.164c0.14-0.064,0.28-0.139,0.422-0.219V192.8h-1.227c-0.033,0-0.061-0.011-0.084-0.03
			c-0.022-0.021-0.033-0.045-0.033-0.072v-0.254h1.762v2.269c-0.159,0.111-0.325,0.211-0.496,0.298
			c-0.171,0.088-0.355,0.159-0.55,0.219c-0.195,0.059-0.405,0.104-0.631,0.137c-0.226,0.029-0.472,0.047-0.739,0.047
			c-0.459,0-0.88-0.077-1.26-0.23c-0.38-0.156-0.707-0.375-0.978-0.66c-0.272-0.283-0.483-0.627-0.633-1.029
			s-0.225-0.852-0.225-1.342c0-0.494,0.075-0.94,0.225-1.342c0.15-0.402,0.363-0.746,0.64-1.027
			c0.276-0.285,0.612-0.504,1.007-0.658s0.837-0.232,1.327-0.232c0.244,0,0.468,0.018,0.674,0.051s0.397,0.08,0.575,0.146
			c0.177,0.065,0.342,0.146,0.496,0.239c0.154,0.094,0.3,0.204,0.442,0.326l-0.122,0.199c-0.027,0.045-0.065,0.066-0.113,0.066
			c-0.027,0-0.053-0.006-0.077-0.018c-0.045-0.019-0.11-0.062-0.196-0.127c-0.086-0.065-0.202-0.135-0.347-0.207
			c-0.146-0.072-0.329-0.137-0.548-0.193c-0.219-0.057-0.485-0.086-0.797-0.086c-0.415,0-0.789,0.064-1.122,0.197
			c-0.334,0.134-0.619,0.322-0.854,0.568c-0.236,0.246-0.417,0.547-0.545,0.901s-0.192,0.753-0.192,1.194
			c0,0.451,0.064,0.854,0.194,1.211c0.129,0.357,0.311,0.662,0.543,0.908c0.232,0.25,0.512,0.439,0.838,0.57
			C88.543,194.97,88.903,195.035,89.297,195.035z"/>
		<path fill="#231F20" d="M93.087,195.338v-4.484h0.225c0.052,0,0.088,0.012,0.111,0.031c0.022,0.021,0.035,0.057,0.038,0.107
			l0.036,0.945c0.144-0.362,0.337-0.646,0.577-0.854c0.24-0.207,0.536-0.311,0.888-0.311c0.136,0,0.261,0.017,0.375,0.043
			c0.114,0.028,0.222,0.07,0.324,0.125l-0.058,0.298c-0.009,0.049-0.04,0.071-0.09,0.071c-0.018,0-0.044-0.006-0.077-0.018
			c-0.033-0.014-0.075-0.025-0.124-0.042c-0.05-0.015-0.111-0.028-0.183-0.039c-0.072-0.013-0.155-0.021-0.248-0.021
			c-0.339,0-0.618,0.106-0.836,0.315c-0.218,0.212-0.395,0.515-0.53,0.911v2.917h-0.428V195.338z"/>
		<path fill="#231F20" d="M98.375,190.78c0.321,0,0.609,0.056,0.863,0.163c0.254,0.111,0.468,0.268,0.643,0.468
			c0.174,0.202,0.307,0.442,0.399,0.728c0.091,0.284,0.136,0.604,0.136,0.955s-0.045,0.67-0.136,0.951
			c-0.092,0.282-0.226,0.523-0.399,0.725c-0.174,0.201-0.389,0.356-0.643,0.465c-0.254,0.107-0.542,0.162-0.863,0.162
			s-0.608-0.055-0.862-0.162c-0.254-0.107-0.469-0.264-0.645-0.465c-0.176-0.201-0.31-0.441-0.401-0.725
			c-0.091-0.283-0.137-0.602-0.137-0.951c0-0.353,0.046-0.671,0.137-0.955c0.091-0.283,0.226-0.524,0.401-0.728
			c0.176-0.2,0.391-0.356,0.645-0.468C97.766,190.836,98.053,190.78,98.375,190.78z M98.375,195.059
			c0.268,0,0.501-0.045,0.702-0.139c0.199-0.091,0.366-0.223,0.5-0.395c0.133-0.17,0.234-0.377,0.3-0.619
			c0.066-0.241,0.099-0.514,0.099-0.812c0-0.298-0.033-0.568-0.099-0.812c-0.066-0.244-0.167-0.451-0.3-0.624
			c-0.133-0.174-0.3-0.307-0.5-0.4c-0.2-0.093-0.434-0.139-0.702-0.139c-0.267,0-0.5,0.046-0.701,0.139
			c-0.2,0.094-0.367,0.227-0.5,0.4c-0.134,0.173-0.234,0.38-0.302,0.624c-0.067,0.243-0.102,0.514-0.102,0.812
			c0,0.301,0.034,0.571,0.102,0.812c0.067,0.242,0.168,0.449,0.302,0.619c0.134,0.172,0.301,0.304,0.5,0.395
			C97.874,195.014,98.107,195.059,98.375,195.059z"/>
		<path fill="#231F20" d="M101.857,190.854v2.865c0,0.422,0.098,0.752,0.291,0.99c0.191,0.238,0.485,0.357,0.881,0.357
			c0.293,0,0.566-0.073,0.82-0.223c0.252-0.15,0.479-0.354,0.682-0.621v-3.371h0.429v4.485h-0.237c-0.082,0-0.125-0.039-0.127-0.117
			l-0.041-0.668c-0.209,0.261-0.447,0.468-0.721,0.623c-0.273,0.156-0.575,0.234-0.91,0.234c-0.25,0-0.467-0.039-0.652-0.117
			c-0.188-0.078-0.342-0.19-0.465-0.338c-0.125-0.147-0.219-0.325-0.281-0.532c-0.063-0.207-0.096-0.441-0.096-0.704v-2.866h0.428
			V190.854z"/>
		<path fill="#231F20" d="M106.42,196.925v-6.071h0.234c0.039,0,0.07,0.008,0.096,0.023c0.023,0.018,0.037,0.047,0.04,0.088
			l0.041,0.695c0.198-0.271,0.431-0.485,0.694-0.645c0.268-0.16,0.564-0.24,0.896-0.24c0.553,0,0.98,0.19,1.287,0.572
			c0.309,0.381,0.46,0.954,0.46,1.719c0,0.326-0.042,0.633-0.127,0.916c-0.086,0.283-0.213,0.531-0.378,0.738
			c-0.164,0.211-0.369,0.375-0.609,0.495c-0.242,0.12-0.521,0.181-0.838,0.181c-0.306,0-0.57-0.057-0.793-0.168
			c-0.222-0.11-0.414-0.274-0.576-0.494v2.189L106.42,196.925L106.42,196.925z M108.3,191.123c-0.298,0-0.567,0.077-0.809,0.23
			c-0.243,0.155-0.456,0.371-0.644,0.648v2.354c0.172,0.259,0.361,0.439,0.57,0.545c0.209,0.104,0.445,0.158,0.713,0.158
			s0.497-0.049,0.695-0.146c0.199-0.096,0.365-0.23,0.498-0.407c0.135-0.175,0.234-0.386,0.303-0.631
			c0.066-0.244,0.102-0.515,0.102-0.81c0-0.666-0.123-1.157-0.367-1.473C109.117,191.28,108.764,191.123,108.3,191.123z"/>
		<path fill="#231F20" d="M113.714,191.411c-0.021,0.043-0.054,0.063-0.101,0.063c-0.032,0-0.074-0.02-0.127-0.057
			c-0.053-0.038-0.123-0.08-0.207-0.127c-0.086-0.046-0.192-0.088-0.315-0.127c-0.125-0.037-0.276-0.057-0.459-0.057
			c-0.161,0-0.312,0.023-0.442,0.07c-0.135,0.047-0.248,0.107-0.344,0.188c-0.095,0.076-0.168,0.168-0.221,0.271
			c-0.053,0.104-0.079,0.212-0.079,0.326c0,0.142,0.036,0.258,0.108,0.353c0.07,0.092,0.166,0.17,0.283,0.235
			c0.117,0.067,0.25,0.123,0.399,0.173c0.147,0.047,0.302,0.096,0.456,0.144c0.156,0.049,0.311,0.103,0.458,0.159
			c0.147,0.06,0.282,0.133,0.397,0.219c0.117,0.089,0.215,0.195,0.285,0.322c0.073,0.125,0.108,0.277,0.108,0.459
			c0,0.195-0.035,0.377-0.106,0.545c-0.07,0.169-0.172,0.312-0.306,0.438c-0.135,0.123-0.299,0.221-0.495,0.293
			c-0.193,0.072-0.418,0.108-0.666,0.108c-0.314,0-0.589-0.052-0.816-0.151c-0.229-0.101-0.433-0.232-0.612-0.395l0.104-0.153
			c0.016-0.024,0.031-0.041,0.049-0.054c0.019-0.012,0.045-0.018,0.076-0.018c0.041,0,0.09,0.021,0.145,0.07
			c0.059,0.048,0.133,0.102,0.225,0.156s0.206,0.105,0.342,0.154c0.139,0.049,0.307,0.072,0.508,0.072
			c0.188,0,0.356-0.025,0.5-0.078c0.146-0.054,0.266-0.125,0.363-0.215c0.096-0.091,0.168-0.197,0.217-0.318
			c0.05-0.121,0.074-0.25,0.074-0.385c0-0.149-0.035-0.274-0.107-0.373c-0.072-0.101-0.168-0.185-0.284-0.254
			c-0.117-0.068-0.25-0.127-0.399-0.176c-0.147-0.048-0.303-0.096-0.459-0.145c-0.158-0.049-0.311-0.102-0.459-0.157
			c-0.149-0.056-0.281-0.13-0.399-0.216c-0.118-0.088-0.212-0.194-0.283-0.319c-0.072-0.124-0.108-0.279-0.108-0.466
			c0-0.158,0.034-0.312,0.104-0.46c0.068-0.147,0.168-0.277,0.296-0.388c0.127-0.11,0.282-0.199,0.466-0.268
			c0.186-0.064,0.391-0.1,0.618-0.1c0.272,0,0.517,0.041,0.729,0.119c0.211,0.08,0.404,0.2,0.582,0.364L113.714,191.411z"/>
	</g>
	<g>
		<g>
			<g>
				<g>
					<path fill="#4798A1" d="M100.348,85.603L18.914,97.087C12.591,51.953,43.93,10.222,88.902,3.88
						c3.599-0.51,7.813-0.805,11.446-0.805V85.603z"/>
				</g>
			</g>
			<g>
				<g>
					<path fill="#5AC6D3" d="M99.977,84.997l15.626,80.416c-44.411,8.635-87.414-20.372-96.043-64.784
						c-0.346-1.775-0.457-2.437-0.709-4.23L99.977,84.997z"/>
				</g>
			</g>
			<g>
				<g>
					<path fill="#A0DAE2" d="M99.977,84.997l35.968,73.745c-6.518,3.179-13.196,5.415-20.314,6.798L99.977,84.997z"/>
				</g>
			</g>
			<g>
				<g>
					<path fill="#245055" d="M99.977,84.997V3.075c45.244,0,81.919,36.678,81.919,81.922c0,32.577-16.729,59.353-46.008,73.629
						L99.977,84.997z"/>
				</g>
			</g>
		</g>
	</g>
	<circle fill="#FFFFFF" cx="100.159" cy="85.006" r="49.133"/>
	<g>
		<text transform="matrix(1 0 0 1 74.0747 84.2256)" fill="#5AC6D3" font-family="'Lato-Bold'" font-size="32.9785">740</text>
	</g>
	<g>
		<g enable-background="new    ">
			<path fill="#231F20" d="M87.433,94.02c-0.027,0.055-0.07,0.082-0.128,0.082c-0.043,0-0.099-0.024-0.167-0.073
				s-0.158-0.104-0.27-0.164c-0.111-0.061-0.248-0.115-0.41-0.164s-0.36-0.073-0.594-0.073c-0.211,0-0.403,0.03-0.577,0.091
				c-0.174,0.061-0.322,0.142-0.445,0.242c-0.123,0.102-0.219,0.219-0.287,0.354c-0.068,0.134-0.103,0.275-0.103,0.423
				c0,0.184,0.047,0.335,0.141,0.456c0.094,0.12,0.217,0.224,0.369,0.31c0.152,0.085,0.325,0.159,0.519,0.222
				c0.193,0.062,0.391,0.125,0.594,0.188c0.203,0.062,0.401,0.131,0.594,0.207c0.193,0.076,0.366,0.171,0.518,0.284
				s0.275,0.252,0.369,0.416s0.141,0.363,0.141,0.597c0,0.254-0.046,0.49-0.138,0.709s-0.224,0.407-0.398,0.567
				s-0.388,0.287-0.641,0.381c-0.254,0.094-0.542,0.141-0.867,0.141c-0.41,0-0.763-0.065-1.06-0.196
				c-0.297-0.131-0.562-0.302-0.796-0.513l0.135-0.198c0.02-0.031,0.041-0.055,0.064-0.07s0.057-0.023,0.1-0.023
				c0.051,0,0.113,0.031,0.187,0.094s0.171,0.13,0.29,0.201c0.119,0.072,0.267,0.14,0.445,0.202s0.397,0.094,0.659,0.094
				c0.246,0,0.463-0.034,0.65-0.103c0.188-0.068,0.344-0.161,0.468-0.277c0.125-0.117,0.22-0.255,0.284-0.413
				s0.097-0.325,0.097-0.501c0-0.195-0.047-0.356-0.141-0.485s-0.217-0.238-0.369-0.328c-0.152-0.09-0.325-0.166-0.518-0.229
				c-0.193-0.062-0.393-0.125-0.598-0.188c-0.205-0.062-0.404-0.131-0.597-0.205c-0.193-0.073-0.366-0.167-0.518-0.28
				s-0.275-0.251-0.369-0.413s-0.141-0.364-0.141-0.606c0-0.206,0.045-0.405,0.135-0.597s0.217-0.359,0.383-0.504
				s0.368-0.26,0.606-0.345c0.238-0.086,0.505-0.129,0.802-0.129c0.355,0,0.67,0.051,0.945,0.154
				c0.275,0.103,0.528,0.26,0.758,0.472L87.433,94.02z"/>
			<path fill="#231F20" d="M89.669,93.294v3.724c0,0.546,0.125,0.975,0.376,1.285c0.25,0.31,0.632,0.465,1.146,0.465
				c0.38,0,0.734-0.097,1.063-0.289c0.329-0.193,0.625-0.462,0.887-0.806v-4.379h0.557v5.825h-0.307
				c-0.108,0-0.164-0.051-0.168-0.152l-0.053-0.866c-0.27,0.336-0.582,0.604-0.935,0.808c-0.354,0.203-0.748,0.305-1.182,0.305
				c-0.324,0-0.608-0.051-0.85-0.152s-0.443-0.248-0.604-0.439c-0.16-0.19-0.281-0.421-0.363-0.69s-0.123-0.574-0.123-0.913v-3.724
				H89.669z"/>
			<path fill="#231F20" d="M95.595,99.119v-5.825h0.292c0.066,0,0.114,0.014,0.144,0.041s0.046,0.074,0.05,0.14l0.047,1.229
				c0.187-0.472,0.437-0.842,0.75-1.109c0.312-0.267,0.696-0.4,1.153-0.4c0.175,0,0.337,0.019,0.486,0.056s0.289,0.091,0.421,0.16
				l-0.076,0.387c-0.012,0.062-0.051,0.094-0.117,0.094c-0.023,0-0.057-0.008-0.1-0.023s-0.097-0.033-0.161-0.053
				s-0.144-0.037-0.237-0.053c-0.093-0.016-0.201-0.023-0.322-0.023c-0.441,0-0.803,0.137-1.086,0.41
				c-0.283,0.273-0.513,0.667-0.688,1.183v3.788H95.595z"/>
			<path fill="#231F20" d="M102.392,99.119H101.9l-2.459-5.825h0.439c0.055,0,0.099,0.015,0.132,0.044s0.058,0.061,0.073,0.096
				l1.921,4.597c0.039,0.09,0.068,0.176,0.088,0.258s0.038,0.164,0.059,0.245c0.019-0.081,0.039-0.164,0.061-0.248
				s0.05-0.169,0.085-0.255l1.933-4.597c0.02-0.042,0.045-0.076,0.078-0.102s0.074-0.038,0.121-0.038h0.421L102.392,99.119z"/>
			<path fill="#231F20" d="M108.036,93.2c0.328,0,0.632,0.057,0.911,0.169c0.278,0.113,0.521,0.278,0.726,0.495
				c0.204,0.217,0.364,0.483,0.479,0.799c0.115,0.316,0.173,0.68,0.173,1.09c0,0.086-0.013,0.145-0.038,0.175
				c-0.025,0.032-0.064,0.047-0.119,0.047h-4.205v0.111c0,0.438,0.051,0.822,0.152,1.153c0.102,0.332,0.246,0.61,0.434,0.835
				s0.414,0.394,0.68,0.506c0.266,0.113,0.562,0.17,0.89,0.17c0.292,0,0.546-0.032,0.761-0.097s0.396-0.136,0.542-0.216
				s0.263-0.152,0.349-0.217s0.148-0.097,0.188-0.097c0.051,0,0.09,0.02,0.117,0.059l0.152,0.188
				c-0.094,0.116-0.219,0.226-0.373,0.327s-0.325,0.188-0.515,0.261s-0.392,0.13-0.608,0.173s-0.435,0.064-0.653,0.064
				c-0.397,0-0.761-0.069-1.089-0.208s-0.609-0.341-0.844-0.605c-0.235-0.266-0.416-0.591-0.545-0.976
				c-0.129-0.384-0.192-0.824-0.192-1.32c0-0.417,0.06-0.803,0.179-1.156c0.119-0.353,0.291-0.657,0.516-0.913
				s0.499-0.456,0.825-0.601C107.252,93.272,107.623,93.2,108.036,93.2z M108.045,93.615c-0.301,0-0.569,0.047-0.807,0.141
				c-0.238,0.094-0.443,0.229-0.617,0.404s-0.313,0.387-0.421,0.632c-0.106,0.246-0.179,0.521-0.214,0.826h3.836
				c0-0.312-0.043-0.593-0.129-0.841c-0.086-0.247-0.207-0.457-0.362-0.629c-0.156-0.172-0.343-0.304-0.562-0.396
				S108.31,93.615,108.045,93.615z"/>
			<path fill="#231F20" d="M112.989,100.993c-0.023,0.054-0.054,0.099-0.091,0.134s-0.091,0.053-0.161,0.053h-0.397l1.023-2.277
				l-2.465-5.608h0.463c0.059,0,0.104,0.015,0.138,0.044s0.058,0.061,0.073,0.096l1.961,4.532c0.023,0.059,0.045,0.118,0.062,0.179
				s0.033,0.122,0.049,0.185c0.02-0.062,0.04-0.124,0.062-0.185s0.044-0.12,0.067-0.179l1.938-4.532
				c0.02-0.042,0.047-0.076,0.082-0.102s0.074-0.038,0.117-0.038h0.428L112.989,100.993z"/>
		</g>
		<g enable-background="new    ">
			<path fill="#231F20" d="M69.667,113.431v-5.825h0.292c0.066,0,0.114,0.014,0.144,0.041s0.046,0.074,0.05,0.14l0.047,1.229
				c0.187-0.472,0.437-0.842,0.75-1.109c0.312-0.267,0.696-0.4,1.153-0.4c0.175,0,0.337,0.019,0.486,0.056s0.289,0.091,0.421,0.16
				l-0.076,0.387c-0.012,0.062-0.051,0.094-0.117,0.094c-0.023,0-0.057-0.008-0.1-0.023s-0.097-0.033-0.161-0.053
				s-0.144-0.037-0.237-0.053c-0.093-0.016-0.201-0.023-0.322-0.023c-0.441,0-0.803,0.137-1.086,0.41
				c-0.283,0.273-0.513,0.667-0.688,1.183v3.788H69.667z"/>
			<path fill="#231F20" d="M76.51,107.512c0.328,0,0.631,0.057,0.911,0.169c0.279,0.113,0.521,0.278,0.726,0.495
				c0.205,0.217,0.365,0.483,0.48,0.799c0.115,0.316,0.172,0.68,0.172,1.09c0,0.086-0.013,0.145-0.038,0.175
				c-0.025,0.032-0.065,0.047-0.12,0.047h-4.204v0.111c0,0.438,0.051,0.822,0.152,1.153c0.102,0.332,0.246,0.61,0.433,0.835
				c0.188,0.225,0.414,0.394,0.679,0.506c0.266,0.113,0.562,0.17,0.89,0.17c0.292,0,0.546-0.032,0.761-0.097
				c0.214-0.064,0.395-0.136,0.542-0.216s0.262-0.152,0.348-0.217s0.148-0.097,0.188-0.097c0.051,0,0.09,0.02,0.117,0.059
				l0.152,0.188c-0.094,0.116-0.218,0.226-0.372,0.327s-0.326,0.188-0.515,0.261s-0.392,0.13-0.609,0.173s-0.434,0.064-0.653,0.064
				c-0.398,0-0.761-0.069-1.089-0.208c-0.328-0.139-0.609-0.341-0.844-0.605c-0.235-0.266-0.416-0.591-0.544-0.976
				c-0.128-0.384-0.192-0.824-0.192-1.32c0-0.417,0.06-0.803,0.179-1.156c0.119-0.353,0.291-0.657,0.515-0.913
				s0.5-0.456,0.826-0.601C75.727,107.584,76.097,107.512,76.51,107.512z M76.519,107.927c-0.3,0-0.569,0.047-0.807,0.141
				s-0.443,0.229-0.617,0.404s-0.313,0.387-0.421,0.632c-0.107,0.246-0.178,0.521-0.213,0.826h3.835
				c0-0.312-0.043-0.593-0.128-0.841c-0.086-0.247-0.207-0.457-0.362-0.629c-0.156-0.172-0.343-0.304-0.562-0.396
				S76.784,107.927,76.519,107.927z"/>
			<path fill="#231F20" d="M83.507,108.331c-0.027,0.055-0.07,0.082-0.128,0.082c-0.043,0-0.099-0.024-0.167-0.073
				s-0.158-0.104-0.27-0.164c-0.111-0.061-0.248-0.115-0.41-0.164s-0.36-0.073-0.594-0.073c-0.211,0-0.403,0.03-0.577,0.091
				c-0.174,0.061-0.322,0.142-0.445,0.242c-0.123,0.102-0.219,0.219-0.287,0.354c-0.068,0.134-0.103,0.275-0.103,0.423
				c0,0.184,0.047,0.335,0.141,0.456c0.094,0.12,0.217,0.224,0.369,0.31c0.152,0.085,0.325,0.159,0.519,0.222
				c0.193,0.062,0.391,0.125,0.594,0.188c0.203,0.062,0.401,0.131,0.594,0.207c0.193,0.076,0.366,0.171,0.518,0.284
				s0.275,0.252,0.369,0.416s0.141,0.363,0.141,0.597c0,0.254-0.046,0.49-0.138,0.709s-0.224,0.407-0.398,0.567
				s-0.388,0.287-0.641,0.381c-0.254,0.094-0.542,0.141-0.867,0.141c-0.41,0-0.763-0.065-1.06-0.196
				c-0.297-0.131-0.562-0.302-0.796-0.513l0.135-0.198c0.02-0.031,0.041-0.055,0.064-0.07s0.057-0.023,0.1-0.023
				c0.051,0,0.113,0.031,0.187,0.094s0.171,0.13,0.29,0.201c0.119,0.072,0.267,0.14,0.445,0.202s0.397,0.094,0.659,0.094
				c0.246,0,0.463-0.034,0.65-0.103c0.188-0.068,0.344-0.161,0.468-0.277c0.125-0.117,0.22-0.255,0.284-0.413
				s0.097-0.325,0.097-0.501c0-0.195-0.047-0.356-0.141-0.485s-0.217-0.238-0.369-0.328c-0.152-0.09-0.325-0.166-0.518-0.229
				c-0.193-0.062-0.393-0.125-0.598-0.188c-0.205-0.062-0.404-0.131-0.597-0.205c-0.193-0.073-0.366-0.167-0.518-0.28
				s-0.275-0.251-0.369-0.413S80,109.328,80,109.086c0-0.206,0.045-0.405,0.135-0.597s0.217-0.359,0.383-0.504
				s0.368-0.26,0.606-0.345c0.238-0.086,0.505-0.129,0.802-0.129c0.355,0,0.67,0.051,0.945,0.154
				c0.275,0.103,0.528,0.26,0.758,0.472L83.507,108.331z"/>
			<path fill="#231F20" d="M85.334,115.491v-7.886h0.304c0.051,0,0.092,0.011,0.123,0.032s0.049,0.06,0.053,0.113l0.053,0.902
				c0.257-0.352,0.559-0.631,0.904-0.838c0.346-0.206,0.733-0.31,1.162-0.31c0.718,0,1.276,0.248,1.675,0.743
				c0.398,0.496,0.597,1.239,0.597,2.23c0,0.426-0.056,0.823-0.167,1.191c-0.111,0.369-0.274,0.689-0.489,0.961
				c-0.215,0.271-0.479,0.484-0.793,0.641c-0.314,0.156-0.676,0.234-1.086,0.234c-0.398,0-0.742-0.072-1.031-0.217
				c-0.289-0.145-0.539-0.359-0.749-0.644v2.845H85.334z M87.775,107.956c-0.387,0-0.737,0.101-1.051,0.302
				c-0.314,0.201-0.592,0.481-0.834,0.84v3.057c0.222,0.336,0.469,0.572,0.74,0.708c0.271,0.137,0.581,0.205,0.928,0.205
				c0.343,0,0.644-0.062,0.902-0.188c0.257-0.124,0.473-0.301,0.647-0.529c0.173-0.229,0.304-0.502,0.392-0.82
				c0.088-0.317,0.132-0.668,0.132-1.051c0-0.866-0.159-1.503-0.477-1.911C88.836,108.16,88.376,107.956,87.775,107.956z"/>
			<path fill="#231F20" d="M93.817,107.512c0.417,0,0.792,0.071,1.121,0.213c0.33,0.143,0.608,0.345,0.834,0.606
				s0.399,0.577,0.518,0.945c0.119,0.369,0.179,0.782,0.179,1.238c0,0.457-0.06,0.869-0.179,1.235
				c-0.119,0.367-0.292,0.682-0.518,0.943c-0.227,0.261-0.504,0.462-0.834,0.603c-0.33,0.141-0.704,0.211-1.121,0.211
				s-0.792-0.07-1.121-0.211c-0.33-0.141-0.609-0.342-0.837-0.603c-0.229-0.262-0.402-0.576-0.521-0.943
				c-0.119-0.366-0.179-0.778-0.179-1.235c0-0.456,0.06-0.869,0.179-1.238c0.119-0.368,0.292-0.684,0.521-0.945
				s0.507-0.464,0.837-0.606C93.025,107.583,93.399,107.512,93.817,107.512z M93.817,113.067c0.347,0,0.651-0.06,0.911-0.179
				c0.259-0.118,0.476-0.289,0.65-0.512c0.173-0.223,0.303-0.491,0.389-0.806c0.086-0.313,0.129-0.666,0.129-1.057
				c0-0.386-0.043-0.737-0.129-1.054s-0.216-0.586-0.389-0.811c-0.174-0.225-0.391-0.397-0.65-0.519
				c-0.26-0.121-0.563-0.182-0.911-0.182c-0.348,0-0.651,0.061-0.911,0.182c-0.259,0.121-0.476,0.294-0.65,0.519
				c-0.173,0.225-0.304,0.494-0.392,0.811s-0.132,0.668-0.132,1.054c0,0.391,0.044,0.743,0.132,1.057
				c0.088,0.314,0.219,0.583,0.392,0.806c0.174,0.223,0.391,0.394,0.65,0.512C93.166,113.008,93.469,113.067,93.817,113.067z"/>
			<path fill="#231F20" d="M97.933,113.431v-5.825h0.304c0.102,0,0.16,0.049,0.176,0.146l0.053,0.879
				c0.265-0.336,0.575-0.606,0.928-0.812c0.354-0.204,0.747-0.307,1.18-0.307c0.32,0,0.603,0.051,0.847,0.152
				c0.244,0.101,0.445,0.247,0.605,0.438s0.281,0.422,0.363,0.691c0.082,0.269,0.123,0.573,0.123,0.913v3.724h-0.557v-3.724
				c0-0.547-0.125-0.975-0.375-1.285s-0.632-0.466-1.147-0.466c-0.383,0-0.738,0.099-1.066,0.296
				c-0.328,0.197-0.621,0.468-0.878,0.811v4.368H97.933z"/>
			<path fill="#231F20" d="M108.399,113.431c-0.097,0-0.152-0.051-0.168-0.152l-0.059-0.919c-0.259,0.352-0.56,0.63-0.905,0.837
				c-0.347,0.207-0.734,0.311-1.164,0.311c-0.715,0-1.273-0.248-1.674-0.743c-0.4-0.496-0.602-1.239-0.602-2.231
				c0-0.425,0.057-0.822,0.168-1.191s0.275-0.688,0.492-0.96s0.482-0.485,0.797-0.642c0.314-0.155,0.678-0.233,1.088-0.233
				c0.395,0,0.736,0.073,1.025,0.219c0.29,0.146,0.54,0.36,0.751,0.642v-3.454h0.557v8.519H108.399z M106.262,113.056
				c0.387,0,0.736-0.1,1.049-0.298c0.313-0.199,0.593-0.477,0.839-0.832v-3.073c-0.227-0.332-0.476-0.566-0.747-0.703
				s-0.58-0.205-0.924-0.205s-0.645,0.062-0.903,0.188c-0.258,0.125-0.474,0.302-0.647,0.53s-0.305,0.501-0.394,0.819
				c-0.088,0.318-0.132,0.669-0.132,1.051c0,0.867,0.16,1.504,0.48,1.912C105.204,112.852,105.663,113.056,106.262,113.056z"/>
			<path fill="#231F20" d="M112.857,107.512c0.328,0,0.631,0.057,0.91,0.169c0.279,0.113,0.521,0.278,0.727,0.495
				c0.204,0.217,0.364,0.483,0.479,0.799c0.114,0.316,0.173,0.68,0.173,1.09c0,0.086-0.014,0.145-0.038,0.175
				c-0.025,0.032-0.065,0.047-0.12,0.047h-4.204v0.111c0,0.438,0.051,0.822,0.152,1.153c0.102,0.332,0.246,0.61,0.433,0.835
				c0.188,0.225,0.414,0.394,0.68,0.506c0.266,0.113,0.562,0.17,0.891,0.17c0.292,0,0.546-0.032,0.761-0.097
				c0.214-0.064,0.396-0.136,0.542-0.216s0.262-0.152,0.348-0.217s0.148-0.097,0.188-0.097c0.051,0,0.09,0.02,0.117,0.059
				l0.152,0.188c-0.094,0.116-0.218,0.226-0.372,0.327s-0.325,0.188-0.515,0.261s-0.393,0.13-0.609,0.173s-0.434,0.064-0.652,0.064
				c-0.398,0-0.762-0.069-1.09-0.208s-0.609-0.341-0.844-0.605c-0.234-0.266-0.416-0.591-0.545-0.976
				c-0.128-0.384-0.191-0.824-0.191-1.32c0-0.417,0.059-0.803,0.178-1.156c0.119-0.353,0.291-0.657,0.516-0.913
				s0.5-0.456,0.826-0.601C112.073,107.584,112.443,107.512,112.857,107.512z M112.865,107.927c-0.3,0-0.568,0.047-0.807,0.141
				s-0.443,0.229-0.617,0.404c-0.173,0.176-0.312,0.387-0.42,0.632c-0.107,0.246-0.179,0.521-0.214,0.826h3.835
				c0-0.312-0.043-0.593-0.129-0.841c-0.086-0.247-0.206-0.457-0.361-0.629c-0.156-0.172-0.344-0.304-0.562-0.396
				C113.372,107.973,113.131,107.927,112.865,107.927z"/>
			<path fill="#231F20" d="M116.645,113.431v-5.825h0.305c0.102,0,0.16,0.049,0.176,0.146l0.053,0.879
				c0.266-0.336,0.574-0.606,0.928-0.812c0.354-0.204,0.746-0.307,1.18-0.307c0.32,0,0.602,0.051,0.846,0.152
				c0.244,0.101,0.446,0.247,0.606,0.438s0.281,0.422,0.363,0.691c0.081,0.269,0.122,0.573,0.122,0.913v3.724h-0.556v-3.724
				c0-0.547-0.125-0.975-0.374-1.285c-0.25-0.311-0.633-0.466-1.148-0.466c-0.383,0-0.737,0.099-1.065,0.296
				c-0.327,0.197-0.62,0.468-0.878,0.811v4.368H116.645z"/>
			<path fill="#231F20" d="M124.566,113.524c-0.395,0-0.701-0.109-0.92-0.328c-0.218-0.219-0.327-0.556-0.327-1.013v-3.981h-0.837
				c-0.043,0-0.078-0.012-0.105-0.035s-0.041-0.057-0.041-0.1v-0.217l0.995-0.07l0.14-2.084c0.004-0.035,0.018-0.066,0.043-0.094
				s0.059-0.041,0.102-0.041h0.26v2.225h1.833v0.416h-1.833v3.952c0,0.16,0.021,0.298,0.062,0.413s0.098,0.21,0.17,0.283
				c0.072,0.074,0.156,0.129,0.254,0.164s0.203,0.053,0.316,0.053c0.141,0,0.262-0.021,0.363-0.062s0.189-0.086,0.264-0.135
				c0.074-0.048,0.135-0.093,0.182-0.134s0.083-0.062,0.11-0.062c0.031,0,0.062,0.02,0.094,0.059l0.152,0.245
				c-0.148,0.164-0.337,0.296-0.565,0.396S124.812,113.524,124.566,113.524z"/>
			<path fill="#231F20" d="M130.362,108.331c-0.027,0.055-0.069,0.082-0.128,0.082c-0.043,0-0.1-0.024-0.168-0.073
				s-0.158-0.104-0.27-0.164c-0.11-0.061-0.247-0.115-0.409-0.164s-0.36-0.073-0.595-0.073c-0.211,0-0.402,0.03-0.576,0.091
				s-0.322,0.142-0.445,0.242c-0.123,0.102-0.219,0.219-0.287,0.354c-0.068,0.134-0.102,0.275-0.102,0.423
				c0,0.184,0.047,0.335,0.141,0.456c0.094,0.12,0.217,0.224,0.368,0.31c0.152,0.085,0.325,0.159,0.519,0.222
				s0.391,0.125,0.594,0.188c0.203,0.062,0.401,0.131,0.595,0.207c0.192,0.076,0.366,0.171,0.519,0.284s0.274,0.252,0.368,0.416
				s0.141,0.363,0.141,0.597c0,0.254-0.046,0.49-0.138,0.709s-0.225,0.407-0.398,0.567s-0.387,0.287-0.641,0.381
				s-0.543,0.141-0.867,0.141c-0.409,0-0.763-0.065-1.059-0.196c-0.297-0.131-0.562-0.302-0.797-0.513l0.135-0.198
				c0.02-0.031,0.041-0.055,0.064-0.07s0.057-0.023,0.1-0.023c0.051,0,0.113,0.031,0.188,0.094s0.17,0.13,0.289,0.201
				c0.119,0.072,0.268,0.14,0.445,0.202s0.397,0.094,0.658,0.094c0.246,0,0.463-0.034,0.65-0.103s0.344-0.161,0.469-0.277
				c0.125-0.117,0.219-0.255,0.283-0.413s0.098-0.325,0.098-0.501c0-0.195-0.047-0.356-0.141-0.485s-0.217-0.238-0.369-0.328
				s-0.325-0.166-0.518-0.229c-0.193-0.062-0.393-0.125-0.598-0.188s-0.404-0.131-0.598-0.205c-0.193-0.073-0.365-0.167-0.518-0.28
				s-0.275-0.251-0.369-0.413s-0.141-0.364-0.141-0.606c0-0.206,0.045-0.405,0.135-0.597s0.217-0.359,0.383-0.504
				s0.369-0.26,0.606-0.345c0.238-0.086,0.505-0.129,0.802-0.129c0.355,0,0.671,0.051,0.945,0.154
				c0.275,0.103,0.529,0.26,0.759,0.472L130.362,108.331z"/>
		</g>
	</g>
	<g enable-background="new    ">
		<path fill="#FFFFFF" d="M41.554,39.386h1.269v-4.484c0-0.088,0.004-0.182,0.012-0.281l-1.218,1.082
			c-0.026,0.023-0.057,0.035-0.094,0.035c-0.044,0-0.078-0.016-0.102-0.047l-0.113-0.156l1.596-1.41h0.289v5.262h1.206v0.285h-2.846
			V39.386z"/>
		<path fill="#FFFFFF" d="M47.139,39.733c-0.265,0-0.508-0.035-0.728-0.105c-0.22-0.07-0.409-0.172-0.566-0.305
			c-0.157-0.133-0.28-0.293-0.369-0.479c-0.088-0.188-0.133-0.398-0.133-0.633c0-0.203,0.029-0.384,0.088-0.542
			c0.059-0.159,0.141-0.297,0.248-0.414c0.106-0.117,0.233-0.215,0.38-0.293s0.309-0.137,0.486-0.176
			c-0.161-0.047-0.304-0.11-0.429-0.191c-0.125-0.08-0.229-0.177-0.314-0.288c-0.085-0.112-0.149-0.236-0.193-0.373
			c-0.044-0.137-0.066-0.283-0.066-0.439c0-0.195,0.037-0.378,0.111-0.55s0.18-0.321,0.318-0.449
			c0.138-0.128,0.305-0.228,0.502-0.301c0.196-0.072,0.418-0.109,0.665-0.109c0.245,0,0.465,0.037,0.662,0.109
			c0.197,0.073,0.365,0.173,0.504,0.301s0.246,0.277,0.32,0.449s0.111,0.354,0.111,0.55c0,0.156-0.022,0.303-0.066,0.439
			s-0.109,0.261-0.195,0.373c-0.085,0.111-0.191,0.208-0.316,0.288c-0.125,0.081-0.268,0.145-0.429,0.191
			c0.177,0.039,0.339,0.098,0.486,0.176s0.274,0.176,0.38,0.293c0.107,0.117,0.19,0.255,0.25,0.414
			c0.06,0.158,0.09,0.339,0.09,0.542c0,0.234-0.044,0.445-0.133,0.633c-0.088,0.187-0.211,0.347-0.369,0.479
			c-0.157,0.133-0.346,0.234-0.566,0.305C47.647,39.698,47.405,39.733,47.139,39.733z M47.139,39.437
			c0.211,0,0.403-0.029,0.576-0.088c0.173-0.059,0.322-0.142,0.447-0.25c0.125-0.107,0.221-0.237,0.289-0.388
			c0.068-0.151,0.102-0.319,0.102-0.504c0-0.242-0.044-0.443-0.132-0.604c-0.089-0.162-0.202-0.29-0.34-0.387
			s-0.29-0.165-0.457-0.205s-0.328-0.061-0.484-0.061c-0.156,0-0.317,0.021-0.484,0.061s-0.319,0.108-0.457,0.205
			c-0.138,0.097-0.251,0.225-0.34,0.387c-0.088,0.161-0.132,0.362-0.132,0.604c0,0.185,0.034,0.353,0.102,0.504
			c0.067,0.15,0.163,0.28,0.287,0.388c0.124,0.108,0.272,0.191,0.447,0.25S46.929,39.437,47.139,39.437z M47.139,36.649
			c0.211,0,0.394-0.031,0.549-0.096c0.155-0.063,0.283-0.149,0.384-0.257c0.102-0.108,0.176-0.231,0.225-0.369
			c0.048-0.138,0.072-0.281,0.072-0.43c0-0.158-0.027-0.307-0.082-0.442c-0.055-0.137-0.135-0.256-0.24-0.357
			s-0.234-0.181-0.386-0.238c-0.152-0.058-0.326-0.086-0.521-0.086c-0.195,0-0.369,0.028-0.523,0.086
			c-0.153,0.058-0.283,0.137-0.388,0.238s-0.186,0.221-0.24,0.357c-0.055,0.136-0.082,0.284-0.082,0.442
			c0,0.148,0.024,0.292,0.072,0.43c0.048,0.138,0.123,0.261,0.225,0.369c0.102,0.107,0.229,0.193,0.384,0.257
			C46.742,36.618,46.926,36.649,47.139,36.649z"/>
		<path fill="#FFFFFF" d="M49.793,37.196h1.815v0.316h-1.815V37.196z"/>
		<path fill="#FFFFFF" d="M54.348,34.085c0.211,0,0.412,0.031,0.603,0.092c0.191,0.062,0.36,0.154,0.506,0.277
			c0.146,0.124,0.261,0.278,0.347,0.465c0.086,0.186,0.129,0.403,0.129,0.653c0,0.208-0.032,0.401-0.096,0.58
			c-0.064,0.178-0.15,0.349-0.26,0.513c-0.109,0.164-0.236,0.323-0.38,0.479s-0.296,0.312-0.455,0.475l-1.729,1.764
			c0.083-0.021,0.17-0.036,0.26-0.047c0.09-0.01,0.18-0.016,0.271-0.016h2.385c0.042,0,0.075,0.013,0.1,0.037
			c0.024,0.025,0.037,0.057,0.037,0.096v0.219h-3.564v-0.133c0-0.028,0.007-0.058,0.021-0.088c0.014-0.029,0.032-0.055,0.053-0.076
			l1.885-1.908c0.156-0.159,0.301-0.312,0.434-0.461c0.132-0.148,0.248-0.298,0.345-0.449c0.098-0.15,0.174-0.306,0.23-0.464
			c0.056-0.159,0.083-0.328,0.083-0.508c0-0.203-0.034-0.379-0.101-0.528c-0.068-0.15-0.158-0.273-0.271-0.369
			c-0.113-0.097-0.243-0.168-0.39-0.215s-0.301-0.07-0.463-0.07c-0.174,0-0.335,0.026-0.482,0.08s-0.277,0.128-0.39,0.223
			s-0.207,0.208-0.281,0.34c-0.074,0.131-0.125,0.274-0.154,0.431c-0.026,0.092-0.078,0.137-0.156,0.137
			c-0.005,0-0.012,0-0.02-0.002c-0.008-0.001-0.015-0.002-0.02-0.002l-0.188-0.031c0.031-0.236,0.096-0.447,0.193-0.632
			c0.098-0.186,0.22-0.341,0.369-0.469s0.32-0.225,0.515-0.291C53.911,34.118,54.122,34.085,54.348,34.085z"/>
		<path fill="#FFFFFF" d="M59.879,37.789h1.011v0.203c0,0.029-0.008,0.052-0.025,0.068c-0.017,0.018-0.043,0.025-0.08,0.025h-0.905
			v1.585h-0.336v-1.585H56.94c-0.039,0-0.069-0.008-0.09-0.025c-0.021-0.017-0.035-0.039-0.042-0.068l-0.035-0.184l2.775-3.669
			h0.332V37.789z M59.543,34.897c0-0.045,0.001-0.092,0.004-0.141c0.003-0.05,0.008-0.101,0.016-0.152l-2.385,3.185h2.365V34.897z"
			/>
	</g>
	<g enable-background="new    ">
		<path fill="#FFFFFF" d="M45.529,46.947c0.211,0,0.412,0.031,0.603,0.092c0.191,0.062,0.36,0.154,0.506,0.277
			c0.146,0.124,0.261,0.278,0.347,0.465c0.086,0.186,0.129,0.403,0.129,0.653c0,0.208-0.032,0.401-0.096,0.58
			c-0.064,0.178-0.15,0.349-0.26,0.513c-0.109,0.164-0.236,0.323-0.38,0.479s-0.296,0.312-0.455,0.475l-1.729,1.764
			c0.083-0.021,0.17-0.036,0.26-0.047c0.09-0.01,0.18-0.016,0.271-0.016h2.385c0.042,0,0.075,0.013,0.1,0.037
			c0.024,0.025,0.037,0.057,0.037,0.096v0.219h-3.564V52.4c0-0.028,0.007-0.058,0.021-0.088c0.014-0.029,0.032-0.055,0.053-0.076
			l1.885-1.908c0.156-0.159,0.301-0.312,0.434-0.461c0.132-0.148,0.248-0.298,0.345-0.449c0.098-0.15,0.174-0.306,0.23-0.464
			c0.056-0.159,0.083-0.328,0.083-0.508c0-0.203-0.034-0.379-0.101-0.528c-0.068-0.15-0.158-0.273-0.271-0.369
			c-0.113-0.097-0.243-0.168-0.39-0.215s-0.301-0.07-0.463-0.07c-0.174,0-0.335,0.026-0.482,0.08s-0.277,0.128-0.39,0.223
			s-0.207,0.208-0.281,0.34c-0.074,0.131-0.125,0.274-0.154,0.431c-0.026,0.092-0.078,0.137-0.156,0.137
			c-0.005,0-0.012,0-0.02-0.002c-0.008-0.001-0.015-0.002-0.02-0.002l-0.188-0.031c0.031-0.236,0.096-0.447,0.193-0.632
			c0.098-0.186,0.22-0.341,0.369-0.469s0.32-0.225,0.515-0.291C45.092,46.98,45.303,46.947,45.529,46.947z"/>
		<path fill="#FFFFFF" d="M51.888,47.01v0.168c0,0.044-0.005,0.083-0.014,0.115c-0.009,0.032-0.021,0.061-0.033,0.084l-2.533,5.016
			c-0.021,0.042-0.049,0.075-0.084,0.102s-0.082,0.039-0.139,0.039h-0.254l2.549-4.996c0.034-0.067,0.074-0.129,0.121-0.184h-3.185
			c-0.029,0-0.053-0.011-0.072-0.031s-0.029-0.046-0.029-0.074V47.01H51.888z"/>
		<path fill="#FFFFFF" d="M54.897,48.337c0,0.227-0.031,0.427-0.094,0.6s-0.147,0.316-0.254,0.431
			c-0.106,0.115-0.23,0.201-0.371,0.26s-0.289,0.088-0.445,0.088c-0.162,0-0.313-0.029-0.455-0.088
			c-0.142-0.059-0.265-0.145-0.369-0.26c-0.104-0.114-0.186-0.258-0.246-0.431c-0.06-0.173-0.09-0.373-0.09-0.6
			c0-0.229,0.03-0.431,0.09-0.604c0.06-0.175,0.142-0.319,0.246-0.436c0.104-0.115,0.227-0.203,0.369-0.262
			c0.142-0.059,0.293-0.088,0.455-0.088c0.161,0,0.312,0.029,0.453,0.088s0.264,0.146,0.369,0.262
			c0.105,0.116,0.189,0.261,0.25,0.436C54.867,47.906,54.897,48.108,54.897,48.337z M54.601,48.337c0-0.2-0.022-0.372-0.068-0.515
			c-0.045-0.144-0.108-0.261-0.187-0.354c-0.08-0.093-0.172-0.16-0.277-0.203s-0.217-0.064-0.333-0.064
			c-0.117,0-0.228,0.021-0.332,0.064s-0.195,0.11-0.273,0.203c-0.078,0.093-0.14,0.21-0.186,0.354
			c-0.045,0.143-0.068,0.314-0.068,0.515s0.023,0.372,0.068,0.514s0.107,0.258,0.186,0.35c0.078,0.091,0.169,0.157,0.273,0.2
			s0.215,0.064,0.332,0.064c0.117,0,0.228-0.021,0.333-0.064s0.198-0.109,0.277-0.2c0.079-0.092,0.142-0.208,0.187-0.35
			C54.578,48.709,54.601,48.537,54.601,48.337z M56.994,47.08c0.016-0.021,0.034-0.037,0.057-0.051
			c0.022-0.013,0.051-0.02,0.087-0.02h0.262l-3.966,5.453c-0.034,0.047-0.079,0.07-0.137,0.07h-0.265L56.994,47.08z M57.879,51.222
			c0,0.227-0.031,0.426-0.094,0.6c-0.062,0.173-0.146,0.316-0.251,0.431c-0.105,0.115-0.229,0.201-0.369,0.26
			c-0.14,0.059-0.289,0.088-0.445,0.088c-0.161,0-0.313-0.029-0.455-0.088c-0.142-0.059-0.265-0.145-0.369-0.26
			c-0.104-0.114-0.186-0.258-0.246-0.431c-0.06-0.174-0.09-0.373-0.09-0.6c0-0.229,0.03-0.431,0.09-0.605
			c0.06-0.174,0.142-0.319,0.246-0.435c0.104-0.116,0.227-0.203,0.369-0.262c0.142-0.059,0.293-0.088,0.455-0.088
			s0.312,0.029,0.453,0.088c0.141,0.059,0.264,0.146,0.369,0.262c0.105,0.115,0.188,0.261,0.248,0.435
			C57.85,50.791,57.879,50.993,57.879,51.222z M57.583,51.222c0-0.2-0.023-0.373-0.068-0.518c-0.045-0.144-0.107-0.263-0.186-0.354
			c-0.078-0.093-0.17-0.16-0.275-0.203c-0.105-0.043-0.217-0.064-0.334-0.064s-0.229,0.021-0.333,0.064
			c-0.105,0.043-0.197,0.11-0.275,0.203c-0.078,0.092-0.14,0.211-0.186,0.354c-0.045,0.145-0.068,0.317-0.068,0.518
			s0.023,0.371,0.068,0.514c0.045,0.142,0.107,0.258,0.186,0.349c0.078,0.092,0.17,0.158,0.275,0.199
			c0.105,0.042,0.216,0.062,0.333,0.062s0.229-0.021,0.334-0.062c0.105-0.041,0.197-0.107,0.275-0.199
			c0.078-0.091,0.14-0.207,0.186-0.349C57.56,51.593,57.583,51.422,57.583,51.222z"/>
	</g>
	<g enable-background="new    ">
		<path fill="#FFFFFF" d="M157.335,75.265c0.211,0,0.412,0.031,0.603,0.092c0.191,0.062,0.36,0.154,0.506,0.277
			c0.146,0.124,0.262,0.278,0.348,0.465c0.086,0.186,0.129,0.403,0.129,0.653c0,0.208-0.031,0.401-0.096,0.58
			c-0.064,0.178-0.15,0.349-0.26,0.513s-0.236,0.323-0.381,0.479s-0.295,0.312-0.454,0.475L156,80.562
			c0.084-0.021,0.17-0.036,0.26-0.047c0.09-0.01,0.18-0.016,0.271-0.016h2.385c0.041,0,0.074,0.013,0.1,0.037
			c0.024,0.025,0.037,0.057,0.037,0.096v0.219h-3.564v-0.133c0-0.028,0.008-0.058,0.021-0.088c0.015-0.029,0.032-0.055,0.053-0.076
			l1.886-1.908c0.156-0.159,0.301-0.312,0.434-0.461c0.132-0.148,0.247-0.298,0.345-0.449c0.098-0.15,0.175-0.306,0.23-0.464
			c0.057-0.159,0.084-0.328,0.084-0.508c0-0.203-0.033-0.379-0.102-0.528c-0.067-0.15-0.158-0.273-0.271-0.369
			c-0.113-0.097-0.242-0.168-0.39-0.215s-0.302-0.07-0.463-0.07c-0.175,0-0.335,0.026-0.481,0.08
			c-0.147,0.054-0.277,0.128-0.391,0.223s-0.207,0.208-0.281,0.34c-0.074,0.131-0.125,0.274-0.154,0.431
			c-0.025,0.092-0.078,0.137-0.156,0.137c-0.005,0-0.012,0-0.02-0.002c-0.008-0.001-0.014-0.002-0.02-0.002l-0.188-0.031
			c0.031-0.236,0.096-0.447,0.193-0.632c0.098-0.186,0.221-0.341,0.369-0.469s0.32-0.225,0.516-0.291S157.109,75.265,157.335,75.265
			z"/>
		<path fill="#FFFFFF" d="M163.283,75.487c0,0.052-0.018,0.096-0.053,0.131s-0.09,0.053-0.165,0.053h-1.999l-0.332,1.843
			c0.175-0.045,0.34-0.076,0.496-0.096s0.306-0.029,0.449-0.029c0.286,0,0.539,0.041,0.757,0.123
			c0.219,0.082,0.401,0.196,0.549,0.343c0.147,0.147,0.258,0.322,0.333,0.525c0.076,0.203,0.113,0.424,0.113,0.663
			c0,0.292-0.051,0.553-0.152,0.783s-0.238,0.426-0.411,0.587c-0.173,0.162-0.376,0.285-0.606,0.371
			c-0.232,0.086-0.479,0.129-0.738,0.129c-0.154,0-0.299-0.014-0.438-0.041c-0.138-0.027-0.268-0.063-0.391-0.109
			c-0.121-0.046-0.233-0.098-0.335-0.158c-0.102-0.06-0.191-0.121-0.27-0.184l0.109-0.152c0.026-0.039,0.063-0.059,0.113-0.059
			c0.034,0,0.083,0.02,0.146,0.059s0.146,0.082,0.245,0.129c0.101,0.047,0.219,0.09,0.355,0.129s0.297,0.059,0.479,0.059
			c0.213,0,0.412-0.034,0.598-0.104c0.184-0.068,0.345-0.168,0.481-0.298c0.137-0.131,0.243-0.291,0.32-0.482
			s0.115-0.408,0.115-0.65c0-0.197-0.029-0.38-0.088-0.546c-0.059-0.167-0.147-0.31-0.266-0.428s-0.269-0.211-0.448-0.277
			c-0.182-0.066-0.395-0.1-0.639-0.1c-0.148,0-0.307,0.012-0.473,0.035s-0.344,0.062-0.531,0.113l-0.241-0.074l0.433-2.447h2.482
			V75.487z"/>
		<path fill="#FFFFFF" d="M164.432,78.376h1.814v0.316h-1.814V78.376z"/>
		<path fill="#FFFFFF" d="M169.029,75.265c0.211,0,0.41,0.029,0.597,0.088c0.188,0.059,0.353,0.146,0.495,0.264
			c0.142,0.117,0.254,0.263,0.337,0.438c0.083,0.174,0.124,0.376,0.124,0.604c0,0.18-0.027,0.342-0.084,0.486
			c-0.056,0.145-0.133,0.271-0.23,0.381c-0.097,0.108-0.212,0.2-0.345,0.274s-0.277,0.131-0.433,0.17
			c0.405,0.076,0.711,0.232,0.918,0.471s0.311,0.535,0.311,0.892c0,0.227-0.045,0.437-0.137,0.631
			c-0.091,0.193-0.216,0.36-0.375,0.501c-0.158,0.141-0.346,0.251-0.562,0.33s-0.45,0.119-0.702,0.119
			c-0.314,0-0.577-0.042-0.787-0.127c-0.209-0.085-0.382-0.194-0.518-0.33c-0.135-0.135-0.24-0.286-0.315-0.454
			s-0.137-0.335-0.184-0.502l0.148-0.062c0.031-0.013,0.062-0.02,0.09-0.02s0.056,0.007,0.082,0.02s0.046,0.038,0.059,0.074
			l0.027,0.078c0.016,0.047,0.038,0.104,0.065,0.174c0.029,0.068,0.066,0.141,0.111,0.215c0.046,0.074,0.103,0.148,0.17,0.223
			c0.068,0.073,0.15,0.14,0.248,0.198s0.213,0.106,0.344,0.143c0.131,0.037,0.283,0.055,0.455,0.055
			c0.234,0,0.439-0.039,0.614-0.117c0.176-0.078,0.323-0.178,0.441-0.298c0.118-0.121,0.206-0.257,0.265-0.406
			s0.088-0.295,0.088-0.436c0-0.169-0.025-0.326-0.08-0.472c-0.053-0.146-0.142-0.271-0.267-0.377s-0.29-0.188-0.493-0.25
			c-0.205-0.062-0.457-0.092-0.756-0.092v-0.27c0.239-0.005,0.45-0.037,0.633-0.096c0.182-0.059,0.334-0.139,0.456-0.239
			c0.122-0.102,0.215-0.223,0.277-0.363s0.093-0.296,0.093-0.465c0-0.195-0.031-0.364-0.097-0.507
			c-0.065-0.144-0.152-0.262-0.262-0.355s-0.237-0.163-0.382-0.207c-0.146-0.044-0.299-0.066-0.457-0.066
			c-0.175,0-0.335,0.026-0.48,0.078s-0.274,0.125-0.387,0.219c-0.111,0.094-0.205,0.206-0.281,0.338
			c-0.075,0.131-0.131,0.277-0.168,0.438c-0.02,0.092-0.068,0.137-0.144,0.137c-0.019,0-0.032-0.001-0.043-0.004l-0.191-0.031
			c0.034-0.236,0.099-0.447,0.195-0.632c0.097-0.186,0.218-0.341,0.366-0.469s0.32-0.225,0.516-0.291S168.803,75.265,169.029,75.265
			z"/>
		<path fill="#FFFFFF" d="M174.518,78.969h1.01v0.203c0,0.029-0.008,0.052-0.025,0.068c-0.016,0.018-0.043,0.025-0.08,0.025h-0.904
			v1.585h-0.336v-1.585h-2.604c-0.039,0-0.069-0.008-0.09-0.025c-0.021-0.017-0.035-0.039-0.043-0.068l-0.035-0.184l2.775-3.669
			h0.332V78.969z M174.182,76.077c0-0.045,0.001-0.092,0.004-0.141c0.002-0.05,0.008-0.101,0.016-0.152l-2.385,3.185h2.365V76.077z"
			/>
	</g>
	<g enable-background="new    ">
		<path fill="#FFFFFF" d="M161.17,90.053h1.012v0.203c0,0.029-0.009,0.052-0.025,0.068c-0.018,0.018-0.044,0.025-0.08,0.025h-0.906
			v1.585h-0.336V90.35h-2.604c-0.039,0-0.068-0.008-0.09-0.025c-0.02-0.017-0.034-0.039-0.042-0.068l-0.035-0.184l2.774-3.669h0.332
			V90.053z M160.834,87.161c0-0.045,0.002-0.092,0.004-0.141c0.004-0.05,0.008-0.101,0.016-0.152l-2.385,3.185h2.365V87.161z"/>
		<path fill="#FFFFFF" d="M164.738,86.349c0.211,0,0.41,0.029,0.597,0.088c0.188,0.059,0.353,0.146,0.495,0.264
			c0.142,0.117,0.254,0.263,0.337,0.438c0.083,0.174,0.124,0.376,0.124,0.604c0,0.18-0.027,0.342-0.084,0.486
			c-0.056,0.145-0.133,0.271-0.23,0.381c-0.097,0.108-0.212,0.2-0.345,0.274s-0.277,0.131-0.433,0.17
			c0.405,0.076,0.711,0.232,0.918,0.471s0.311,0.535,0.311,0.892c0,0.227-0.045,0.437-0.137,0.631
			c-0.091,0.193-0.216,0.36-0.375,0.501c-0.158,0.141-0.346,0.251-0.562,0.33s-0.45,0.119-0.702,0.119
			c-0.314,0-0.577-0.042-0.787-0.127c-0.209-0.085-0.382-0.194-0.518-0.33c-0.135-0.135-0.24-0.286-0.315-0.454
			s-0.137-0.335-0.184-0.502l0.148-0.062c0.031-0.013,0.062-0.02,0.09-0.02s0.056,0.007,0.082,0.02s0.046,0.038,0.059,0.074
			l0.027,0.078c0.016,0.047,0.038,0.104,0.065,0.174c0.029,0.068,0.066,0.141,0.111,0.215c0.046,0.074,0.103,0.148,0.17,0.223
			c0.068,0.073,0.15,0.14,0.248,0.198s0.213,0.106,0.344,0.143c0.131,0.037,0.283,0.055,0.455,0.055
			c0.234,0,0.439-0.039,0.614-0.117c0.176-0.078,0.323-0.178,0.441-0.298c0.118-0.121,0.206-0.257,0.265-0.406
			s0.088-0.295,0.088-0.436c0-0.169-0.025-0.326-0.08-0.472c-0.053-0.146-0.142-0.271-0.267-0.377s-0.29-0.188-0.493-0.25
			c-0.205-0.062-0.457-0.092-0.756-0.092v-0.27c0.239-0.005,0.45-0.037,0.633-0.096c0.182-0.059,0.334-0.139,0.456-0.239
			c0.122-0.102,0.215-0.223,0.277-0.363s0.093-0.296,0.093-0.465c0-0.195-0.031-0.364-0.097-0.507
			c-0.065-0.144-0.152-0.262-0.262-0.355s-0.237-0.163-0.382-0.207c-0.146-0.044-0.299-0.066-0.457-0.066
			c-0.175,0-0.335,0.026-0.48,0.078s-0.274,0.125-0.387,0.219c-0.111,0.094-0.205,0.206-0.281,0.338
			c-0.075,0.131-0.131,0.277-0.168,0.438c-0.02,0.092-0.068,0.137-0.144,0.137c-0.019,0-0.032-0.001-0.043-0.004l-0.191-0.031
			c0.034-0.236,0.099-0.447,0.195-0.632c0.097-0.186,0.218-0.341,0.366-0.469s0.32-0.225,0.516-0.291S164.512,86.349,164.738,86.349
			z"/>
		<path fill="#FFFFFF" d="M169.535,87.738c0,0.227-0.031,0.427-0.094,0.6s-0.146,0.316-0.254,0.431
			c-0.106,0.115-0.23,0.201-0.371,0.26s-0.289,0.088-0.444,0.088c-0.161,0-0.313-0.029-0.455-0.088s-0.265-0.145-0.368-0.26
			c-0.104-0.114-0.187-0.258-0.246-0.431c-0.061-0.173-0.09-0.373-0.09-0.6c0-0.229,0.029-0.431,0.09-0.604
			c0.06-0.175,0.142-0.319,0.246-0.436c0.104-0.115,0.227-0.203,0.368-0.262s0.294-0.088,0.455-0.088s0.312,0.029,0.452,0.088
			s0.264,0.146,0.369,0.262c0.105,0.116,0.189,0.261,0.25,0.436C169.504,87.308,169.535,87.51,169.535,87.738z M169.238,87.738
			c0-0.2-0.022-0.372-0.068-0.515c-0.045-0.144-0.107-0.261-0.188-0.354c-0.079-0.093-0.172-0.16-0.277-0.203
			s-0.217-0.064-0.333-0.064c-0.117,0-0.228,0.021-0.332,0.064s-0.195,0.11-0.272,0.203c-0.078,0.093-0.141,0.21-0.186,0.354
			c-0.046,0.143-0.068,0.314-0.068,0.515s0.022,0.372,0.068,0.514c0.045,0.142,0.107,0.258,0.186,0.35
			c0.077,0.091,0.168,0.157,0.272,0.2s0.215,0.064,0.332,0.064c0.116,0,0.228-0.021,0.333-0.064s0.198-0.109,0.277-0.2
			c0.08-0.092,0.143-0.208,0.188-0.35C169.216,88.11,169.238,87.938,169.238,87.738z M171.631,86.481
			c0.016-0.021,0.035-0.037,0.057-0.051c0.022-0.013,0.052-0.02,0.088-0.02h0.262l-3.966,5.453c-0.034,0.047-0.079,0.07-0.137,0.07
			h-0.265L171.631,86.481z M172.518,90.623c0,0.227-0.031,0.426-0.094,0.6c-0.062,0.173-0.146,0.316-0.252,0.431
			c-0.105,0.115-0.229,0.201-0.369,0.26s-0.289,0.088-0.445,0.088c-0.16,0-0.312-0.029-0.454-0.088s-0.265-0.145-0.369-0.26
			c-0.104-0.114-0.187-0.258-0.245-0.431c-0.061-0.174-0.09-0.373-0.09-0.6c0-0.229,0.029-0.431,0.09-0.605
			c0.059-0.174,0.141-0.319,0.245-0.435c0.104-0.116,0.228-0.203,0.369-0.262s0.294-0.088,0.454-0.088
			c0.162,0,0.312,0.029,0.453,0.088s0.264,0.146,0.369,0.262c0.105,0.115,0.188,0.261,0.248,0.435
			C172.487,90.192,172.518,90.395,172.518,90.623z M172.221,90.623c0-0.2-0.023-0.373-0.068-0.518
			c-0.045-0.144-0.107-0.263-0.186-0.354c-0.078-0.093-0.17-0.16-0.275-0.203s-0.217-0.064-0.334-0.064s-0.229,0.021-0.333,0.064
			c-0.105,0.043-0.197,0.11-0.275,0.203c-0.078,0.092-0.14,0.211-0.186,0.354c-0.046,0.145-0.068,0.317-0.068,0.518
			s0.022,0.371,0.068,0.514c0.046,0.142,0.107,0.258,0.186,0.349c0.078,0.092,0.17,0.158,0.275,0.199
			c0.104,0.042,0.216,0.062,0.333,0.062s0.229-0.021,0.334-0.062c0.105-0.041,0.197-0.107,0.275-0.199
			c0.078-0.091,0.141-0.207,0.186-0.349C172.197,90.994,172.221,90.823,172.221,90.623z"/>
	</g>
	<g enable-background="new    ">
		<path fill="#FFFFFF" d="M115.946,142.619c0.208-0.031,0.409-0.033,0.604-0.004c0.193,0.029,0.37,0.091,0.529,0.186
			c0.157,0.094,0.292,0.221,0.4,0.381c0.108,0.159,0.18,0.352,0.215,0.578c0.027,0.178,0.024,0.342-0.009,0.494
			c-0.034,0.15-0.09,0.287-0.17,0.41c-0.079,0.123-0.18,0.231-0.3,0.324c-0.119,0.094-0.254,0.172-0.401,0.234
			c0.412,0.014,0.739,0.121,0.979,0.324c0.241,0.205,0.389,0.482,0.443,0.834c0.034,0.225,0.021,0.439-0.039,0.645
			s-0.158,0.389-0.294,0.553c-0.136,0.163-0.304,0.301-0.505,0.412s-0.427,0.186-0.677,0.225c-0.311,0.048-0.576,0.047-0.796-0.006
			c-0.22-0.051-0.407-0.133-0.562-0.246c-0.154-0.113-0.281-0.247-0.381-0.401c-0.101-0.155-0.187-0.311-0.258-0.468l0.137-0.084
			c0.029-0.018,0.058-0.029,0.086-0.033c0.028-0.005,0.056-0.002,0.084,0.006c0.027,0.01,0.051,0.031,0.069,0.064l0.038,0.073
			c0.023,0.044,0.054,0.098,0.093,0.161c0.038,0.064,0.086,0.129,0.143,0.197c0.056,0.066,0.124,0.131,0.202,0.193
			c0.078,0.062,0.17,0.115,0.275,0.158s0.226,0.072,0.36,0.088c0.136,0.017,0.288,0.011,0.458-0.016
			c0.231-0.035,0.429-0.105,0.59-0.209c0.161-0.105,0.292-0.225,0.391-0.361c0.099-0.138,0.165-0.286,0.199-0.442
			c0.036-0.157,0.043-0.305,0.021-0.444c-0.026-0.167-0.076-0.318-0.151-0.453c-0.075-0.137-0.182-0.247-0.321-0.332
			s-0.315-0.143-0.526-0.172c-0.212-0.029-0.465-0.021-0.761,0.023l-0.041-0.266c0.236-0.041,0.439-0.105,0.61-0.191
			c0.171-0.084,0.309-0.188,0.415-0.305c0.105-0.119,0.178-0.254,0.219-0.402c0.04-0.148,0.047-0.307,0.021-0.473
			c-0.03-0.193-0.088-0.355-0.174-0.486c-0.087-0.133-0.19-0.236-0.313-0.312c-0.122-0.076-0.259-0.125-0.409-0.146
			c-0.15-0.021-0.305-0.02-0.462,0.004c-0.172,0.027-0.326,0.078-0.462,0.15c-0.137,0.074-0.253,0.166-0.349,0.276
			c-0.097,0.11-0.172,0.235-0.227,0.377c-0.055,0.141-0.087,0.294-0.099,0.458c-0.007,0.094-0.048,0.146-0.122,0.158
			c-0.018,0.002-0.032,0.004-0.043,0.002l-0.193-0.002c-0.003-0.238,0.029-0.456,0.097-0.653c0.066-0.198,0.163-0.37,0.29-0.521
			c0.128-0.148,0.283-0.27,0.465-0.365C115.519,142.719,115.723,142.654,115.946,142.619z"/>
		<path fill="#FFFFFF" d="M121.816,141.938c0.008,0.053-0.003,0.098-0.032,0.139c-0.029,0.039-0.081,0.064-0.155,0.076l-1.975,0.306
			l-0.048,1.872c0.166-0.07,0.324-0.127,0.476-0.17c0.151-0.044,0.298-0.076,0.439-0.098c0.283-0.043,0.538-0.042,0.767,0.006
			c0.229,0.047,0.427,0.133,0.595,0.255c0.168,0.123,0.304,0.278,0.41,0.469c0.105,0.188,0.177,0.401,0.213,0.638
			c0.045,0.289,0.034,0.555-0.031,0.797c-0.065,0.244-0.171,0.457-0.317,0.643c-0.146,0.188-0.327,0.34-0.543,0.461
			c-0.216,0.119-0.452,0.199-0.709,0.238c-0.152,0.023-0.298,0.033-0.438,0.027s-0.274-0.021-0.403-0.049
			c-0.127-0.026-0.246-0.061-0.355-0.105c-0.109-0.043-0.207-0.09-0.294-0.141l0.085-0.166c0.02-0.043,0.054-0.068,0.103-0.076
			c0.033-0.004,0.085,0.008,0.154,0.035c0.068,0.029,0.156,0.06,0.262,0.092c0.106,0.029,0.23,0.054,0.371,0.072
			c0.141,0.018,0.302,0.012,0.481-0.016c0.211-0.033,0.402-0.096,0.574-0.193c0.172-0.096,0.316-0.218,0.431-0.367
			c0.115-0.15,0.196-0.324,0.243-0.525s0.052-0.422,0.015-0.66c-0.03-0.195-0.087-0.372-0.17-0.527
			c-0.084-0.156-0.192-0.283-0.328-0.383c-0.135-0.098-0.297-0.166-0.485-0.205c-0.189-0.038-0.404-0.037-0.646,0
			c-0.146,0.021-0.3,0.059-0.461,0.105c-0.161,0.049-0.33,0.114-0.508,0.193l-0.25-0.036l0.055-2.485l2.453-0.379L121.816,141.938z"
			/>
		<path fill="#FFFFFF" d="M125.074,142.287l0.269,1.74l1.662-0.256l0.044,0.282l-1.663,0.257l0.271,1.748l-0.301,0.047l-0.271-1.748
			l-1.659,0.256l-0.043-0.283l1.659-0.256l-0.269-1.74L125.074,142.287z"/>
	</g>
	<g enable-background="new    ">
		<path fill="#FFFFFF" d="M120.667,156.854l1-0.154l0.03,0.2c0.005,0.029,0,0.053-0.015,0.071c-0.014,0.021-0.039,0.032-0.075,0.037
			l-0.895,0.139l0.241,1.566l-0.332,0.051l-0.241-1.566l-2.573,0.397c-0.039,0.006-0.069,0.003-0.093-0.012
			c-0.022-0.013-0.04-0.033-0.053-0.061l-0.062-0.177l2.183-4.05l0.328-0.05L120.667,156.854z M119.895,154.047
			c-0.007-0.044-0.013-0.091-0.018-0.139c-0.005-0.05-0.008-0.102-0.009-0.153l-1.87,3.512l2.337-0.361L119.895,154.047z"/>
		<path fill="#FFFFFF" d="M124.106,153.98c0.034,0.225,0.034,0.427-0.002,0.607c-0.035,0.18-0.096,0.335-0.185,0.465
			c-0.088,0.13-0.196,0.234-0.327,0.312c-0.129,0.08-0.271,0.131-0.426,0.155c-0.159,0.024-0.314,0.019-0.463-0.018
			c-0.149-0.036-0.284-0.103-0.404-0.2s-0.223-0.227-0.309-0.389s-0.146-0.354-0.181-0.579c-0.034-0.226-0.036-0.429-0.004-0.61
			c0.033-0.182,0.093-0.338,0.178-0.469c0.085-0.129,0.192-0.235,0.324-0.314c0.131-0.079,0.276-0.132,0.437-0.156
			c0.159-0.024,0.312-0.019,0.46,0.018c0.148,0.036,0.283,0.104,0.404,0.203c0.122,0.098,0.228,0.229,0.313,0.393
			C124.011,153.561,124.071,153.755,124.106,153.98z M123.812,154.025c-0.03-0.197-0.078-0.363-0.146-0.497
			c-0.066-0.136-0.146-0.241-0.239-0.321c-0.093-0.079-0.194-0.132-0.305-0.158c-0.111-0.026-0.225-0.031-0.34-0.013
			c-0.115,0.018-0.222,0.056-0.318,0.114c-0.096,0.059-0.176,0.139-0.238,0.242c-0.063,0.104-0.106,0.229-0.13,0.379
			c-0.022,0.146-0.02,0.32,0.011,0.518c0.031,0.198,0.08,0.365,0.146,0.498s0.146,0.238,0.236,0.316s0.191,0.13,0.301,0.157
			c0.109,0.026,0.223,0.03,0.338,0.013s0.222-0.057,0.319-0.114c0.098-0.06,0.179-0.139,0.244-0.241
			c0.063-0.103,0.108-0.227,0.132-0.374C123.848,154.397,123.844,154.225,123.812,154.025z M125.986,152.418
			c0.012-0.021,0.028-0.041,0.048-0.058s0.048-0.027,0.083-0.033l0.259-0.04l-3.087,5.995c-0.026,0.051-0.067,0.081-0.124,0.09
			l-0.262,0.041L125.986,152.418z M127.493,156.377c0.035,0.224,0.034,0.426-0.001,0.607c-0.035,0.18-0.096,0.334-0.183,0.463
			c-0.087,0.131-0.195,0.234-0.325,0.313c-0.13,0.08-0.271,0.131-0.427,0.155c-0.159,0.023-0.313,0.019-0.462-0.018
			c-0.149-0.037-0.284-0.103-0.404-0.201c-0.12-0.097-0.224-0.226-0.309-0.387c-0.086-0.163-0.146-0.355-0.181-0.58
			s-0.036-0.43-0.004-0.611s0.092-0.338,0.177-0.468s0.193-0.235,0.325-0.315c0.131-0.079,0.276-0.131,0.436-0.156
			c0.159-0.024,0.313-0.018,0.461,0.018c0.147,0.037,0.282,0.105,0.405,0.203c0.121,0.098,0.225,0.229,0.311,0.392
			C127.398,155.956,127.458,156.151,127.493,156.377z M127.201,156.422c-0.031-0.197-0.08-0.365-0.147-0.501
			c-0.066-0.135-0.146-0.243-0.237-0.322c-0.091-0.079-0.192-0.132-0.303-0.158s-0.224-0.031-0.34-0.013
			c-0.116,0.018-0.223,0.056-0.319,0.115c-0.098,0.058-0.179,0.138-0.241,0.242c-0.063,0.102-0.106,0.23-0.13,0.379
			c-0.022,0.148-0.019,0.323,0.012,0.521c0.03,0.197,0.079,0.363,0.146,0.498c0.067,0.133,0.146,0.238,0.237,0.314
			c0.091,0.079,0.192,0.132,0.303,0.156c0.109,0.025,0.223,0.027,0.339,0.01c0.115-0.018,0.223-0.055,0.32-0.112
			c0.098-0.056,0.179-0.136,0.241-0.239c0.063-0.101,0.107-0.226,0.13-0.372C127.234,156.792,127.231,156.619,127.201,156.422z"/>
	</g>
	<g enable-background="new    ">
		<path fill="#FFFFFF" d="M54.519,136.166h1.269v-4.484c0-0.088,0.004-0.182,0.012-0.281l-1.218,1.082
			c-0.026,0.023-0.057,0.035-0.094,0.035c-0.044,0-0.078-0.016-0.102-0.047l-0.113-0.156l1.596-1.41h0.289v5.262h1.206v0.285h-2.846
			V136.166z"/>
		<path fill="#FFFFFF" d="M60.19,130.865c0.211,0,0.412,0.031,0.603,0.092c0.191,0.062,0.36,0.154,0.506,0.277
			c0.146,0.124,0.261,0.278,0.347,0.465c0.086,0.186,0.129,0.403,0.129,0.653c0,0.208-0.032,0.401-0.096,0.58
			c-0.064,0.178-0.15,0.349-0.26,0.513c-0.109,0.164-0.236,0.323-0.38,0.479s-0.296,0.312-0.455,0.475l-1.729,1.764
			c0.083-0.021,0.17-0.036,0.26-0.047c0.09-0.01,0.18-0.016,0.271-0.016h2.385c0.042,0,0.075,0.013,0.1,0.037
			c0.024,0.025,0.037,0.057,0.037,0.096v0.219h-3.564v-0.133c0-0.028,0.007-0.058,0.021-0.088c0.014-0.029,0.032-0.055,0.053-0.076
			l1.885-1.908c0.156-0.159,0.301-0.312,0.434-0.461c0.132-0.148,0.248-0.298,0.345-0.449c0.098-0.15,0.174-0.306,0.23-0.464
			c0.056-0.159,0.083-0.328,0.083-0.508c0-0.203-0.034-0.379-0.101-0.528c-0.068-0.15-0.158-0.273-0.271-0.369
			c-0.113-0.097-0.243-0.168-0.39-0.215s-0.301-0.07-0.463-0.07c-0.174,0-0.335,0.026-0.482,0.08s-0.277,0.128-0.39,0.223
			s-0.207,0.208-0.281,0.34c-0.074,0.131-0.125,0.274-0.154,0.431c-0.026,0.092-0.078,0.137-0.156,0.137
			c-0.005,0-0.012,0-0.02-0.002c-0.008-0.001-0.015-0.002-0.02-0.002l-0.188-0.031c0.031-0.236,0.096-0.447,0.193-0.632
			c0.098-0.186,0.22-0.341,0.369-0.469s0.32-0.225,0.515-0.291C59.753,130.898,59.964,130.865,60.19,130.865z"/>
		<path fill="#FFFFFF" d="M62.758,133.977h1.815v0.316h-1.815V133.977z"/>
		<path fill="#FFFFFF" d="M66.169,136.166h1.269v-4.484c0-0.088,0.004-0.182,0.012-0.281l-1.218,1.082
			c-0.026,0.023-0.057,0.035-0.094,0.035c-0.044,0-0.078-0.016-0.102-0.047l-0.113-0.156l1.596-1.41h0.289v5.262h1.206v0.285h-2.846
			V136.166z"/>
		<path fill="#FFFFFF" d="M73.672,130.928v0.168c0,0.044-0.005,0.083-0.014,0.115c-0.009,0.032-0.021,0.061-0.033,0.084
			l-2.533,5.016c-0.021,0.042-0.049,0.075-0.084,0.102s-0.082,0.039-0.139,0.039h-0.254l2.549-4.996
			c0.034-0.067,0.074-0.129,0.121-0.184H70.1c-0.029,0-0.053-0.011-0.072-0.031s-0.029-0.046-0.029-0.074v-0.238H73.672z"/>
	</g>
	<g enable-background="new    ">
		<path fill="#FFFFFF" d="M58.494,143.728c0.211,0,0.412,0.031,0.603,0.092c0.191,0.062,0.36,0.154,0.506,0.277
			c0.146,0.124,0.261,0.278,0.347,0.465c0.086,0.186,0.129,0.403,0.129,0.653c0,0.208-0.032,0.401-0.096,0.58
			c-0.064,0.178-0.15,0.349-0.26,0.513c-0.109,0.164-0.236,0.323-0.38,0.479s-0.296,0.312-0.455,0.475l-1.729,1.764
			c0.083-0.021,0.17-0.036,0.26-0.047c0.09-0.01,0.18-0.016,0.271-0.016h2.385c0.042,0,0.075,0.013,0.1,0.037
			c0.024,0.025,0.037,0.057,0.037,0.096v0.219h-3.564v-0.133c0-0.028,0.007-0.058,0.021-0.088c0.014-0.029,0.032-0.055,0.053-0.076
			l1.885-1.908c0.156-0.159,0.301-0.312,0.434-0.461c0.132-0.148,0.248-0.298,0.345-0.449c0.098-0.15,0.174-0.306,0.23-0.464
			c0.056-0.159,0.083-0.328,0.083-0.508c0-0.203-0.034-0.379-0.101-0.528c-0.068-0.15-0.158-0.273-0.271-0.369
			c-0.113-0.097-0.243-0.168-0.39-0.215s-0.301-0.07-0.463-0.07c-0.174,0-0.335,0.026-0.482,0.08s-0.277,0.128-0.39,0.223
			s-0.207,0.208-0.281,0.34c-0.074,0.131-0.125,0.274-0.154,0.431c-0.026,0.092-0.078,0.137-0.156,0.137
			c-0.005,0-0.012,0-0.02-0.002c-0.008-0.001-0.015-0.002-0.02-0.002l-0.188-0.031c0.031-0.236,0.096-0.447,0.193-0.632
			c0.098-0.186,0.22-0.341,0.369-0.469s0.32-0.225,0.515-0.291C58.057,143.761,58.268,143.728,58.494,143.728z"/>
		<path fill="#FFFFFF" d="M63.124,146.012c0.237,0,0.456,0.039,0.656,0.116c0.201,0.078,0.373,0.188,0.517,0.33
			c0.145,0.142,0.258,0.313,0.34,0.516c0.082,0.201,0.123,0.427,0.123,0.677s-0.045,0.48-0.135,0.691s-0.215,0.393-0.375,0.546
			c-0.16,0.154-0.352,0.273-0.576,0.359c-0.224,0.086-0.47,0.129-0.738,0.129c-0.257,0-0.493-0.042-0.706-0.125
			s-0.396-0.203-0.549-0.359c-0.152-0.156-0.27-0.347-0.353-0.571c-0.083-0.226-0.125-0.479-0.125-0.764
			c0-0.216,0.055-0.46,0.164-0.731s0.289-0.577,0.539-0.915l1.507-2.03c0.044-0.06,0.11-0.09,0.199-0.09h0.328l-1.647,2.151
			c-0.081,0.106-0.155,0.206-0.222,0.3c-0.068,0.094-0.129,0.187-0.184,0.277c0.154-0.158,0.336-0.283,0.546-0.373
			C62.644,146.057,62.874,146.012,63.124,146.012z M61.566,147.646c0,0.206,0.032,0.396,0.095,0.57
			c0.064,0.174,0.154,0.324,0.271,0.45c0.117,0.127,0.26,0.225,0.429,0.295c0.169,0.07,0.359,0.105,0.57,0.105
			c0.224,0,0.425-0.035,0.605-0.105c0.179-0.07,0.332-0.167,0.458-0.291c0.126-0.123,0.223-0.271,0.291-0.44
			c0.068-0.171,0.102-0.356,0.102-0.557c0-0.211-0.033-0.401-0.1-0.571c-0.066-0.171-0.16-0.315-0.281-0.434
			s-0.265-0.209-0.431-0.273c-0.167-0.063-0.352-0.096-0.555-0.096c-0.229,0-0.434,0.04-0.615,0.119
			c-0.181,0.08-0.333,0.183-0.458,0.309s-0.22,0.27-0.285,0.432C61.599,147.32,61.566,147.482,61.566,147.646z"/>
		<path fill="#FFFFFF" d="M67.862,145.117c0,0.227-0.031,0.427-0.094,0.6s-0.147,0.316-0.254,0.431
			c-0.106,0.115-0.23,0.201-0.371,0.26s-0.289,0.088-0.445,0.088c-0.162,0-0.313-0.029-0.455-0.088
			c-0.142-0.059-0.265-0.145-0.369-0.26c-0.104-0.114-0.186-0.258-0.246-0.431c-0.06-0.173-0.09-0.373-0.09-0.6
			c0-0.229,0.03-0.431,0.09-0.604c0.06-0.175,0.142-0.319,0.246-0.436c0.104-0.115,0.227-0.203,0.369-0.262
			c0.142-0.059,0.293-0.088,0.455-0.088c0.161,0,0.312,0.029,0.453,0.088s0.264,0.146,0.369,0.262
			c0.105,0.116,0.189,0.261,0.25,0.436C67.832,144.687,67.862,144.889,67.862,145.117z M67.565,145.117
			c0-0.2-0.022-0.372-0.068-0.515c-0.045-0.144-0.108-0.261-0.187-0.354c-0.08-0.093-0.172-0.16-0.277-0.203
			s-0.217-0.064-0.333-0.064c-0.117,0-0.228,0.021-0.332,0.064s-0.195,0.11-0.273,0.203c-0.078,0.093-0.14,0.21-0.186,0.354
			c-0.045,0.143-0.068,0.314-0.068,0.515s0.023,0.372,0.068,0.514s0.107,0.258,0.186,0.35c0.078,0.091,0.169,0.157,0.273,0.2
			s0.215,0.064,0.332,0.064c0.117,0,0.228-0.021,0.333-0.064s0.198-0.109,0.277-0.2c0.079-0.092,0.142-0.208,0.187-0.35
			C67.543,145.489,67.565,145.317,67.565,145.117z M69.958,143.86c0.016-0.021,0.034-0.037,0.057-0.051
			c0.022-0.013,0.051-0.02,0.087-0.02h0.262l-3.966,5.453c-0.034,0.047-0.079,0.07-0.137,0.07h-0.265L69.958,143.86z
			 M70.844,148.002c0,0.227-0.031,0.426-0.094,0.6c-0.062,0.173-0.146,0.316-0.251,0.431c-0.105,0.115-0.229,0.201-0.369,0.26
			c-0.14,0.059-0.289,0.088-0.445,0.088c-0.161,0-0.313-0.029-0.455-0.088c-0.142-0.059-0.265-0.145-0.369-0.26
			c-0.104-0.114-0.186-0.258-0.246-0.431c-0.06-0.174-0.09-0.373-0.09-0.6c0-0.229,0.03-0.431,0.09-0.605
			c0.06-0.174,0.142-0.319,0.246-0.435c0.104-0.116,0.227-0.203,0.369-0.262c0.142-0.059,0.293-0.088,0.455-0.088
			s0.312,0.029,0.453,0.088c0.141,0.059,0.264,0.146,0.369,0.262c0.105,0.115,0.188,0.261,0.248,0.435
			C70.814,147.571,70.844,147.773,70.844,148.002z M70.548,148.002c0-0.2-0.023-0.373-0.068-0.518
			c-0.045-0.144-0.107-0.263-0.186-0.354c-0.078-0.093-0.17-0.16-0.275-0.203c-0.105-0.043-0.217-0.064-0.334-0.064
			s-0.229,0.021-0.333,0.064c-0.105,0.043-0.197,0.11-0.275,0.203c-0.078,0.092-0.14,0.211-0.186,0.354
			c-0.045,0.145-0.068,0.317-0.068,0.518s0.023,0.371,0.068,0.514c0.045,0.142,0.107,0.258,0.186,0.349
			c0.078,0.092,0.17,0.158,0.275,0.199c0.105,0.042,0.216,0.062,0.333,0.062s0.229-0.021,0.334-0.062
			c0.105-0.041,0.197-0.107,0.275-0.199c0.078-0.091,0.14-0.207,0.186-0.349C70.525,148.373,70.548,148.202,70.548,148.002z"/>
	</g>
</g>
</svg>
