<?xml version="1.0" encoding="utf-8"?>
<!-- Generator: Adobe Illustrator 16.0.0, SVG Export Plug-In . SVG Version: 6.00 Build 0)  -->
<!DOCTYPE svg PUBLIC "-//W3C//DTD SVG 1.0//EN" "http://www.w3.org/TR/2001/REC-SVG-20010904/DTD/svg10.dtd">
<svg version="1.0" id="Layer_1" xmlns="http://www.w3.org/2000/svg" xmlns:xlink="http://www.w3.org/1999/xlink" x="0px" y="0px"
	 width="200px" height="200px" viewBox="0 0 200 200" enable-background="new 0 0 200 200" xml:space="preserve">
<g>
	<g>
		<path fill="#231F20" d="M98.265,182.942h-0.356c-0.042,0-0.077-0.013-0.104-0.034c-0.027-0.022-0.048-0.052-0.063-0.088
			l-0.752-1.854h-3.133l-0.748,1.854c-0.012,0.032-0.034,0.062-0.064,0.085c-0.029,0.024-0.066,0.037-0.107,0.037h-0.352l2.61-6.378
			h0.459L98.265,182.942z M93.996,180.625h2.857l-1.302-3.224c-0.021-0.05-0.042-0.107-0.063-0.173
			c-0.021-0.064-0.042-0.132-0.063-0.205c-0.021,0.073-0.042,0.141-0.063,0.205c-0.021,0.065-0.042,0.125-0.062,0.178
			L93.996,180.625z"/>
		<path fill="#231F20" d="M100.537,178.38c0.195,0,0.376,0.024,0.542,0.072c0.167,0.048,0.316,0.116,0.448,0.203h1.149v0.149
			c0,0.075-0.042,0.114-0.125,0.121l-0.682,0.05c0.085,0.114,0.148,0.242,0.194,0.384c0.045,0.145,0.066,0.297,0.066,0.459
			c0,0.216-0.038,0.412-0.116,0.587c-0.079,0.178-0.188,0.327-0.328,0.452c-0.138,0.125-0.307,0.222-0.502,0.29
			c-0.195,0.069-0.412,0.104-0.648,0.104c-0.259,0-0.494-0.038-0.704-0.116c-0.126,0.071-0.226,0.158-0.297,0.257
			s-0.108,0.195-0.108,0.288c0,0.13,0.045,0.229,0.135,0.298c0.09,0.068,0.209,0.119,0.358,0.15c0.149,0.032,0.319,0.053,0.51,0.062
			c0.19,0.008,0.384,0.02,0.582,0.029s0.39,0.029,0.581,0.057c0.19,0.026,0.361,0.074,0.509,0.141
			c0.149,0.067,0.269,0.163,0.359,0.284c0.091,0.122,0.135,0.283,0.135,0.485c0,0.186-0.047,0.364-0.139,0.536
			c-0.094,0.171-0.229,0.322-0.404,0.455c-0.176,0.133-0.389,0.238-0.638,0.317c-0.249,0.08-0.529,0.12-0.839,0.12
			c-0.316,0-0.592-0.032-0.829-0.097c-0.238-0.064-0.437-0.151-0.598-0.262c-0.161-0.109-0.282-0.236-0.363-0.382
			c-0.081-0.144-0.122-0.297-0.122-0.459c0-0.237,0.078-0.441,0.234-0.613c0.156-0.171,0.372-0.303,0.645-0.396
			c-0.151-0.052-0.27-0.126-0.358-0.222c-0.089-0.096-0.134-0.229-0.134-0.401c0-0.062,0.012-0.129,0.037-0.198
			s0.06-0.138,0.108-0.205c0.048-0.068,0.106-0.132,0.173-0.191c0.067-0.061,0.146-0.113,0.236-0.162
			c-0.213-0.123-0.379-0.287-0.498-0.491c-0.118-0.204-0.178-0.444-0.178-0.717c0-0.217,0.038-0.412,0.114-0.589
			c0.077-0.175,0.185-0.326,0.325-0.452c0.141-0.127,0.309-0.224,0.507-0.293C100.076,178.414,100.296,178.38,100.537,178.38z
			 M102.198,183.243c0-0.141-0.036-0.255-0.109-0.34c-0.073-0.086-0.173-0.152-0.295-0.201c-0.123-0.048-0.266-0.081-0.427-0.101
			c-0.16-0.02-0.328-0.034-0.504-0.043c-0.176-0.009-0.353-0.019-0.53-0.027c-0.177-0.008-0.343-0.026-0.495-0.054
			c-0.115,0.046-0.221,0.097-0.319,0.155c-0.097,0.06-0.18,0.125-0.25,0.198c-0.068,0.074-0.123,0.154-0.162,0.243
			c-0.04,0.089-0.059,0.187-0.059,0.292c0,0.131,0.033,0.253,0.101,0.366c0.068,0.112,0.167,0.211,0.297,0.294
			s0.292,0.147,0.48,0.195s0.407,0.072,0.653,0.072c0.229,0,0.44-0.025,0.638-0.076s0.368-0.124,0.515-0.217
			c0.145-0.093,0.259-0.204,0.341-0.333C102.157,183.539,102.198,183.397,102.198,183.243z M100.537,180.959
			c0.192,0,0.363-0.028,0.512-0.084c0.152-0.055,0.278-0.133,0.379-0.231c0.103-0.1,0.181-0.219,0.232-0.356
			c0.053-0.139,0.079-0.292,0.079-0.46s-0.027-0.321-0.082-0.462c-0.052-0.14-0.132-0.259-0.235-0.358
			c-0.104-0.099-0.23-0.175-0.379-0.229s-0.317-0.082-0.506-0.082c-0.19,0-0.36,0.027-0.51,0.082
			c-0.151,0.055-0.277,0.131-0.381,0.229c-0.103,0.1-0.182,0.219-0.237,0.358c-0.053,0.141-0.081,0.294-0.081,0.462
			s0.027,0.321,0.081,0.46c0.055,0.138,0.134,0.257,0.237,0.356c0.104,0.099,0.23,0.177,0.381,0.231
			C100.176,180.931,100.346,180.959,100.537,180.959z"/>
		<path fill="#231F20" d="M105.297,178.384c0.252,0,0.485,0.045,0.7,0.133c0.215,0.086,0.4,0.212,0.559,0.38
			c0.157,0.167,0.281,0.371,0.369,0.615c0.089,0.243,0.134,0.522,0.134,0.838c0,0.067-0.011,0.111-0.029,0.136
			c-0.02,0.024-0.05,0.035-0.093,0.035H103.7v0.086c0,0.336,0.039,0.634,0.117,0.889c0.078,0.256,0.189,0.47,0.333,0.642
			c0.145,0.173,0.318,0.304,0.524,0.391c0.203,0.087,0.433,0.131,0.685,0.131c0.226,0,0.421-0.025,0.585-0.075
			c0.165-0.049,0.305-0.105,0.417-0.167c0.113-0.062,0.203-0.117,0.269-0.166c0.066-0.051,0.113-0.073,0.145-0.073
			c0.039,0,0.069,0.014,0.09,0.044l0.117,0.145c-0.072,0.089-0.167,0.174-0.286,0.252c-0.118,0.078-0.251,0.145-0.396,0.2
			c-0.146,0.057-0.302,0.101-0.47,0.134c-0.166,0.032-0.333,0.05-0.501,0.05c-0.307,0-0.587-0.054-0.839-0.16
			c-0.253-0.107-0.469-0.263-0.65-0.467c-0.18-0.205-0.32-0.455-0.419-0.751c-0.099-0.295-0.148-0.634-0.148-1.017
			c0-0.32,0.047-0.617,0.138-0.89c0.092-0.272,0.225-0.506,0.396-0.704c0.173-0.196,0.386-0.35,0.635-0.461
			C104.692,178.44,104.977,178.384,105.297,178.384z M105.303,178.705c-0.231,0-0.438,0.036-0.621,0.107
			c-0.184,0.072-0.342,0.177-0.476,0.312c-0.133,0.135-0.241,0.298-0.323,0.486c-0.083,0.189-0.138,0.401-0.164,0.636h2.952
			c0-0.24-0.033-0.455-0.1-0.646c-0.065-0.191-0.158-0.353-0.278-0.484c-0.121-0.133-0.265-0.233-0.434-0.305
			C105.691,178.741,105.506,178.705,105.303,178.705z"/>
		<path fill="#231F20" d="M89.297,195.035c0.22,0,0.419-0.011,0.599-0.033c0.181-0.023,0.348-0.057,0.503-0.101
			c0.155-0.047,0.302-0.101,0.442-0.165s0.28-0.139,0.422-0.219V192.8h-1.227c-0.033,0-0.061-0.011-0.084-0.031
			c-0.022-0.021-0.033-0.045-0.033-0.072v-0.253h1.762v2.268c-0.159,0.111-0.325,0.211-0.496,0.298
			c-0.171,0.088-0.355,0.159-0.55,0.218s-0.405,0.105-0.631,0.137c-0.226,0.03-0.472,0.047-0.739,0.047
			c-0.459,0-0.88-0.077-1.26-0.231c-0.38-0.155-0.707-0.375-0.978-0.659c-0.272-0.284-0.483-0.627-0.633-1.03
			c-0.15-0.402-0.225-0.851-0.225-1.342c0-0.494,0.075-0.94,0.225-1.342c0.15-0.402,0.363-0.745,0.64-1.027
			c0.276-0.285,0.612-0.503,1.007-0.658c0.395-0.154,0.837-0.232,1.327-0.232c0.244,0,0.468,0.017,0.674,0.05
			c0.206,0.033,0.397,0.081,0.575,0.146c0.177,0.065,0.342,0.145,0.496,0.239s0.3,0.204,0.442,0.327l-0.122,0.198
			c-0.027,0.045-0.065,0.067-0.113,0.067c-0.027,0-0.053-0.006-0.077-0.018c-0.045-0.018-0.11-0.062-0.196-0.127
			c-0.086-0.065-0.202-0.135-0.347-0.206c-0.146-0.073-0.329-0.138-0.548-0.194c-0.219-0.057-0.485-0.086-0.797-0.086
			c-0.415,0-0.789,0.065-1.122,0.198c-0.334,0.133-0.619,0.321-0.854,0.568c-0.236,0.246-0.417,0.546-0.545,0.901
			c-0.128,0.354-0.192,0.753-0.192,1.195c0,0.45,0.064,0.854,0.194,1.211c0.129,0.357,0.311,0.661,0.543,0.908
			c0.232,0.249,0.512,0.439,0.838,0.57C88.543,194.97,88.903,195.035,89.297,195.035z"/>
		<path fill="#231F20" d="M93.087,195.338v-4.485h0.225c0.052,0,0.088,0.012,0.111,0.032c0.022,0.021,0.035,0.056,0.038,0.107
			l0.036,0.946c0.144-0.363,0.337-0.647,0.577-0.854s0.536-0.31,0.888-0.31c0.136,0,0.261,0.016,0.375,0.043
			c0.114,0.028,0.222,0.07,0.324,0.124l-0.058,0.298c-0.009,0.049-0.04,0.072-0.09,0.072c-0.018,0-0.044-0.006-0.077-0.018
			c-0.033-0.013-0.075-0.025-0.124-0.042c-0.05-0.014-0.111-0.028-0.183-0.039c-0.072-0.013-0.155-0.02-0.248-0.02
			c-0.339,0-0.618,0.106-0.836,0.315c-0.218,0.212-0.395,0.515-0.53,0.911v2.917H93.087z"/>
		<path fill="#231F20" d="M98.375,190.78c0.321,0,0.609,0.056,0.863,0.164c0.254,0.11,0.468,0.267,0.643,0.467
			c0.174,0.202,0.307,0.443,0.399,0.728c0.091,0.284,0.136,0.603,0.136,0.955c0,0.351-0.045,0.669-0.136,0.951
			c-0.092,0.282-0.226,0.523-0.399,0.725c-0.174,0.201-0.389,0.356-0.643,0.464c-0.254,0.108-0.542,0.163-0.863,0.163
			s-0.608-0.055-0.862-0.163c-0.254-0.107-0.469-0.263-0.645-0.464s-0.31-0.442-0.401-0.725s-0.137-0.601-0.137-0.951
			c0-0.353,0.046-0.671,0.137-0.955s0.226-0.525,0.401-0.728c0.176-0.2,0.391-0.356,0.645-0.467
			C97.766,190.836,98.053,190.78,98.375,190.78z M98.375,195.059c0.268,0,0.501-0.046,0.702-0.139
			c0.199-0.091,0.366-0.223,0.5-0.394c0.133-0.17,0.234-0.378,0.3-0.62c0.066-0.241,0.099-0.513,0.099-0.812
			c0-0.298-0.033-0.568-0.099-0.812c-0.066-0.244-0.167-0.451-0.3-0.624c-0.133-0.174-0.3-0.307-0.5-0.4
			c-0.2-0.093-0.434-0.139-0.702-0.139c-0.267,0-0.5,0.046-0.701,0.139c-0.2,0.094-0.367,0.227-0.5,0.4
			c-0.134,0.173-0.234,0.38-0.302,0.624c-0.067,0.243-0.102,0.514-0.102,0.812c0,0.3,0.034,0.571,0.102,0.812
			c0.067,0.242,0.168,0.45,0.302,0.62c0.134,0.171,0.301,0.303,0.5,0.394C97.874,195.013,98.107,195.059,98.375,195.059z"/>
		<path fill="#231F20" d="M101.858,190.853v2.866c0,0.422,0.097,0.752,0.29,0.99c0.192,0.238,0.486,0.358,0.882,0.358
			c0.292,0,0.565-0.074,0.819-0.223c0.252-0.15,0.479-0.355,0.682-0.621v-3.371h0.429v4.485h-0.237
			c-0.082,0-0.125-0.039-0.128-0.117l-0.041-0.668c-0.208,0.26-0.447,0.467-0.72,0.623s-0.575,0.234-0.91,0.234
			c-0.25,0-0.467-0.039-0.653-0.117c-0.188-0.078-0.342-0.191-0.465-0.338c-0.124-0.148-0.218-0.325-0.28-0.532
			c-0.064-0.207-0.096-0.442-0.096-0.704v-2.866H101.858z"/>
		<path fill="#231F20" d="M106.42,196.925v-6.072h0.234c0.04,0,0.071,0.008,0.096,0.024c0.023,0.018,0.037,0.047,0.04,0.088
			l0.041,0.695c0.198-0.271,0.431-0.485,0.695-0.645c0.267-0.16,0.564-0.24,0.896-0.24c0.552,0,0.981,0.191,1.287,0.573
			c0.308,0.381,0.46,0.954,0.46,1.718c0,0.327-0.042,0.633-0.127,0.917c-0.086,0.283-0.213,0.53-0.378,0.738
			c-0.164,0.21-0.369,0.375-0.609,0.495c-0.243,0.12-0.521,0.18-0.838,0.18c-0.306,0-0.57-0.056-0.793-0.168
			c-0.222-0.11-0.414-0.274-0.576-0.494v2.19H106.42z M108.3,191.123c-0.298,0-0.567,0.077-0.809,0.231
			c-0.243,0.155-0.456,0.371-0.643,0.648v2.354c0.171,0.258,0.361,0.439,0.57,0.545c0.209,0.104,0.446,0.157,0.713,0.157
			s0.497-0.048,0.695-0.146c0.199-0.096,0.365-0.231,0.498-0.407c0.135-0.175,0.235-0.386,0.303-0.631
			c0.066-0.244,0.102-0.515,0.102-0.809c0-0.667-0.124-1.158-0.368-1.473C109.117,191.28,108.763,191.123,108.3,191.123z"/>
		<path fill="#231F20" d="M113.714,191.411c-0.021,0.043-0.054,0.063-0.101,0.063c-0.032,0-0.074-0.019-0.127-0.056
			c-0.052-0.038-0.122-0.08-0.207-0.127c-0.086-0.046-0.192-0.088-0.315-0.127c-0.125-0.037-0.277-0.056-0.459-0.056
			c-0.161,0-0.311,0.023-0.443,0.07c-0.134,0.046-0.248,0.107-0.343,0.187c-0.095,0.077-0.168,0.168-0.221,0.271
			s-0.079,0.212-0.079,0.326c0,0.141,0.036,0.258,0.108,0.352c0.071,0.092,0.167,0.171,0.284,0.236
			c0.117,0.067,0.25,0.123,0.399,0.172c0.147,0.048,0.301,0.096,0.456,0.144c0.157,0.049,0.31,0.103,0.458,0.16
			c0.148,0.059,0.282,0.132,0.398,0.218c0.117,0.089,0.214,0.195,0.284,0.322c0.074,0.125,0.109,0.278,0.109,0.459
			c0,0.195-0.035,0.377-0.107,0.545c-0.07,0.169-0.172,0.313-0.305,0.438c-0.135,0.123-0.299,0.22-0.495,0.293
			c-0.194,0.072-0.418,0.108-0.666,0.108c-0.315,0-0.589-0.051-0.816-0.151c-0.229-0.101-0.433-0.232-0.613-0.395l0.104-0.153
			c0.016-0.024,0.032-0.041,0.05-0.054c0.018-0.012,0.044-0.018,0.076-0.018c0.04,0,0.089,0.022,0.144,0.071
			c0.059,0.048,0.133,0.101,0.225,0.156c0.092,0.055,0.206,0.106,0.342,0.155c0.138,0.048,0.306,0.072,0.507,0.072
			c0.189,0,0.357-0.026,0.501-0.078c0.145-0.054,0.265-0.125,0.362-0.215c0.096-0.091,0.168-0.197,0.217-0.318
			c0.05-0.121,0.075-0.25,0.075-0.386c0-0.149-0.036-0.274-0.108-0.373c-0.072-0.1-0.168-0.184-0.284-0.253
			c-0.117-0.069-0.25-0.127-0.399-0.176c-0.148-0.048-0.303-0.096-0.46-0.145c-0.158-0.048-0.31-0.101-0.459-0.157
			s-0.281-0.13-0.399-0.216c-0.118-0.088-0.212-0.194-0.283-0.319c-0.072-0.124-0.108-0.279-0.108-0.466
			c0-0.158,0.034-0.312,0.103-0.46c0.069-0.147,0.168-0.277,0.296-0.388c0.127-0.11,0.283-0.199,0.466-0.267
			c0.185-0.065,0.391-0.099,0.618-0.099c0.273,0,0.516,0.04,0.729,0.119c0.211,0.08,0.405,0.2,0.582,0.364L113.714,191.411z"/>
	</g>
	<g>
		<g>
			<g>
				<g>
					<path fill="#4798A1" d="M100.348,85.603L18.914,97.087C12.591,51.953,43.93,10.222,88.902,3.88
						c3.599-0.51,7.813-0.805,11.446-0.805V85.603z"/>
				</g>
			</g>
			<g>
				<g>
					<path fill="#5AC6D3" d="M99.977,84.997l15.626,80.416c-44.41,8.635-87.413-20.372-96.043-64.784
						c-0.346-1.775-0.457-2.437-0.709-4.23L99.977,84.997z"/>
				</g>
			</g>
			<g>
				<g>
					<path fill="#A0DAE2" d="M99.977,84.997l35.968,73.745c-6.517,3.179-13.196,5.415-20.314,6.798L99.977,84.997z"/>
				</g>
			</g>
			<g>
				<g>
					<path fill="#245055" d="M99.977,84.997V3.075c45.243,0,81.919,36.678,81.919,81.922c0,32.577-16.729,59.353-46.008,73.629
						L99.977,84.997z"/>
				</g>
			</g>
		</g>
	</g>
	<circle fill="#FFFFFF" cx="100.159" cy="85.006" r="49.133"/>
	<g>
		<text transform="matrix(1 0 0 1 74.0747 84.2256)" fill="#5AC6D3" font-family="'Lato-Bold'" font-size="32.9785">740</text>
	</g>
	<g>
		<text transform="matrix(1 0 0 1 83.2759 99.1191)"><tspan x="0" y="0" fill="#231F20" font-family="'Lato-Light'" font-size="11.7098">survey </tspan><tspan x="-14.558" y="14.312" fill="#231F20" font-family="'Lato-Light'" font-size="11.7098">respondents </tspan></text>
	</g>
	<text transform="matrix(1 0 0 1 40.3477 39.6709)"><tspan x="0" y="0" fill="#FFFFFF" font-family="'Lato-Light'" font-size="7.8066">18-24</tspan><tspan x="2.832" y="12.862" fill="#FFFFFF" font-family="'Lato-Light'" font-size="7.8066">27%</tspan></text>
	<text transform="matrix(1 0 0 1 154.9854 80.8506)"><tspan x="0" y="0" fill="#FFFFFF" font-family="'Lato-Light'" font-size="7.8066">25-34</tspan><tspan x="2.832" y="11.084" fill="#FFFFFF" font-family="'Lato-Light'" font-size="7.8066">43%</tspan></text>
	<text transform="matrix(0.9883 -0.1526 0.1526 0.9883 114.4336 148.5049)"><tspan x="0" y="0" fill="#FFFFFF" font-family="'Lato-Light'" font-size="7.8066">35+</tspan><tspan x="1.534" y="11.084" fill="#FFFFFF" font-family="'Lato-Light'" font-size="7.8066">4%</tspan></text>
	<text transform="matrix(1 0 0 1 53.3125 136.4512)"><tspan x="0" y="0" fill="#FFFFFF" font-family="'Lato-Light'" font-size="7.8066">12-17</tspan><tspan x="2.832" y="12.862" fill="#FFFFFF" font-family="'Lato-Light'" font-size="7.8066">26%</tspan></text>
</g>
</svg>
