<?xml version="1.0" encoding="utf-8"?>
<!-- Generator: Adobe Illustrator 16.0.0, SVG Export Plug-In . SVG Version: 6.00 Build 0)  -->
<!DOCTYPE svg PUBLIC "-//W3C//DTD SVG 1.0//EN" "http://www.w3.org/TR/2001/REC-SVG-20010904/DTD/svg10.dtd">
<svg version="1.0" id="Layer_1" xmlns="http://www.w3.org/2000/svg" xmlns:xlink="http://www.w3.org/1999/xlink" x="0px" y="0px"
	 width="52px" height="52px" viewBox="0 0 52 52" enable-background="new 0 0 52 52" xml:space="preserve">
<g>
	<g>
		<path fill="#5AC6D3" d="M25.988,51.5c-5.354,0-10.698-1.674-15.191-5.008c-0.427-0.315-0.514-0.919-0.197-1.346
			c0.313-0.425,0.918-0.515,1.342-0.199c8.008,5.941,18.95,6.187,27.223,0.613c5.223-3.52,8.762-8.864,9.965-15.049
			c1.207-6.181-0.066-12.461-3.585-17.687C38.28,2.036,23.599-0.826,12.821,6.438C2.04,13.705-0.822,28.392,6.441,39.174
			c0.297,0.442,0.18,1.04-0.26,1.337c-0.44,0.293-1.038,0.182-1.337-0.261c-7.856-11.661-4.76-27.546,6.903-35.407
			c11.657-7.856,27.537-4.76,35.393,6.905c3.808,5.65,5.186,12.446,3.881,19.134c-1.303,6.687-5.131,12.466-10.78,16.271
			C35.935,50.058,30.956,51.5,25.988,51.5z"/>
	</g>
	<path fill="#5AC6D3" d="M38.206,18.421c-0.899,0.4-1.863,0.668-2.877,0.789c1.034-0.621,1.828-1.601,2.201-2.772
		c-0.968,0.572-2.039,0.992-3.182,1.218c-0.915-0.975-2.217-1.583-3.657-1.583c-2.766,0-5.012,2.244-5.012,5.015
		c0,0.389,0.044,0.772,0.128,1.141c-4.163-0.21-7.857-2.208-10.327-5.239c-0.433,0.741-0.679,1.603-0.679,2.52
		c0,1.739,0.885,3.274,2.228,4.172c-0.823-0.029-1.59-0.251-2.269-0.628c-0.003,0.023-0.003,0.044-0.003,0.063
		c0,2.428,1.73,4.456,4.023,4.917c-0.424,0.113-0.864,0.177-1.322,0.177c-0.323,0-0.637-0.033-0.942-0.092
		c0.636,1.991,2.488,3.442,4.68,3.482c-1.714,1.343-3.873,2.145-6.225,2.145c-0.403,0-0.8-0.021-1.192-0.068
		c2.215,1.423,4.849,2.252,7.68,2.252c9.221,0,14.259-7.641,14.259-14.26c0-0.22-0.006-0.437-0.016-0.653
		C36.686,20.31,37.536,19.425,38.206,18.421z"/>
</g>
</svg>
