<?xml version="1.0" encoding="utf-8"?>
<!-- Generator: Adobe Illustrator 16.0.0, SVG Export Plug-In . SVG Version: 6.00 Build 0)  -->
<!DOCTYPE svg PUBLIC "-//W3C//DTD SVG 1.0//EN" "http://www.w3.org/TR/2001/REC-SVG-20010904/DTD/svg10.dtd">
<svg version="1.0" id="Layer_1" xmlns="http://www.w3.org/2000/svg" xmlns:xlink="http://www.w3.org/1999/xlink" x="0px" y="0px"
	 width="52px" height="52px" viewBox="0 0 52 52" enable-background="new 0 0 52 52" xml:space="preserve">
<g>
	<g>
		<path fill="#5AC6D3" d="M25.987,51.5c-5.354,0-10.7-1.676-15.19-5.009c-0.427-0.314-0.516-0.92-0.198-1.347
			c0.316-0.425,0.92-0.515,1.346-0.199c8.008,5.941,18.947,6.188,27.22,0.613c5.222-3.52,8.761-8.863,9.969-15.049
			c1.204-6.179-0.069-12.461-3.588-17.688C38.282,2.038,23.601-0.827,12.82,6.438C2.039,13.704-0.824,28.391,6.438,39.175
			c0.297,0.44,0.181,1.037-0.258,1.334c-0.438,0.295-1.04,0.183-1.335-0.26c-7.857-11.663-4.763-27.546,6.9-35.404
			c11.659-7.858,27.541-4.762,35.399,6.905c3.804,5.652,5.181,12.444,3.877,19.132c-1.302,6.687-5.131,12.465-10.781,16.27
			C35.934,50.056,30.954,51.5,25.987,51.5z"/>
	</g>
	<g>
		<g>
			<g>
				<path fill="#5AC6D3" d="M32.124,24.391c0,3.384-2.745,6.129-6.128,6.129c-3.388,0-6.13-2.747-6.13-6.129
					c0-0.954,0.223-1.854,0.612-2.662h-6.77v14.339c0,1.312,1.074,2.39,2.387,2.39h19.797c1.312,0,2.389-1.077,2.389-2.39V21.729
					h-6.769C31.898,22.537,32.124,23.435,32.124,24.391z"/>
				<path fill="#5AC6D3" d="M35.892,13.536H16.094c-1.313,0-2.387,1.078-2.387,2.392v4.777h7.395
					c1.118-1.484,2.89-2.445,4.895-2.445c2,0,3.772,0.961,4.891,2.445h7.395v-4.775C38.28,14.614,37.204,13.536,35.892,13.536z
					 M15.672,19.584h-0.891v-3.446c0-0.604,0.368-1.118,0.891-1.337V19.584L15.672,19.584z M17.128,19.584h-0.842v-4.898h0.842
					V19.584z M18.585,19.584h-0.843v-4.898h0.843V19.584z M20.041,16.138v1.995v1.451h-0.841v-4.898h0.841V16.138z M37.034,18.133
					c0,0.804-0.65,1.451-1.452,1.451h-2.358c-0.801,0-1.45-0.647-1.45-1.451v-1.995c0-0.799,0.649-1.452,1.45-1.452h2.358
					c0.802,0,1.452,0.653,1.452,1.452V18.133z"/>
				<path fill="#5AC6D3" d="M25.996,29.802c2.979,0,5.396-2.418,5.396-5.399c0-2.978-2.415-5.398-5.396-5.398
					c-2.982,0-5.401,2.42-5.401,5.398C20.595,27.384,23.012,29.802,25.996,29.802z M25.996,20.102c2.374,0,4.3,1.924,4.3,4.301
					c0,2.378-1.927,4.304-4.3,4.304c-2.376,0-4.303-1.926-4.303-4.304C21.692,22.026,23.619,20.102,25.996,20.102z"/>
			</g>
		</g>
	</g>
</g>
</svg>
